<?xml version="1.0" encoding="UTF-8"?>
<svg id="Layer_1" data-name="Layer 1" xmlns="http://www.w3.org/2000/svg" viewBox="0 0 512 512">
  <defs>
    <style>
      .cls-1 {
        fill: #f28a30;
      }
    </style>
  </defs>
  <path class="cls-1" d="M301.99,0c2.82,2.94,6.28,5.48,8.34,8.88,15.3,25.23,26.77,52.05,31.17,81.4,6.04,40.25-2.89,76.01-32.87,105.13-1.28,1.25-2.52,3.29-2.54,4.97-.17,18.99-.09,37.99-.07,56.99,0,.28,.24,.55,.57,1.28,5.25-6.61,10.51-12.11,12.14-21.33,7.05-39.84,31.66-66.03,67.71-82.31,26.49-11.96,54.53-16.81,83.45-16.99,9.08-.05,14.94,6.93,13.07,15.88-5.35,25.62-16.44,48.37-34.57,67.47-3.92,4.13-7.87,4.53-11.4,1.41-3.65-3.23-3.61-7.55,.4-11.81,12.66-13.45,21.4-29.16,27.14-46.62,.19-.59,.27-1.22,.43-1.96-14.56,4.37-98,60.51-120.97,81.47,7.17,0,13.69,.47,20.13-.09,15.84-1.39,31.05-5.25,45.53-12.1,2.35-1.11,6.41-.73,8.61,.66,1.76,1.11,2.75,4.9,2.46,7.32-.23,1.97-2.5,4.34-4.47,5.36-15.86,8.2-32.87,12.75-50.61,13.8-11.93,.71-23.95,.05-35.92,.07-1.24,0-2.93-.01-3.64,.72-9.3,9.62-15.79,20.76-18.38,34.47,7.32,.93,14.22,1.63,21.06,2.71,34.36,5.42,64.62,19.82,91.37,41.89,7.71,6.36,15.76,12.3,23.36,18.79,2.71,2.31,4.7,2.23,7.38,.5,5.56-3.59,11.48-5.89,18.34-5.17,10.7,1.13,19.14,8.44,22.11,19.47,2.73,10.15-1.02,21.98-9.26,27.68-27.79,19.23-55.68,38.3-83.53,57.44-9.37,6.44-20.08,8.41-31.11,9.52-28.64,2.87-57.25,6.06-85.91,8.71-13.7,1.27-27.64,3.2-41.19,1.9-11.66-1.12-22.95-6.3-34.35-9.86-11.73-3.66-23.44-7.38-35.06-11.37-6.87-2.36-12.71-1.35-17.86,3.78-1.06,1.06-2.25,1.99-3.4,2.95-4.51,3.76-8.24,6.84-6.11,14.5,2.52,9.09-2.18,16.92-10.49,21.77-7.59,4.42-15.38,8.5-23.08,12.72h-10c-7.88-2.97-12.71-8.84-16.81-16.04-19.42-34.12-39.17-68.05-58.8-102.05-8.35-14.46-5.26-25.89,9.28-34.31,3.17-1.84,6.45-3.49,9.49-5.52,10.52-7.04,20.91-8.25,31.16,.61,17.17-9.62,34.2-19,51.08-28.66,15.53-8.88,32.1-13.99,50-12.78,8.69,.59,17.23,3.27,25.87,4.79,1.93,.34,4.36,.43,5.98-.44,24.18-13.11,49.87-20.95,77.35-22.8,1.64-.11,3.28-.41,5.49-.7-.44-2.08-.56-4.06-1.27-5.79-2.14-5.21-4.29-10.44-6.84-15.46-5.18-10.23-12.08-14.76-25.09-13.8-38.18,2.79-73.42-6.37-102.58-32.77-22.04-19.95-34.33-45.39-39.98-74.24-1.25-6.39,4.57-13.96,11.4-13.86,48.62,.68,94.03,10.62,128.89,48.02,14.59,15.65,22.68,34.72,25.28,55.91,.88,7.19,7.15,9.87,11.06,14.93,0-1.42,0-2.83,0-4.25,0-16.83,.12-33.66-.14-50.49-.04-2.47-1.28-5.55-3.02-7.27-24.82-24.54-35.76-54.27-33.93-88.95,1.95-36.9,15.78-69.7,34.83-100.66,1.39-2.25,4.17-3.65,6.31-5.44,2.33,0,4.67,0,7,0Zm47.68,396.76c1.38-11.47-6.34-22.27-17.01-23.71-14.18-1.91-28.37-3.82-42.61-5.07-18.66-1.64-35.97-6.3-52.24-16.3-12.08-7.41-25.47-12.9-38.71-18.15-20.52-8.14-41.2-7.34-60.83,2.97-18.4,9.66-36.34,20.21-54.47,30.4-.38,.21-.6,.7-1.03,1.22,2.83,4.93,5.67,9.8,8.43,14.72,2.88,5.13,2.2,9.37-1.81,11.79-4.19,2.53-8.31,1.01-11.44-4.35-4.2-7.18-8.3-14.42-12.51-21.59-3.24-5.51-6.05-6.3-11.46-3.25-4.78,2.69-9.53,5.45-14.25,8.25-5.3,3.14-6.02,5.69-2.97,11.04,6.34,11.13,12.77,22.21,19.17,33.31,14.05,24.35,28.1,48.71,42.17,73.06,3.87,6.71,6.03,7.28,12.83,3.41,4.05-2.3,8.09-4.63,12.11-6.97,6.87-3.99,7.44-6.19,3.39-13.22-9.63-16.72-19.3-33.42-28.91-50.15-3.07-5.35-2.36-9.68,1.85-12.12,4.21-2.44,8.2-.89,11.39,4.59,3.86,6.61,7.62,13.27,11.45,19.9,3.8,6.57,7.63,13.11,11.69,20.07,3.31-2.92,6.21-5.38,9-7.95,9.27-8.54,19.88-10.87,31.88-7.02,19.29,6.19,38.64,12.17,57.85,18.61,7.43,2.49,14.84,3.52,22.56,2.75,10.6-1.05,21.19-2.13,31.79-3.21,25.33-2.59,50.64-5.32,75.98-7.75,11.41-1.09,22.3-3.01,31.75-10.32,7.1-5.49,14.75-10.28,22.16-15.38,17.97-12.37,35.94-24.72,53.9-37.1,6.36-4.39,8.05-10.48,4.56-16.26-3.39-5.63-8.32-6.38-15.55-2.55-17.34,9.18-34.71,18.31-52.08,27.45-11.86,6.24-24.26,11-37.71,12.18-16.41,1.44-32.86,2.54-49.29,3.73-15.11,1.09-30.23,2.18-45.35,3.11-4.99,.31-8.37-2.62-8.72-6.94-.36-4.43,2.4-7.62,7.52-8.07,8.62-.76,17.27-1.25,25.91-1.83,16.43-1.1,32.87-2.18,49.62-3.29Zm-125.52-70.25c12.66,6.92,25.27,13.95,38.03,20.68,2.87,1.51,6.25,2.38,9.49,2.8,18.95,2.48,37.9,5.05,56.91,7,17.02,1.74,29.15,9.58,35.01,25.93,1.37,3.83,1.73,8.02,2.63,12.42,24.71-2.37,44.1-17.22,65.73-27.39-76.19-71.41-153.06-67.52-207.82-41.45Zm28.86-82.85c-37.06-31.34-77.46-57.71-119.87-81.33,6.73,23.17,18.53,42.96,37.62,57.91,24.12,18.89,52.08,24.77,82.25,23.42Zm37.67-68.12V33.91c-.68,.64-1.14,.89-1.32,1.28-14.23,29.65-23.9,60.29-19.37,93.78,2.3,17,8.96,32.2,20.69,46.57Zm15.7-142.78V175.31c13.79-16.82,20.56-35.45,21.54-56.06,1.45-30.38-7.78-58.25-21.54-86.49Zm29.39,197.76c34.77-28.27,70.96-52.51,108.35-75.11-4.1,.27-8.03,.81-11.92,1.56-22.39,4.32-43.7,11.44-62.32,25.08-16.44,12.05-27.96,27.64-34.11,48.47Zm-181.92-74.97c37.15,22.38,72.92,46.48,107.72,74.58-.71-2.73-.94-3.98-1.35-5.17-6.06-17.34-16.75-31.27-31.42-42.17-22.25-16.53-47.96-23.73-74.94-27.24Z"/>
</svg>