<?xml version="1.0" encoding="UTF-8"?>
<svg id="Layer_1" data-name="Layer 1" xmlns="http://www.w3.org/2000/svg" viewBox="0 0 512 512">
  <defs>
    <style>
      .cls-1 {
        fill: #f28a30;
      }
    </style>
  </defs>
  <path class="cls-1" d="M0,204.04c0-9.98,0-19.96,0-29.94,.73-3.86,1.48-7.72,2.2-11.59C17.86,78.34,105.94,26.52,187.25,53.9c10.45,3.52,20.36,8.62,30.86,13.13,0-1.37,0-2.97,0-4.57,0-12.64,0-25.28,0-37.92,0-13.35,6.58-19.96,19.89-19.96,52.33-.02,104.66-.05,156.99-.02,5.49,0,11.03,0,16.46,.67,2.54,.31,5.41,1.67,7.23,3.47,23.81,23.52,46.92,47.76,71.39,70.57,10.61,9.89,14.25,20.24,14.16,34.34-.52,85.81-.27,171.63-.27,257.45,0,.5,0,1,0,1.5-.29,10.47-7.1,17.44-17.57,17.83-3.83,.14-7.67,.03-11.5,.03-9.78,0-19.56,0-29.83,0,0,10.5,0,20.43,0,30.37,0,13.45-6.37,19.78-19.91,19.78-53,0-106,0-159,0-1.92,0-3.84,0-5.84,0-.23,8.29-3.03,14.9-8.49,19.86-4.63,4.2-9.76,8.1-15.27,11.01-14.69,7.76-30.8,10.88-47.2,10.79-13.68-.08-27.36-2.04-41.71-3.23-7.18,12.38-19.92,19.23-34.32,23.33-7.94,2.26-16.17,3.47-24.28,5.15h-26.01c-6.99-1.34-14.08-2.27-20.93-4.11C23.82,498.43,7.03,491.34,0,471.53v-95.82c5.4-14.99,17.2-22.95,31.32-28.33,12.86-4.89,26.26-7.58,39.95-7.4,12.51,.17,25.01,1.62,37.77,2.52,0-2.87-.2-6.52,.06-10.14,.25-3.5-.77-5-4.48-6.12-51.62-15.57-85.06-49.29-100.09-100.98-2.02-6.93-3.05-14.14-4.53-21.22ZM235.52,21.82c-.21,.89-.42,1.36-.42,1.83-.03,18.13-.1,36.25,.07,54.38,.02,1.65,1.29,3.69,2.6,4.87,52.69,47.23,63.08,123.92,24.91,183.57-1.42,2.22-2.3,5.19-2.31,7.82-.16,31.26-.11,62.53-.09,93.8,0,1.6,.18,3.2,.28,4.84h225.97V105.36c-2.16,0-3.97,0-5.77,0-19.67,0-39.33,.04-59-.02-12.43-.04-18.76-6.36-18.79-18.7-.04-19.79,0-39.58-.02-59.37,0-1.76-.14-3.51-.23-5.45H235.52Zm-55.92,208.71c7.83,.52,14.95,1.19,22.09,1.3,1.64,.03,3.96-1.5,4.87-2.98,9.22-15.09,12.83-31.34,10.73-49.06-4.71-39.78-42.25-69.89-82.14-65.48-45.3,5.01-75.68,46.59-65.98,91.07,5.11,23.45,19.11,40.54,40.57,51.39,1.28,.65,3.81,.78,4.67-.02,3.93-3.65,7.48-7.71,10.76-11.2-4.63-3.06-9.87-5.77-14.18-9.54-6.75-5.9-11.06-13.32-9.94-22.8,.45-3.79,2.38-6.56,6.45-7.17,4.29-.65,7.55,.95,9.36,4.93,.61,1.32,.75,2.88,.98,4.35,1.13,7.22,8.42,13.36,16.27,13.44,0-9.3,0-18.59,0-27.89,0-1.15-.11-2.3-.18-3.74-1.46-.4-2.99-.56-4.27-1.22-6.29-3.25-13.31-5.69-18.6-10.16-13.88-11.72-14.09-31.24-.4-43.18,5.31-4.63,12.47-7.26,18.99-10.35,2.41-1.14,4.19-1.96,5.69-4.54,1.35-2.31,4.74-4.53,7.34-4.68,2.38-.13,6.33,2.06,7.08,4.13,1.43,3.96,4.2,4.26,7.3,5.24,13.84,4.39,24.18,12.46,27.44,27.41,1.36,6.22-1.4,11.4-6.23,12.35-5.72,1.12-9.15-1.79-10.48-8.88-1.42-7.6-8.94-13.91-16.7-13.78,0,8.96,.13,17.93-.07,26.89-.08,3.49,.73,4.98,4.54,6.02,14.3,3.9,25.24,11.79,28.82,27.2,1.77,7.63-1.07,14.29-4.8,20.95Zm248.3,160.23h-167.3v32.49h167.3v-32.49ZM181.17,247.78c-4.07,.47-11.9,.92-19.54,2.34-10.33,1.93-20.3,5.19-28.75,11.8-8.87,6.93-9.09,15.01-.12,21.67,4.47,3.32,9.55,6.18,14.79,8.04,21.74,7.72,43.9,8.23,66.22,2.58,8.94-2.26,17.47-5.5,24.38-11.86,6.79-6.25,6.97-12.67,.11-18.71-3.56-3.13-7.77-5.75-12.08-7.74-13.04-6.02-27-7.87-44.99-8.14Zm-106.02,159.26c5.47-.45,10.96-.65,16.39-1.39,11.93-1.62,23.54-4.49,33.73-11.26,11.79-7.83,11.92-17.52,0-24.99-5.53-3.47-11.72-6.24-17.98-8.14-22.11-6.71-44.4-6.3-66.22,1.08-7.07,2.39-13.88,6.45-19.79,11.06-6.21,4.85-5.99,11.37-.15,16.75,3.72,3.42,8.16,6.36,12.75,8.5,13.01,6.09,26.97,8.01,41.27,8.39ZM47.81,107.63C12.45,144.84,8.58,206.22,30.5,243.96c9.42-5.45,18.83-10.9,28.17-16.3-14.66-35.32-10.09-67.63,12.19-96.94-7.88-7.89-15.48-15.49-23.06-23.09ZM251.88,251.04c22.9-37.37,20.18-88.03,3.18-116.85-9.43,5.46-18.86,10.92-28.36,16.42,12.6,29.34,11.03,57.57-3.62,84.29,9.74,5.46,19.07,10.69,28.8,16.14ZM151.38,97.28c27.62,3.35,49.95,16.09,66.74,38.62,9.82-5.69,19.25-11.14,29.02-16.79-23.64-33.33-55.17-51.55-95.76-55.23v33.4ZM16.95,451.87c0,3.16,.3,6.18-.06,9.12-.97,8.03,2.99,13.32,9.3,17.3,2.94,1.85,5.94,3.96,9.22,4.84,9.73,2.63,19.5,5.68,29.45,6.79,18.93,2.11,37.68,.16,54.86-8.69,15.55-8.01,15.65-12.41,13.72-29.04-38.63,18.3-77.23,18.29-116.49-.33Zm109.06-150.85c0,3.24,.28,6.25-.05,9.21-.88,7.8,2.89,13.05,9.02,17.02,2.64,1.71,5.34,3.7,8.3,4.48,10.71,2.83,21.42,6.29,32.35,7.52,18.09,2.02,36.06-.16,52.53-8.45,16.58-8.34,16.05-12.63,14.49-29.43-38.69,18.43-77.34,18.3-116.63-.34ZM16.95,409.95c0,3.56,.26,6.9-.06,10.19-.66,6.77,2.48,11.54,7.72,15.12,3.27,2.23,6.67,4.71,10.39,5.78,9.68,2.77,19.46,5.84,29.41,6.94,19.43,2.15,38.66,.25,56.23-9.14,14.63-7.81,14.72-12.2,12.77-28.51-38.64,18.24-77.24,18.28-116.46-.38Zm109.36-66.91c-1.21,4.61,.08,7.37,4.8,9.64,8.68,4.17,14.41,11.45,18.31,20.28,.85,1.91,3.07,4.03,5.03,4.5,6.92,1.65,13.96,3.16,21.03,3.75,19.02,1.6,37.67-.53,54.7-9.6,14.22-7.57,14.32-11.67,12.26-28.21-38.67,18.19-77.26,18.2-116.14-.36Zm-17.26-33.02c0-11.32,.11-22.09-.15-32.86-.03-1.22-1.9-2.7-3.25-3.53-6.35-3.9-13.33-6.98-19.12-11.57-7.1-5.61-13.23-12.43-20.21-19.13-8.84,5.12-18.23,10.56-27.88,16.15,17.84,25.41,40.94,42.21,70.6,50.94Zm24.92-245.96c-28.26,2.24-52.55,12.38-73.48,30.31,8.04,8.05,15.65,15.68,23.49,23.52,14.41-11.8,31.24-18.58,49.99-20.71v-33.11Zm17.15,330.52c0,7.46-.13,14.57,.13,21.67,.04,1.13,1.63,2.88,2.81,3.19,25.56,6.72,50.85,6.35,74.88-5.39,15.82-7.74,15.39-12.05,13.56-29.55-28.91,15.77-59.44,17.2-91.39,10.09Zm91.96,31.28c-29.64,16.84-60.21,17.72-91.97,10.59,0,6.91,.22,13.23-.09,19.51-.16,3.45,.92,4.88,4.31,5.77,15.03,3.94,30.22,4.88,45.53,2.63,12.07-1.77,23.97-4.6,33.96-12.01,3.4-2.52,6.8-6.36,7.93-10.25,1.37-4.71,.32-10.12,.32-16.23ZM472.75,88.13c-17.54-17.52-35.1-35.06-52.43-52.37v52.37h52.43ZM151.32,229.09c9-.99,16.38-7.78,16.36-14.87-.02-7.12-7.14-13.66-16.36-14.87v29.74Zm-17.4-79.76c-8.79,.55-16.07,7.33-16.02,14.76,.05,7.31,7.53,14.13,16.02,14.52v-29.28Z"/>
  <path class="cls-1" d="M353.42,210.08c-7.84,9.79-15.15,18.92-23.04,28.77,2.7,.12,4.45,.26,6.19,.26,37.32,.01,74.64,0,111.96,.01,1.33,0,2.67-.05,4,.02,5.49,.32,9.29,3.76,9.39,8.46,.1,4.89-3.77,8.51-9.63,8.52-27.99,.07-55.98,.04-83.97,.04-18.33,0-36.65,.02-54.98-.01-8.62-.02-11.23-2.7-11.23-11.37,0-31.76,.02-63.51-.03-95.27,0-3.87,.55-7.31,4.18-9.47,6.09-3.62,12.76,.64,12.78,8.3,.06,22.94,.02,45.89,.02,68.83,0,2.31,0,4.61,0,8.42,2.61-3.18,4.44-5.36,6.22-7.58,6.57-8.16,13.07-16.38,19.7-24.5,4.79-5.86,9.39-6.14,14.79-.9,2.86,2.77,5.48,5.8,8.65,9.19,5.61-6.97,10.79-13.39,15.95-19.81,3.54-4.41,7.01-8.88,10.62-13.23,5.26-6.35,9.69-6.6,15.48-.87,5.43,5.38,10.77,10.84,16.65,16.77,5.55-7.34,10.8-14.3,16.06-21.25,1.1-1.46,2.13-2.99,3.34-4.35,3.52-4,8.14-4.65,11.96-1.78,3.74,2.81,4.54,7.67,1.48,11.97-4.62,6.5-9.54,12.8-14.33,19.18-3.19,4.26-6.34,8.55-9.58,12.77-4.68,6.09-9.65,6.5-15.08,1.16-5.69-5.6-11.27-11.3-17.23-17.3-8.62,10.72-17.02,21.15-25.38,31.6-6.42,8.03-10.03,8.32-17.44,1.17-2.39-2.3-4.62-4.77-7.47-7.74Z"/>
  <path class="cls-1" d="M327.31,306.12c7.5,0,14.12-.03,20.74,.02,1.99,.01,4.02,.01,5.96,.4,4.49,.9,6.96,3.75,7.01,8.38,.05,4.38-3.02,7.84-7.78,8.14-5.98,.38-11.99,.19-17.99,.24-2.31,.02-4.61,0-7.66,0,0,4.75,.02,9.02,0,13.28-.06,13.85-6.33,20.15-20.07,20.16-4.5,0-9,.1-13.5-.04-4.98-.15-8.77-3.89-8.77-8.42,0-4.51,3.79-8.29,8.77-8.43,5.29-.15,10.58-.03,16.11-.03v-50.03c-5.47,0-10.91,.14-16.34-.05-4.31-.15-7.18-2.57-8.22-6.74-.96-3.86,.71-6.93,3.97-8.87,1.46-.87,3.46-1.12,5.22-1.17,5.33-.14,10.67-.1,16-.04,8.83,.1,15.66,5.97,16.46,14.83,.53,5.88,.1,11.86,.1,18.36Z"/>
  <path class="cls-1" d="M318.93,88.74c-15.32,0-30.64,.01-45.96-.02-1.99,0-4.02-.03-5.96-.38-4.36-.8-6.69-3.71-6.81-7.98-.11-4.06,2.01-7.01,6.03-8.12,1.89-.52,3.93-.65,5.91-.65,31.3-.04,62.61-.03,93.91,0,1.65,0,3.34,.08,4.95,.42,4.55,.96,7.01,4.06,6.83,8.51-.19,4.43-2.81,7.56-7.46,7.92-4.8,.37-9.64,.28-14.47,.29-12.32,.03-24.64,.01-36.97,.01Z"/>
  <path class="cls-1" d="M318.98,38.36c16.32,0,32.64-.01,48.95,0,5.98,0,9.82,3.15,10,8.06,.18,5.03-3.93,8.79-9.94,8.79-32.64,.04-65.27,.04-97.91,0-6.09,0-10.09-3.63-9.96-8.74,.13-5,3.86-8.11,9.89-8.12,16.32-.02,32.64,0,48.95,0Z"/>
  <path class="cls-1" d="M415.72,272.91c12.16,0,24.32-.03,36.48,.01,5.78,.02,9.76,3.51,9.72,8.39-.03,4.84-4.05,8.47-9.79,8.48-24.32,.06-48.64,.05-72.96,0-6.02-.01-10.13-3.78-9.94-8.8,.19-4.92,4.03-8.06,10.01-8.08,12.16-.03,24.32,0,36.48,0Z"/>
  <path class="cls-1" d="M415.42,356.73c-11.99,0-23.99,.02-35.98,0-6.16-.02-10.24-3.44-10.23-8.46,0-5.01,4.1-8.44,10.25-8.44,24.15-.02,48.31-.03,72.46,0,5.85,0,9.81,3.35,9.98,8.22,.17,5.01-3.96,8.66-10.01,8.68-12.16,.04-24.32,.01-36.48,.01Z"/>
  <path class="cls-1" d="M415.34,323.29c-11.33,0-22.65,.02-33.98-.02-1.82,0-3.68-.05-5.46-.41-4.15-.83-6.36-3.74-6.58-7.71-.22-4.01,1.84-7.1,5.83-8.28,2.03-.6,4.26-.73,6.4-.73,22.65-.05,45.31-.03,67.96-.03,1,0,2-.04,3,.04,5.6,.43,9.29,3.76,9.4,8.45,.12,4.89-3.68,8.55-9.59,8.62-12.32,.15-24.65,.05-36.98,.05v.02Z"/>
  <path class="cls-1" d="M335.53,105.26c10.81,0,21.61-.03,32.42,.01,6.04,.02,10.14,3.64,9.99,8.66-.15,4.88-4.07,8.23-9.92,8.24-21.45,.04-42.9,.04-64.34,0-6.34-.01-9.9-3.25-9.79-8.67,.11-5.16,3.63-8.2,9.73-8.23,10.64-.04,21.28-.01,31.92-.01Z"/>
</svg>