<svg xmlns="http://www.w3.org/2000/svg" width="50" height="40" viewBox="0 0 50 40">
  <path id="Trazado_17285" data-name="Trazado 17285" d="M44.25,25a6.75,6.75,0,1,1-6.75-6.75A6.752,6.752,0,0,1,44.25,25ZM37.5,29.25A4.254,4.254,0,0,0,41.75,25a4.21,4.21,0,0,0-4.25-4.25A4.167,4.167,0,0,0,33.25,25,4.21,4.21,0,0,0,37.5,29.25ZM29.93,12.289V3.75A3.8,3.8,0,0,1,33.68,0H44.008A3.757,3.757,0,0,1,47.43,2.211L52.055,12.5H60V9.359a8.752,8.752,0,0,1,2.563-6.19l.3-.3a1.249,1.249,0,0,1,1.766,1.767l-.3.3A6.249,6.249,0,0,0,62.5,9.359V12.5h6.883A3.078,3.078,0,0,1,72.5,15.625v4.727a2.989,2.989,0,0,1-1.242,2.438L66.8,26.336A4.658,4.658,0,0,1,63.688,27.5H52.359a3.75,3.75,0,0,1-2.57,2.594,3.751,3.751,0,0,1-.633,4.461l-2.1,2.1a3.751,3.751,0,0,1-4.461.633A3.766,3.766,0,0,1,38.984,40H35.945a3.746,3.746,0,0,1-3.539-2.711,3.738,3.738,0,0,1-4.461-.633l-2.1-2.1a3.76,3.76,0,0,1-.632-4.461A3.765,3.765,0,0,1,22.5,26.484V23.445a3.745,3.745,0,0,1,2.71-3.539,3.745,3.745,0,0,1,.631-4.461l2.1-2.1A3.763,3.763,0,0,1,30,12.289Zm2.5.148A3.894,3.894,0,0,1,35.945,10h3.039a3.766,3.766,0,0,1,3.609,2.711,3.739,3.739,0,0,1,3.172-.211H49.32L45.148,3.237A1.252,1.252,0,0,0,44.008,2.5H33.68a1.3,1.3,0,0,0-1.25,1.25ZM52.5,25H63.688a2.241,2.241,0,0,0,1.563-.617L69.7,20.836a.53.53,0,0,0,.3-.484V15.625A.62.62,0,0,0,69.383,15H48.711l.445.445a3.737,3.737,0,0,1,.633,4.461A3.746,3.746,0,0,1,52.5,23.445ZM34.594,15.4l-.719.281c-.133.047-.273.109-.406.164l-.7.313-1.375-1.133a1.254,1.254,0,0,0-1.677.086l-2.1,2.1a1.255,1.255,0,0,0-.084,1.68l1.129,1.375-.309.7c-.059.133-.116.273-.17.406l-.277.719-1.773.172a1.311,1.311,0,0,0-1.2,1.18v3.039a1.2,1.2,0,0,0,1.2,1.18l1.773.242.277.719c.054.133.11.273.169.406l.31.7-1.129,1.375a1.255,1.255,0,0,0,.084,1.68l2.1,2.1a1.254,1.254,0,0,0,1.677.086l1.375-1.133.7.313c.133.055.273.117.406.164l.719.281.172,1.773a1.24,1.24,0,0,0,1.18,1.125h3.039a1.143,1.143,0,0,0,1.18-1.125l.242-1.773.719-.281c.133-.047.273-.109.406-.164l.7-.312,1.375,1.133a1.257,1.257,0,0,0,1.68-.086l2.1-2.1a1.257,1.257,0,0,0,.086-1.68l-1.133-1.375.313-.7c.055-.133.117-.273.164-.406l.281-.719,1.773-.242A1.143,1.143,0,0,0,50,26.484V23.445a1.24,1.24,0,0,0-1.125-1.18L47.1,22.094l-.281-.719c-.047-.133-.109-.273-.164-.406l-.312-.7,1.133-1.375a1.257,1.257,0,0,0-.086-1.68l-2.1-2.1a1.257,1.257,0,0,0-1.68-.086l-1.375,1.133-.7-.312c-.133-.055-.273-.117-.406-.164l-.719-.281-.242-1.773a1.2,1.2,0,0,0-1.18-1.2H35.945a1.309,1.309,0,0,0-1.18,1.2ZM57.5,35a5,5,0,1,1,5,5A5,5,0,0,1,57.5,35Zm5,2.5A2.5,2.5,0,1,0,60,35,2.5,2.5,0,0,0,62.5,37.5Z" transform="translate(-22.5)" fill="#fa8d2d"/>
</svg>
