<svg xmlns="http://www.w3.org/2000/svg" width="40" height="40" viewBox="0 0 40 40">
  <path id="Trazado_17267" data-name="Trazado 17267" d="M66.266,10.445A2.592,2.592,0,0,1,67.5,12.563,2.441,2.441,0,0,1,65.063,15H29.934a2.436,2.436,0,0,1-1.2-4.555L46.883.162a1.251,1.251,0,0,1,1.234,0ZM64.82,12.5,47.5,2.687,30.183,12.5H43.547a4.313,4.313,0,0,1-.422-1.875,4.375,4.375,0,0,1,8.75,0,4.313,4.313,0,0,1-.422,1.875Zm-17.32,0a1.875,1.875,0,1,0-1.875-1.875A1.871,1.871,0,0,0,47.5,12.5Zm-15,5H35v10h6.25v-10h2.5v10h7.5v-10h2.5v10H60v-10h2.5v10a1.25,1.25,0,0,1,0,2.5h-30a1.25,1.25,0,1,1,0-2.5Zm31.875,15a1.25,1.25,0,0,1,0,2.5H30.625a1.25,1.25,0,1,1,0-2.5Zm1.875,5a1.25,1.25,0,0,1,0,2.5H28.75a1.25,1.25,0,1,1,0-2.5Z" transform="translate(-27.5)" fill="#fa8d2d"/>
</svg>
