<?xml version="1.0" encoding="UTF-8"?>
<svg id="Layer_1" data-name="Layer 1" xmlns="http://www.w3.org/2000/svg" viewBox="0 0 512 512">
  <defs>
    <style>
      .cls-1 {
        fill: #f28a30;
      }
    </style>
  </defs>
  <path class="cls-1" d="M0,346.91c2.43-4.7,6.3-6.41,11.53-6.04,4.44,.31,8.92,.06,13.92,.06,0-5.12-.03-9.73,0-14.33,.1-11.88,4.94-17.71,16.84-20.04v-66.99c-1.54-.46-3.25-.9-4.91-1.49-6.5-2.32-10.86-6.76-11.44-13.71-.57-6.77-.7-13.64-.26-20.41,.64-9.98,7.48-15.97,17.94-16.32,5.29-.18,10.6-.03,15.8-.03,9.01-53.67,40.13-84.71,93.85-93.7,0-2.74,0-5.53,0-8.33,0-24.28,0-48.56,0-72.84,0-9.53,2.64-12.14,12.13-12.15,23.49,0,46.99,0,70.48,0,8.91,0,11.48,2.59,11.55,11.63,.03,4.3,0,8.6,0,13.69,7.19,0,13.95,0,20.7,0,11.11,0,13.5,2.4,13.51,13.49,0,8.81,.04,17.63-.01,26.44-.05,8.47-3.08,11.52-11.38,11.53-23.83,.02-47.66,.02-71.48,0-8.17,0-11.2-2.96-11.33-11.03-.08-4.63-.01-9.26-.01-14.26h-16.16v41.59c8.56,2.24,17.23,3.9,25.47,6.79,21.96,7.7,39.21,21.67,51.55,41.31,2.57,4.09,5.1,5.04,9.5,4.5,31.73-3.85,61.18,2.88,88.2,19.84,21.98,13.79,38.43,32.61,49.73,55.92,.57,1.18,1.13,2.38,1.88,3.97,2.58-1.85,4.93-3.66,7.4-5.29,4.3-2.83,9.06-2.08,11.98,1.77,2.88,3.79,2.42,8.05-1.27,11.61-.24,.23-.47,.51-.76,.64-10.1,4.56-10.48,11.65-8.29,21.87,6.31,29.51,1.91,58.09-11.58,85.15-1.28,2.58-.92,4.12,1.15,5.96,2.98,2.65,5.67,5.62,8.49,8.45,3.71,3.72,5.42,8.11,5.44,13.45,0,2.16,1.29,4.51,2.55,6.4,1.26,1.9,3.24,3.32,4.85,5.01,3.88,4.05,7.34,7.99,14.23,7.25,3.11-.34,7.29,2.46,9.86,4.98,20.45,20.04,40.89,40.1,60.7,60.76,4.48,4.67,6.48,11.69,9.63,17.63v11.98c-2.14,4.62-3.8,9.54-6.52,13.79-4.97,7.77-12.9,11.57-21.48,14.15h-12c-6.05-3.26-13.18-5.41-17.97-9.99-20.59-19.65-40.59-39.93-60.53-60.24-2.61-2.66-5.33-7.01-5.05-10.33,.54-6.25-2.83-9.44-6.51-13-1.91-1.85-3.57-4.05-5.73-5.54-1.86-1.29-4.26-2.52-6.41-2.52-5.36,0-9.77-1.68-13.44-5.46-2.89-2.98-5.71-6.03-8.68-9.18-17.36,10.98-35.64,18.11-55.55,20.77-3.12,.42-7.38-.27-9.05,1.5-1.8,1.9-1.17,6.09-1.62,9.28-.07,.49-.22,.97-.36,1.45-1.15,4.01-3.92,6.17-7.99,6.29-4.1,.12-7.12-1.96-8.24-5.91-.67-2.34-.79-4.92-.66-7.37,.16-3.1-.8-4.31-4.09-4.64-40.28-4.04-72.56-22.43-96.96-54.57-2.25-2.97-4.38-4.23-8.16-4.22-47.49,.14-94.99,.03-142.48,.17-5.14,.02-9.41-.9-12.51-5.21v-5.99Zm272.49,53.55c69.06-.35,120.97-56.9,119.72-122.6-1.2-63.21-55.41-116-120.12-115.59-65.93,.41-118.91,54.56-118.27,120.88,.63,64.64,54.44,117.85,118.67,117.31Zm182.2,29.07c-8.61,8.6-16.42,16.39-24.36,24.31,11.64,11.63,23.48,23.75,35.67,35.5,6.75,6.51,17.52,5.93,23.81-.64,6.15-6.41,6.19-16.58-.3-23.37-7.46-7.8-15.28-15.26-22.84-22.97-4.28-4.36-8.35-8.93-11.99-12.83ZM159.24,205.39H43.24v15.83c.63,.25,.94,.47,1.24,.47,34.29,.05,68.57,.1,102.86,.04,1.23,0,2.99-.82,3.61-1.81,2.86-4.59,5.4-9.38,8.29-14.53Zm-6.2-92.02c-22.52,6.18-32.47,50.36-32.42,73.87h32.42V113.37Zm-3.27,227.44c-1.81-4.5-3.69-8.39-4.92-12.47-1.04-3.43-2.74-4.51-6.37-4.49-30.31,.16-60.62,.09-90.93,.1-1.44,0-2.88,.17-4.24,.26v16.59h106.47Zm21.4-227.66v75.16c2.17-1.28,3.71-1.97,4.99-2.99,7.52-5.99,15.04-11.98,22.38-18.18,1.25-1.05,2.53-3.31,2.26-4.71-2.44-12.38-5.82-24.5-12.86-35.21-4.05-6.17-8.99-11.38-16.78-14.08Zm-76.87,126.14v67.44h16.34v-67.44h-16.34Zm-34.01-.09v67.43h16.08v-67.43h-16.08Zm17.15-51.62c7.33,0,13.95-.19,20.56,.08,3.69,.15,4.54-1.2,5.12-4.73,2.18-13.38,4.6-26.73,7.57-39.95,1.38-6.16,4.23-11.99,6.83-19.11-23.39,15.69-36.56,36.18-40.07,63.72ZM229.83,17.88h-58.64v16.34h58.64V17.88Zm-101.51,221.33v67.78c2.63,0,4.94,.02,7.25-.01,.98-.01,1.96-.15,3.26-.26-4.4-22.87-2.78-45.26,4.31-67.51h-14.82ZM263.92,43.4c-5.03,0-9.5-.08-13.97,.06-.95,.03-2.52,.71-2.7,1.39-1.75,6.49-6.68,6.95-12.14,6.89-9.92-.11-19.85-.03-29.97-.03v8h58.78v-16.31Zm176.36,374.28c-3.81-4.15-7.45-8.13-10.56-11.52-7.94,7.92-15.67,15.64-22.77,22.73,3.33,3.56,7.01,7.5,10.67,11.42,7.66-7.65,15.31-15.29,22.66-22.63Zm-71.87-26.38c7.77-7.75,15.57-15.53,23.56-23.49-2.11-2.09-4.69-4.64-7.28-7.21-7.63,8.33-15.09,16.49-22.6,24.69,2.3,2.19,4.65,4.43,6.32,6.01ZM233.74,150.73c-7.01-10.59-15.48-19.16-26.3-25.91,3.69,10.9,7.15,21.13,10.71,31.66,4.94-1.82,10.02-3.69,15.59-5.75Zm176.32,248.35c-3.44-3.55-7.19-7.41-10.81-11.15-3.65,3.8-7.36,7.66-10.85,11.3,3.4,3.56,7.03,7.36,10.68,11.18,3.82-3.94,7.47-7.7,10.98-11.32Z"/>
  <path class="cls-1" d="M512,139.31c-5.23,12.27-9.08,14.76-22.82,14.77-9.29,0-18.58,0-28.14,0-.73,7.2,1.27,15.86-9.17,16.8-5.84,.52-7.89-3.55-9.05-16.8h-5.7c-24.99,0-49.99-.29-74.97,.12-13.16,.21-21.48-7.55-21.3-20.94,.51-37.74,.17-75.49,.18-113.24,0-12.82,6.55-19.42,19.26-19.42,43.15,0,86.31,.24,129.46-.17,11.14-.11,18.52,3.63,22.26,14.14v124.76Zm-17.92-121.4h-135.56v118.22h135.56V17.91Z"/>
  <path class="cls-1" d="M0,433.74c1.68-5.5,3-11.15,5.11-16.48,10.83-27.24,39.84-44.95,68.76-42.19,30.56,2.92,55.35,24.94,61.17,54.33,.32,1.62,.78,3.21,1.28,5.24,3.33,0,6.65-.12,9.95,.03,5.06,.23,8.66,3.86,8.63,8.48-.03,4.57-3.75,8.29-8.7,8.5-3.15,.14-6.31,.03-9.85,.03-.72,2.93-1.39,5.77-2.13,8.58-7.21,27.33-29.39,46.76-57.47,50.41-.94,.12-1.84,.6-2.76,.92h-11c-.93-.3-1.85-.75-2.8-.88-25.06-3.38-43.09-16.6-53.93-39.21C3.31,465.31,2.04,458.32,0,451.7c0-5.99,0-11.98,0-17.96Zm59.68-40.22c-19.34,1.74-36.77,18.53-41.39,39.24-4.72,21.19,5.52,43.79,24.79,54.67,17.07,9.64,41.76,8.3,54.2-3.28-10.59-10.53-21.03-21.19-31.83-31.49-4.18-3.99-5.99-8.23-5.87-14.01,.3-14.92,.1-29.85,.1-45.15Zm49.69,78.58c10.44-11.27,12.95-33,5.63-49.26-7.35-16.33-19.95-26.18-38.06-29.78,0,15.27-.02,29.89,.05,44.5,0,1.05,.44,2.37,1.16,3.09,10.35,10.52,20.79,20.97,31.22,31.45Z"/>
  <path class="cls-1" d="M459.31,194.78c-1.25,3.03-1.54,5.53-2.95,6.85-5.04,4.73-10.18,9.44-15.82,13.39-3.61,2.53-7.52,.7-10.04-2.67-2.56-3.41-2.68-7.39,.34-10.48,4.49-4.59,9.19-9.09,14.38-12.83,1.95-1.41,5.93-1.56,8.22-.55,2.46,1.08,4.02,4.19,5.88,6.3Z"/>
  <path class="cls-1" d="M240.22,434.68c2.99,0,5.98-.16,8.95,.04,4.64,.31,7.66,3.51,7.83,7.99,.18,4.64-2.9,8.63-7.51,8.85-6.29,.3-12.61,.3-18.9,0-4.63-.21-7.73-4.16-7.58-8.79,.14-4.48,3.15-7.62,7.76-8.09,.33-.03,.66-.06,.99-.06,2.82,0,5.64,0,8.46,0,0,.02,0,.04,0,.05Z"/>
  <path class="cls-1" d="M189.23,434.69c2.99,0,5.98-.18,8.95,.04,4.53,.33,7.65,3.74,7.77,8.13,.12,4.47-3.19,8.51-7.76,8.72-6.12,.28-12.28,.25-18.41,.02-4.76-.18-7.92-3.82-7.93-8.48,0-4.73,3.07-8,7.92-8.45,.33-.03,.66-.05,.99-.05,2.82,0,5.64,0,8.46,0,0,.02,0,.05,0,.07Z"/>
  <path class="cls-1" d="M375.19,281.28c-.06,56.57-46.11,102.58-102.56,102.45-56.07-.13-102.32-46.49-102.25-102.48,.08-56.63,46.04-102.31,102.78-102.14,56.73,.17,102.08,45.59,102.03,102.18Zm-25.95,36.54c16.5-31.36,10.1-76.37-23.13-102.75-33.78-26.8-82.01-24.35-112.63,5.37-30.24,29.36-30.88,73.22-16.82,96.96,3.25-16.52,12.86-27.71,28.35-33.78-7.31-24.35-2.62-45.05,17.94-60.63,16.37-12.41,39.06-13.55,56.29-2.41,23.35,15.1,29.29,36.82,21.61,63.07,15.49,6.13,24.93,17.3,28.39,34.16Zm-85.12,11.7c0-3.82,.29-7.68-.15-11.46-.17-1.44-1.76-3.55-3.08-3.9-9.08-2.37-16.85-6.82-23.79-13.07-1.25-1.13-3.94-1.73-5.55-1.24-10.15,3.09-16.38,9.98-17.73,20.56-.71,5.58-.3,11.29-.75,16.91-.27,3.37,1.07,5.51,3.44,7.69,30.29,27.91,79.66,28.36,111.63,1.06,3.16-2.7,4.9-5.43,4.43-9.77-.5-4.61-.13-9.31-.37-13.95-.58-10.82-7.56-19.68-18.02-22.52-1.64-.45-4.28,.16-5.53,1.3-6.79,6.16-14.39,10.73-23.35,12.75-2.86,.65-3.75,1.93-3.68,4.75,.16,7.15,.2,14.3-.02,21.45-.18,5.81-3.89,9.64-8.76,9.6-4.9-.04-8.49-3.97-8.68-9.69-.12-3.49-.02-6.98-.03-10.47Zm8.53-31.36c18.68,.08,34.26-15.22,34.33-33.7,.07-18.52-15.42-33.95-34.09-33.95-18.52,0-33.83,15.11-33.94,33.48-.1,18.73,15.05,34.1,33.69,34.17Z"/>
  <path class="cls-1" d="M426.3,85.75c-13.48,0-26.95,.03-40.43-.01-6.82-.02-10.67-3.09-10.78-8.37-.12-5.4,4.07-8.83,10.91-8.83,27.12-.02,54.24,.02,81.36-.03,3.96,0,7.7,.92,9.06,4.74,.88,2.49,.69,5.9-.3,8.38-1.45,3.64-5.2,4.16-8.88,4.15-13.64-.04-27.29-.02-40.93-.02Z"/>
  <path class="cls-1" d="M414.01,34.55c9.33,0,18.66-.04,27.99,.01,6.19,.03,10.01,3.4,9.98,8.65-.03,5.16-3.52,8.42-9.6,8.45-19.16,.09-38.31,.09-57.47,0-6.01-.02-9.7-3.34-9.81-8.34-.11-5.13,3.89-8.74,9.93-8.77,9.66-.06,19.32-.02,28.99-.02Z"/>
  <path class="cls-1" d="M400.93,102.5c5.32,0,10.65-.11,15.97,.03,5.79,.15,9.5,3.69,9.48,8.73-.02,4.85-3.47,8.48-9.07,8.6-10.97,.24-21.96,.23-32.93,.01-5.8-.12-9.49-4-9.29-8.94,.19-4.9,4.08-8.3,9.88-8.41,5.32-.11,10.64-.02,15.97-.02Z"/>
</svg>