<?xml version="1.0" encoding="UTF-8"?>
<svg id="Layer_1" data-name="Layer 1" xmlns="http://www.w3.org/2000/svg" viewBox="0 0 512 512">
  <defs>
    <style>
      .cls-1 {
        fill: #f28a30;
      }
    </style>
  </defs>
  <path class="cls-1" d="M0,126.33c1.67-5.68,2.94-11.51,5.06-17.02,11.58-29.97,43.06-49.66,74.14-46.62,34.27,3.36,61.18,27.79,66.87,60.68,7.78,45.01-26.35,85.92-72.09,86.42-35.2,.38-66.77-25.75-72.94-60.34C.86,148.37,.36,147.34,0,146.29c0-6.65,0-13.31,0-19.96Zm73.63,68.02c32.31-.02,58.41-26.04,58.41-58.24,0-32.06-26.41-58.4-58.49-58.34-32.07,.06-58.57,26.5-58.55,58.42,.02,32,26.41,58.18,58.62,58.16Z"/>
  <path class="cls-1" d="M512,144.29c-1.01,4-1.88,8.03-3.05,11.98-9.4,31.66-40.66,54.16-72.62,52.35-36.17-2.05-64.42-26.42-70.39-60.74-5.33-30.63,8.77-61.01,35.43-76.35,5.75-3.31,10.09-2.82,12.64,1.4,2.58,4.27,.95,8.17-4.87,11.65-20.38,12.18-32.24,35.66-28.87,57.16,4,25.51,20.46,44.02,44.5,50.05,31.8,7.97,64.54-13,71.09-45.53,6.44-32-16.15-64.28-48.17-68.81-2.3-.33-4.65-.39-6.93-.83-4.81-.93-7.15-3.91-6.73-8.28,.39-4.11,3.76-7.4,8.35-6.64,8.14,1.33,16.6,2.44,24.11,5.58,24.85,10.39,39.67,29.28,44.58,55.81,.14,.77,.61,1.49,.93,2.23v18.96Z"/>
  <path class="cls-1" d="M256.43,271.96c58.36-.02,107.72,41.86,117.35,99.57,10.47,62.73-33.38,124.53-95.85,135.1-64.29,10.87-123.49-28.49-137.44-91.87-5.55-25.21-2.7-49.85,8.03-73.46,3.15-6.93,6.82-9.02,11.63-6.75,4.49,2.12,5.15,6.36,2.3,12.92-13.95,32.14-12.77,63.76,4.6,94.2,21.86,38.33,64.27,57.19,104.8,50.59,45.26-7.37,78.52-40.23,86.35-83.84,10.25-57.1-28.7-111.84-86.15-120.19-33.1-4.81-62.19,4.6-86.84,27.29-.98,.9-1.87,1.9-2.89,2.75-3.58,2.99-7.81,2.91-10.75-.15-2.97-3.09-3.23-7.57,.35-10.63,7.69-6.57,15.3-13.43,23.83-18.77,18.43-11.53,38.85-16.94,60.68-16.75Z"/>
  <path class="cls-1" d="M185.99,390.37c.71,35.3,28.39,66.14,61.96,69.4,40.7,3.96,72.23-23.69,77.84-58.72,2.17-13.55,.48-26.83-5.31-39.41-1.82-3.94-1.7-7.47,1.75-10.32,4.03-3.33,9.63-1.52,12.08,4.02,10.15,22.95,10.4,46.12,.31,69.03-15.93,36.2-51.81,53.46-84.58,50.82-39.44-3.18-71.19-32.23-77.79-71.23-8.02-47.38,25.38-91.74,73.67-98.11,23.09-3.05,43.81,2.99,62.39,16.74,4.97,3.68,6.15,8.05,3.46,11.84-2.92,4.11-7.23,4.22-12.61,.3-41.45-30.14-97.88-10.54-110.49,38.47-1.44,5.58-1.81,11.43-2.68,17.16Z"/>
  <path class="cls-1" d="M256.1,150.5c-41.11-.31-73.42-33.18-73.13-74.37,.29-40.88,33.55-72.85,75.46-72.54,39.62,.29,72.07,33.98,71.64,74.37-.43,40.51-33.42,72.86-73.97,72.55Zm.14-15.14c32.26,.05,58.71-26.06,58.78-58.02,.06-32.1-26.15-58.56-58.2-58.74-31.93-.18-58.72,26.32-58.82,58.17-.1,32.05,26.23,58.54,58.25,58.59Z"/>
  <path class="cls-1" d="M184.3,250.06c1.88,2.79,3.53,5.06,5,7.44,3.94,6.33,3.05,12.79-2.77,17.27-5.13,3.95-10.48,7.66-15.95,11.11-6.13,3.87-12.73,2.38-17.17-3.48-1.69-2.23-3.26-4.54-5.1-7.14-3.39,2.32-6.52,4.46-9.66,6.6-3.6,2.46-7.41,2.95-11.29,.83-3.84-2.09-5.66-5.43-5.55-9.84,.42-18.28,.71-36.56,1.26-54.83,.24-8.05,8.11-13.75,15.83-11.26,17.52,5.66,34.93,11.66,52.36,17.61,4.11,1.4,6.65,4.44,7.23,8.75,.59,4.34-1.26,7.75-4.77,10.28-2.95,2.13-5.94,4.2-9.42,6.65Zm-6.48-14.17c-13.87-4.68-26.56-8.97-40.08-13.53v41.55c2.41-1.67,4.69-3.29,7-4.84,5.02-3.35,8.8-2.69,12.4,2.2,2.45,3.33,4.8,6.72,7.39,10.35,2.07-1.4,3.86-2.58,5.61-3.81,1.72-1.21,3.39-2.47,5.16-3.77-2.39-3.47-4.47-6.47-6.54-9.48-4.37-6.36-3.79-9.49,2.59-14.07,1.85-1.33,3.71-2.64,6.47-4.6Z"/>
  <path class="cls-1" d="M328.7,250.06c-3.51-2.48-6.49-4.57-9.46-6.7-3.53-2.52-5.35-5.94-4.73-10.27,.61-4.31,3.16-7.32,7.28-8.72,17.28-5.88,34.55-11.8,51.91-17.45,8.26-2.69,16.04,3.01,16.27,11.67,.47,17.78,.77,35.56,1.24,53.34,.13,4.74-1.35,8.52-5.64,10.8-4.32,2.3-8.31,1.32-12.11-1.48-2.78-2.05-5.71-3.9-8.76-5.97-1.87,2.6-3.45,4.93-5.15,7.16-4.44,5.84-11.06,7.29-17.18,3.41-5.47-3.47-10.8-7.2-15.95-11.13-5.58-4.25-6.62-10.83-2.96-16.86,1.53-2.53,3.29-4.92,5.25-7.82Zm6.5-14.15c3.03,2.16,5.19,3.64,7.3,5.2,5.24,3.87,5.89,7.37,2.3,12.7-2.29,3.4-4.67,6.74-7.16,10.32,3.79,2.63,7.17,4.96,10.85,7.51,2.68-3.79,5.08-7.35,7.65-10.79,3.24-4.34,7.11-4.98,11.7-2.03,2.56,1.65,5.04,3.42,7.38,5.01v-41.44c-13.53,4.57-26.2,8.85-40.03,13.52Z"/>
  <path class="cls-1" d="M234.73,234.57c-4.35,0-7.82,.06-11.29-.01-4.65-.09-8.45-1.72-10.48-6.22-1.91-4.23-.96-7.99,1.73-11.62,10.46-14.15,20.78-28.41,31.29-42.52,5.8-7.79,15.22-7.86,21.05-.09,10.65,14.22,21.18,28.54,31.55,42.96,5.71,7.93,1.39,16.75-8.38,17.43-3.62,.25-7.28,.04-11.79,.04,0,2.99,.1,5.57-.02,8.14-.39,8.78-5.08,13.33-13.85,13.43-5.49,.06-10.98,.08-16.47-.01-8.15-.13-12.93-4.77-13.31-12.9-.12-2.62-.02-5.25-.02-8.63Zm21.8-49.06c-8.3,11.31-16.28,22.18-24.76,33.74,2.78,0,4.44,0,6.09,0,10.14,.01,12.07,1.99,12.08,12.31,0,3.09,0,6.18,0,9.21h13.16c0-4.31-.05-8.27,.01-12.24,.11-6.24,2.97-9.13,9.14-9.27,2.72-.06,5.43-.01,9.1-.01-8.63-11.74-16.57-22.52-24.82-33.74Z"/>
  <path class="cls-1" d="M438.59,95.19c22.16,.1,40.05,17.99,39.97,39.97-.08,22.12-18.41,40.18-40.6,40-21.78-.18-40.02-18.69-39.77-40.38,.25-22,18.31-39.69,40.4-39.59Zm24.54,39.88c0-13.75-10.91-24.72-24.61-24.75-13.95-.04-24.93,11.05-24.82,25.05,.11,13.71,11.25,24.73,24.86,24.61,13.7-.13,24.58-11.15,24.57-24.9Z"/>
  <path class="cls-1" d="M249.01,432.74c-5.29-2.86-10.08-5.16-14.55-7.96-4.09-2.57-4.94-7.17-2.52-10.76,2.35-3.48,6.28-3.98,10.62-2.06,4.44,1.96,9.04,4.09,13.76,4.76,5.29,.76,8.51-3.07,10.23-7.81,1.59-4.39-.35-7.98-3.67-10.51-2.58-1.96-5.82-3.05-8.76-4.56-4.55-2.33-9.74-3.92-13.52-7.14-12.44-10.63-9.88-29.41,4.76-36.99,2.49-1.29,3.77-2.44,3.76-5.49-.01-4.6,3.31-7.42,7.65-7.3,4.1,.12,7.15,2.88,7.11,7.32-.03,3.11,1.19,4.34,3.91,5.3,2.31,.81,4.52,2.15,6.48,3.64,3.29,2.51,3.93,7,1.77,10.22-2.31,3.45-6.11,4.29-10.1,2.36-2.52-1.22-5.03-2.61-7.71-3.32-4.1-1.09-8.61,1.23-9.81,4.87-1.44,4.35,.5,7.6,4.31,9.45,3.86,1.88,7.96,3.28,12.04,4.67,10.71,3.66,17.15,10.94,17.6,22.28,.45,11.33-4.37,20.31-14.69,25.71-2.42,1.26-3.86,2.27-3.77,5.37,.17,5.81-2.86,9.01-7.61,8.88-4.54-.12-7.13-3.25-7.29-8.82-.02-.82,0-1.65,0-2.12Z"/>
  <path class="cls-1" d="M73.77,96.27c22.12,.08,40.07,17.98,40.04,39.93-.03,22.03-18.4,40.1-40.63,39.98-21.83-.12-40.09-18.64-39.75-40.32,.34-22.18,18.16-39.66,40.34-39.58Zm-24.9,39.77c-.03,13.77,10.76,24.8,24.48,25.01,13.72,.21,25.02-11.13,24.95-25.05-.07-13.74-11.05-24.69-24.74-24.67-13.69,.02-24.66,11-24.69,24.71Z"/>
  <path class="cls-1" d="M281.23,77.06c0-12.2-8.83-22.73-20.6-24.54-12.27-1.89-23.88,5.2-27.74,16.95-.36,1.1-.6,2.25-1.01,3.33-1.55,4.05-5.29,6.08-9.06,4.98-4.18-1.22-6.38-4.89-5.55-9.25,3.51-18.27,21.97-32.52,40.72-31.42,21.88,1.28,38.59,18.42,38.76,39.76,.17,20.89-16.41,38.63-37.9,40.18-9.62,.69-18.4-2.17-26.18-7.89-4.31-3.16-5.31-7.52-2.74-11.17,2.62-3.72,7.01-4.43,11.36-1.27,6.66,4.84,13.97,6.18,21.75,4.21,10.98-2.78,18.19-12.51,18.19-23.87Z"/>
</svg>