<svg xmlns="http://www.w3.org/2000/svg" width="30" height="40" viewBox="0 0 30 40">
  <path id="Trazado_17270" data-name="Trazado 17270" d="M61.039,9.789l-8.32-8.32A5,5,0,0,0,49.18,0H37.5a5,5,0,0,0-5,5V35a5,5,0,0,0,5,5h20a5,5,0,0,0,5-5V13.32A4.984,4.984,0,0,0,61.039,9.789ZM50,2.663a2.462,2.462,0,0,1,.947.57l8.32,8.32a2.344,2.344,0,0,1,.569.947H51.25A1.254,1.254,0,0,1,50,11.25ZM60,35a2.5,2.5,0,0,1-2.5,2.5h-20A2.5,2.5,0,0,1,35,35V5a2.5,2.5,0,0,1,2.5-2.5h10v8.75A3.751,3.751,0,0,0,51.25,15H60ZM38.75,7.5h5a1.25,1.25,0,0,0,0-2.5h-5a1.25,1.25,0,0,0,0,2.5ZM45,11.25A1.254,1.254,0,0,0,43.75,10h-5a1.25,1.25,0,0,0,0,2.5h5A1.254,1.254,0,0,0,45,11.25Zm3.281,11.32a11.1,11.1,0,0,1,1.662.4,1.25,1.25,0,0,0,.732-2.39,13.54,13.54,0,0,0-1.952-.469c.011-.106.027-.075.027-.114V18.75a1.25,1.25,0,1,0-2.5,0V20c0,.024.012.043.013.066-2,.254-3.38,1.285-3.693,2.91-.607,3.123,2.583,3.956,4.115,4.357l.508.129c2.52.642,2.9.959,2.782,1.589-.144.739-1.545,1.12-3.266.877a13.925,13.925,0,0,1-2.195-.577l-.388-.125a1.25,1.25,0,1,0-.752,2.385l.376.115a16.27,16.27,0,0,0,2.523.653c0,.042-.023.081-.023.12v1.25a1.25,1.25,0,1,0,2.5,0V32.5c0-.04-.019-.073-.023-.112,1.986-.26,3.387-1.248,3.7-2.862.614-3.157-2.535-3.959-4.62-4.488l-.489-.124c-2.452-.641-2.376-1.039-2.294-1.461C45.164,22.711,46.57,22.336,48.281,22.57Z" transform="translate(-32.5)" fill="#fa8d2d"/>
</svg>
