<?xml version="1.0" encoding="UTF-8"?>
<svg id="Layer_1" data-name="Layer 1" xmlns="http://www.w3.org/2000/svg" viewBox="0 0 512 512">
  <defs>
    <style>
      .cls-1 {
        fill: #f28a30;
      }
    </style>
  </defs>
  <path class="cls-1" d="M513,37.93V494.04c-3.39,9.26-9.72,15.59-19,18.96H152c-.51-.35-.98-.8-1.54-1.02-11.67-4.53-17.39-12.75-17.43-25.12,0-2.11,0-4.23,0-6.91h-22.45c-.93-2.61-1.93-4.59-2.31-6.68-.8-4.37-3.28-6.65-7.43-8.18-3.15-1.17-5.52-1.02-8.41,.5-7.59,3.99-7.65,3.87-13.85-2.32-7.42-7.41-14.7-14.96-22.34-22.14-2.82-2.65-3.28-4.7-1.24-7.95,2.52-4.02,4.61-8,1.61-13.21-1.66-2.88-3.34-4.5-6.34-5.48-8.21-2.67-8.18-2.75-8.18-11.4,0-9.81,.32-19.63-.13-29.42-.24-5.15,1.05-8.04,6.4-8.89,4.52-.72,7.47-3.14,9.01-7.91,.97-3,1.01-5.25-.46-7.85-1.45-2.57-2.67-5.25-3.82-7.53,10.83-10.81,21.3-21.26,32.08-32.02,1.59,.8,3.62,1.58,5.38,2.76,4.1,2.76,7.83,2.44,12.44,.56,5.06-2.06,4.74-6.42,6.04-10.04,1.11-3.08,2.38-4.56,5.95-4.34,5.91,.35,11.85,.1,17.69,.1v-16.22H34.01V117.89c-1.28-.12-2.08-.3-2.87-.25-15.02,.9-25.28-5.37-30.14-19.83,0-2.66,0-5.32,0-7.98,1.61-1.64,2.99-3.62,4.87-4.87C46.4,57.9,87.01,30.93,127.57,3.91c3.79-2.52,7.34-2.57,11.09-.03,5.78,3.92,11.49,7.98,17.51,11.49,2.7,1.57,6.09,2.74,9.17,2.75,46.15,.17,92.31,.12,138.46,.12,60.48,0,120.97,.02,181.45-.02,7.42,0,14.56,1.25,19.66,6.84,3.36,3.69,5.43,8.54,8.08,12.87Zm-33.18,96.11H232.15v148.43h-82.27v4.86c0,66.2,0,132.4,0,198.6,0,7.89,2.46,10.31,10.5,10.31,108.49,0,216.98,0,325.47,0,7.97,0,10.36-2.4,10.36-10.44,.01-146.7,.01-293.4,0-440.1,0-8.05-2.7-10.75-10.79-10.75-98.33-.02-196.65-.01-294.98,0-1.16,0-2.31,.24-4.38,.46,6.97,4.62,12.91,8.92,19.24,12.57,2.98,1.72,6.68,3.07,10.06,3.07,85.99,.17,171.99,.13,257.98,.13,2.11,0,4.21,0,6.48,0v82.86ZM51.18,117.82v147.37H215.22V117.82H51.18Zm196.49-1.01h215.22v-48.51H235.58c8.72,5.81,16.37,11.06,24.18,16.04,4.31,2.74,6,6.29,5.33,11.33-1.32,10.01-7.16,16.4-17.43,21.14Zm-.33-20.3c-.91-.71-1.53-1.26-2.21-1.71-36.26-24.13-72.55-48.21-108.74-72.44-2.86-1.92-4.59-1.2-7.04,.43C93.68,46.58,57.95,70.3,22.25,94.06c-1.17,.78-2.22,1.73-3.32,2.6-.04,.56-.07,1.11-.11,1.67,2.98,.83,5.94,2.35,8.93,2.37,22.81,.2,45.62,.11,68.43,.11,47.29,0,94.58-.01,141.87,.02,3.63,0,6.96-.33,9.28-4.34Zm-114.52,342.99c-31.71-5.76-48.01-21.82-49.26-48.91-.51-11.11,2.78-21.35,9.47-30.33,9.86-13.23,23.34-19.82,39.65-20.61v-24.31c-2.85,0-5.37-.2-7.82,.1-1.03,.12-2.66,1.2-2.77,2.01-.86,6.55-5.4,8.54-10.99,10.08-3.95,1.09-7.52,3.47-11.36,5.03-1.38,.56-3.63,1.14-4.48,.46-5.9-4.69-9.79-1.76-13.55,2.93-1.45,1.81-3.12,3.52-4.95,4.92-3.08,2.35-3.64,4.85-1.28,7.96,2.3,3.04,1.86,5.79-.06,9.07-2.24,3.83-4.15,8.04-5.17,12.33-1.03,4.3-3.19,6.4-7.3,7.48-1.52,.4-3.71,2.17-3.79,3.43-.39,6.25-.18,12.53-.18,19.16,8.01,.09,10.74,4.89,12.32,11.44,.92,3.79,3.33,7.2,4.84,10.87,.57,1.38,1.26,3.61,.61,4.45-4.75,6.1-1.76,10.07,3.14,13.94,2.33,1.85,4.15,4.34,6.46,6.23,.89,.74,3.01,1.31,3.67,.8,5.31-4.05,9.99-2.33,14.97,.72,2.64,1.62,5.76,2.71,8.81,3.34,4.22,.87,6.86,2.8,7.46,7.22,.43,3.17,2.28,4.47,5.54,4.04,1.9-.25,3.87-.05,6.02-.05v-23.8Zm-.04-82.64c-17.81-.32-32.84,14.87-32.63,32.73,.21,17.81,15.44,33.03,32.63,32.33v-65.06Z"/>
  <path class="cls-1" d="M249.11,249.46h230.6v148.02H249.11V249.46Zm213.83,16.56c-1.57-.09-2.55-.2-3.53-.2-63.15,0-126.3,.04-189.44-.11-4.47-.01-4.7,1.96-4.69,5.39,.08,34.92,.04,69.84,.06,104.76,0,1.61,.17,3.23,.26,4.97h197.34v-114.81Z"/>
  <path class="cls-1" d="M479.8,463.55v15.89c-15.87,2.89-28.49-4.18-32.1-18.06-.7-2.68-.59-5.58-.75-8.39-.38-6.96-3.9-11.88-9.79-13.55-5.7-1.62-10.99,.66-15.06,6.2-2.84,3.87-5.42,8.13-8.98,11.24-11.06,9.64-31.26,9.32-42.56-.18-14.6-12.28-14.54-12.2-28.87-.16-2.74,2.3-6.07,4.13-9.43,5.42-3.35,1.28-7.07,1.61-11.49,3.59,2.64,1.88,5.35,3.68,7.89,5.69,1.11,.88,2.57,2.15,2.66,3.33,.32,4.28,.13,8.59,.13,12.81-11.72,2.38-21.83-6.15-27.93-23.25-5.75-.3-11.6-.19-17.32-1-12.87-1.82-22.04-13.42-21.07-26.08,.98-12.86,11.52-22.71,24.52-22.93,16.88-.29,25.75,8.34,28.21,27.43,.76,5.87,1.88,6.84,7.62,4.88,2.85-.97,5.59-2.91,7.77-5.03,14.84-14.45,30.89-14.51,45.57,.03,9.11,9.03,20.74,7.89,27.85-2.72,8.77-13.1,20.22-18.68,32.67-15.93,14.02,3.1,22.8,13.24,24.24,27.98,1.18,12.08,1.26,12.15,13.44,12.53,.8,.03,1.6,.13,2.77,.24Zm-178.28-16.51c-.56-3.88-.81-7.01-1.51-10.03-1.09-4.73-5.05-6.82-10.88-6.07-4.33,.56-7.24,3.82-7.17,8.02,.08,4.44,3.36,7.72,8.41,8.04,3.43,.21,6.89,.04,11.14,.04Z"/>
  <path class="cls-1" d="M248.97,199.43v-15.83h230.78v15.83H248.97Z"/>
  <path class="cls-1" d="M479.62,232.66H249.11v-16.1h230.51v16.1Z"/>
  <path class="cls-1" d="M282,166.46v-15.87h197.79v15.87h-197.79Z"/>
  <path class="cls-1" d="M166.2,315.06v-16.18h65.62v16.18h-65.62Z"/>
  <path class="cls-1" d="M166.3,347.9v-16.11h65.58v16.11h-65.58Z"/>
  <path class="cls-1" d="M166.29,380.96v-16.26h65.5v16.26h-65.5Z"/>
  <path class="cls-1" d="M166.25,413.87v-16.16h65.69v16.16h-65.69Z"/>
  <path class="cls-1" d="M166.38,430.54h65.5v16.23h-65.5v-16.23Z"/>
  <path class="cls-1" d="M232.02,463.56v16.11h-65.58v-16.11h65.58Z"/>
  <path class="cls-1" d="M265.04,150.53v15.9h-15.98v-15.9h15.98Z"/>
  <path class="cls-1" d="M100.44,208.08h15.71c2.84,6.97,4.49,8.1,11.97,8.15,4.33,.02,8.67,.16,12.98-.12,5.35-.36,8.27-3.43,8.24-8.12-.03-4.65-3.06-7.81-8.34-8.06-5.82-.28-11.66,.03-17.48-.23-12.54-.57-22.86-10.72-23.47-22.83-.66-13.18,8.09-24.15,20.91-26.21,1.13-.18,2.24-.46,3.75-.78v-15.73h16.89c0,3.55,.22,7.17-.06,10.76-.29,3.8,.73,5.41,4.94,6.04,11.35,1.7,19.96,12.69,19.2,24.31-4.69,0-9.46,.1-14.2-.1-.8-.03-2-1.19-2.26-2.06-1.47-4.87-5.14-6.2-9.62-6.26-4.66-.07-9.33-.18-13.98,.05-5.56,.27-8.74,3.45-8.72,8.24,.02,4.83,3.18,7.78,8.85,7.99,5.99,.22,12.01-.11,17.96,.4,12.61,1.09,21.98,11.03,22.37,23.25,.42,13.14-8.04,23.79-20.83,25.65-3.18,.46-3.78,1.75-3.68,4.47,.14,3.95,.04,7.92,.04,12.55-3.09,0-5.69,0-8.28,0s-5.24,0-8.43,0v-15.99c-17.09-4.24-25.46-12.97-24.45-25.36Z"/>
  <path class="cls-1" d="M157.97,67.95c0,13.59-11.07,24.73-24.62,24.81-13.72,.08-25.22-11.27-25.2-24.87,.02-13.37,11.35-24.75,24.76-24.87,13.73-.12,25.07,11.16,25.07,24.93Zm-24.78,7.97c4.48-.04,7.83-3.36,7.91-7.84,.08-4.67-3.46-8.28-8.07-8.22-4.33,.05-7.93,3.6-8.03,7.9-.1,4.55,3.56,8.2,8.2,8.16Z"/>
  <path class="cls-1" d="M339.5,367.39c-10.01-9.98-20.01-19.95-30.16-30.07,3.64-3.49,7.46-7.14,11.59-11.1,5.79,6.12,11.8,12.46,17.99,18.99,23.48-23.48,46.06-46.07,68.78-68.8,3.91,4.23,7.56,8.19,11.01,11.92-26.09,26.04-52.69,52.59-79.21,79.06Z"/>
</svg>