<svg xmlns="http://www.w3.org/2000/svg" width="40" height="40" viewBox="0 0 40 40">
  <path id="Trazado_17279" data-name="Trazado 17279" d="M67.5,16.273a1.249,1.249,0,0,0-2.133-.884l-.992.992L51.125,3.125l.991-.991A1.249,1.249,0,1,0,50.352.366L39.109,11.616a1.249,1.249,0,1,0,1.766,1.768l.991-.991L47.6,18.13l-5.9,6.1-.735-.74a3.4,3.4,0,0,0-4.795,0l-7.68,7.686a3.395,3.395,0,0,0,0,4.8l3.028,3.03a3.388,3.388,0,0,0,4.795,0L44,31.323a3.395,3.395,0,0,0,0-4.8L43.468,26l5.9-6.1,5.747,5.75-.989.99A1.25,1.25,0,1,0,55.889,28.4l11.242-11.25A1.228,1.228,0,0,0,67.5,16.273ZM42.492,28.922a.892.892,0,0,1-.261.631L34.55,37.236a.912.912,0,0,1-1.26,0l-3.028-3.03a.894.894,0,0,1,0-1.262l7.68-7.686a.9.9,0,0,1,1.263,0l3.027,3.03a.934.934,0,0,1,.261.632Zm1.141-18.3,5.729-5.733L62.612,18.15l-5.729,5.733Z" transform="translate(-27.5)" fill="#fa8d2d"/>
</svg>
