<svg xmlns="http://www.w3.org/2000/svg" width="45" height="40.002" viewBox="0 0 45 40.002">
  <path id="Trazado_17273" data-name="Trazado 17273" d="M45.625,8.75A1.875,1.875,0,1,1,47.5,10.625,1.873,1.873,0,0,1,45.625,8.75ZM46.344,24.3c-2.508-3.062-8.219-10.664-8.219-14.93a9.375,9.375,0,0,1,18.75,0c0,4.266-5.711,11.867-8.219,14.93A1.394,1.394,0,0,1,46.344,24.3Zm7.3-12.266a7.172,7.172,0,0,0,.734-2.664,6.875,6.875,0,0,0-13.75,0,7.172,7.172,0,0,0,.734,2.664,26.024,26.024,0,0,0,2.063,3.953A67.448,67.448,0,0,0,47.5,21.8a67.448,67.448,0,0,0,4.078-5.812A26.024,26.024,0,0,0,53.641,12.039Zm3.07,5.375a1.425,1.425,0,0,1-.2.055,31.472,31.472,0,0,0,1.7-3.352L67.43,10.43A1.874,1.874,0,0,1,70,12.172V33.328a1.885,1.885,0,0,1-1.18,1.742L56.711,39.914a1.237,1.237,0,0,1-.8.039L38.82,35.07l-11.249,4.5A1.875,1.875,0,0,1,25,37.828V16.672a1.882,1.882,0,0,1,1.179-1.742L35.8,11.086a14.348,14.348,0,0,0,.719,2.4L27.5,17.094V36.906l10-4V23.68a1.25,1.25,0,0,1,2.5,0V32.8l15,4.289V23.68a1.25,1.25,0,0,1,2.5,0V36.906l10-4V13.094Z" transform="translate(-25)" fill="#fa8d2d"/>
</svg>
