<svg xmlns="http://www.w3.org/2000/svg" width="50" height="40.013" viewBox="0 0 50 40.013">
  <path id="Trazado_17275" data-name="Trazado 17275" d="M46.6,11.2l-1.844-1.7,7.453-8.28a3.754,3.754,0,0,1,5.578,0l9.156,10.108a2.463,2.463,0,0,1,.555,1.508A2.151,2.151,0,0,1,65.344,15H62.633l6.789,8.313A2.565,2.565,0,0,1,67.43,27.5H64.086l7.789,8.523a2.345,2.345,0,0,1,.625,1.6A2.374,2.374,0,0,1,70.125,40H53.75a7.35,7.35,0,0,0,1.125-2.5h14.9L60.328,27.094A1.251,1.251,0,0,1,61.25,25h6.18a.07.07,0,0,0,.07-.07c0-.078-.008-.023-.016-.039L59.031,14.539A1.246,1.246,0,0,1,60,12.5h4.57L55.93,2.9a1.252,1.252,0,0,0-1.859,0ZM40,20a2.5,2.5,0,0,1,2.5,2.5v5A2.5,2.5,0,0,1,40,30H35a2.5,2.5,0,0,1-2.5-2.5v-5A2.5,2.5,0,0,1,35,20Zm0,2.5H35v5h5ZM22.5,35V22.2a5.267,5.267,0,0,1,1.621-3.758l10-9.1a5,5,0,0,1,6.75,0l10,9.1A5.247,5.247,0,0,1,52.5,22.2V35a5,5,0,0,1-5,5h-20a5,5,0,0,1-5-5ZM25,22.2V35a2.5,2.5,0,0,0,2.5,2.5h20A2.5,2.5,0,0,0,50,35V22.2a2.5,2.5,0,0,0-.812-1.844l-10-9.172a2.5,2.5,0,0,0-3.375,0l-10,9.172A2.558,2.558,0,0,0,24.93,22.2H25Z" transform="translate(-22.5 0.013)" fill="#fa8d2d"/>
</svg>
