<svg xmlns="http://www.w3.org/2000/svg" width="45" height="40" viewBox="0 0 45 40">
  <path id="Trazado_17276" data-name="Trazado 17276" d="M30,37.5H48.141a12.4,12.4,0,0,0,2.617,2.445A5.964,5.964,0,0,1,50,40H30a5,5,0,0,1-5-5V5a5,5,0,0,1,5-5H42.2a3.764,3.764,0,0,1,2.656,1.1l9.047,9.05A3.768,3.768,0,0,1,55,12.8v2.711a13.638,13.638,0,0,0-2.5.984V15H43.75A3.751,3.751,0,0,1,40,11.25V2.5H30A2.5,2.5,0,0,0,27.5,5V35A2.5,2.5,0,0,0,30,37.5ZM52.133,11.922,43.078,2.866a1.213,1.213,0,0,0-.578-.329V11.25a1.254,1.254,0,0,0,1.25,1.25h8.711A1.193,1.193,0,0,0,52.133,11.922ZM64.008,25.367a1.24,1.24,0,0,1,0,1.766l-5.625,5.625a1.24,1.24,0,0,1-1.766,0l-3.125-3.125a1.248,1.248,0,0,1,1.766-1.766L57.5,30.109l4.742-4.742A1.24,1.24,0,0,1,64.008,25.367ZM47.5,28.75A11.25,11.25,0,1,1,58.75,40,11.253,11.253,0,0,1,47.5,28.75ZM58.75,37.5A8.75,8.75,0,1,0,50,28.75,8.746,8.746,0,0,0,58.75,37.5Z" transform="translate(-25)" fill="#fa8d2d"/>
</svg>
