<svg xmlns="http://www.w3.org/2000/svg" width="40" height="35" viewBox="0 0 40 35">
  <path id="Trazado_17277" data-name="Trazado 17277" d="M51.18,15.914c-3.33-3.359-5.967-2.041-7.051-1.133a4.728,4.728,0,0,0-.332,6.953l6.621,6.69a1.076,1.076,0,0,0,1.543,0l6.621-6.69a4.737,4.737,0,0,0-.352-6.953C57.2,13.875,54.57,12.555,51.18,15.914Zm5.672,4.063-5.605,5.674-5.605-5.674A2.234,2.234,0,0,1,45.8,16.7a2.3,2.3,0,0,1,3.008.293l2.452,2.48,2.452-2.48a2.276,2.276,0,0,1,3-.293A2.231,2.231,0,0,1,56.852,19.977ZM65.477,3.231a1.524,1.524,0,0,0-.314-.415,1.252,1.252,0,0,0-1.921.322A10.955,10.955,0,0,1,53.4,8.751H48.042A13.145,13.145,0,0,0,35,21.969a12.96,12.96,0,0,0,.082,1.317,23.3,23.3,0,0,0-7.553,12.7,1.251,1.251,0,0,0,.959,1.484,1.272,1.272,0,0,0,.264.027,1.248,1.248,0,0,0,1.22-.989,20.681,20.681,0,0,1,5.749-10.336,12.886,12.886,0,0,0,.823,1.945h0A13.053,13.053,0,0,0,48.039,35a11.912,11.912,0,0,0,1.334-.071c10.5-.765,18.127-9.976,18.127-21.914A24.7,24.7,0,0,0,65.477,3.231ZM49.07,32.438a9.652,9.652,0,0,1-1.1.061,10.54,10.54,0,0,1-9.289-5.563A11.22,11.22,0,0,1,37.5,21.969,10.772,10.772,0,0,1,48.039,11.25H53.4A13.668,13.668,0,0,0,64,6.414a22.759,22.759,0,0,1,1,6.6C65,23.609,58.352,31.773,49.07,32.438Z" transform="translate(-27.5 -2.5)" fill="#fa8d2d"/>
</svg>
