<svg xmlns="http://www.w3.org/2000/svg" width="40" height="40" viewBox="0 0 40 40">
  <path id="Trazado_17280" data-name="Trazado 17280" d="M48.75,18.25c.461.078,1.414.281,1.883.383a1.253,1.253,0,0,1-.641,2.422c-.312-.086-1.383-.3-1.727-.352a4.338,4.338,0,0,0-2.414.227c-.562.258-.844.586-.82.8a1.075,1.075,0,0,0,.039.648.963.963,0,0,0,.383.4,9.636,9.636,0,0,0,2.422.938l.047.016a10.5,10.5,0,0,1,3.086,1.313,3.621,3.621,0,0,1,1.219,1.469,3.738,3.738,0,0,1,.211,2.125,3.81,3.81,0,0,1-2.289,2.789,5.52,5.52,0,0,1-1.4.383v.7a1.25,1.25,0,0,1-2.5,0v-.75a21.035,21.035,0,0,1-2.531-.758c-.141-.047-.266-.086-.367-.117a1.253,1.253,0,1,1,.8-2.375,2.988,2.988,0,0,0,.477.164,9.667,9.667,0,0,0,2.117.563,4.078,4.078,0,0,0,2.422-.1,1.28,1.28,0,0,0,.766-1.617,1.1,1.1,0,0,0-.4-.445,8.462,8.462,0,0,0-2.375-.961l-.164-.047a9.35,9.35,0,0,1-2.937-1.281,2.919,2.919,0,0,1-1.25-1.328,3.459,3.459,0,0,1-.242-2.078,3.717,3.717,0,0,1,2.258-2.711,5.631,5.631,0,0,1,1.43-.43v-.8a1.25,1.25,0,0,1,2.5,0ZM41.484,9.406,37.023,2.939A1.859,1.859,0,0,1,38.57,0H56.43a1.879,1.879,0,0,1,1.547,2.939L53.445,9.406a24.419,24.419,0,0,1,2.133,1.414C60.375,14.352,67.5,21.359,67.5,32.5A7.5,7.5,0,0,1,60,40H35a7.5,7.5,0,0,1-7.5-7.5c0-11.141,7.125-18.148,11.922-21.68C40.18,10.266,40.883,9.8,41.484,9.406Zm1.352,2.109C38.547,14.258,30,20.961,30,32.5a5,5,0,0,0,5,5H60a5,5,0,0,0,5-5c0-11.539-8.547-18.242-12.836-20.984l-.406-.336H43.242ZM50.93,8.68l4.313-6.25H39.758L44.07,8.68Z" transform="translate(-27.5)" fill="#fa8d2d"/>
</svg>
