<?xml version="1.0" encoding="UTF-8"?>
<svg id="Layer_1" data-name="Layer 1" xmlns="http://www.w3.org/2000/svg" viewBox="0 0 512 512">
  <defs>
    <style>
      .cls-1 {
        fill: #f28a30;
      }
    </style>
  </defs>
  <path class="cls-1" d="M391,513c-6.3-3.79-12.96-7.1-18.74-11.55-3.22-2.48-4.97-6.85-7.36-10.33-10.39,3.81-20.62,8.28-31.26,11.29-13.23,3.75-26.74,6.65-40.26,9.26-10.27,1.98-19.98-6.28-20.09-17.19-.29-29.44-.26-58.88,0-88.32,.08-9.43,5.78-14.85,16.57-17.76,39.68-10.69,68.97-34.39,87.44-70.94,4.6-9.09,7.5-19.1,10.55-28.89,3.06-9.82,8.8-14.89,19.07-14.92,28.33-.09,56.67-.11,85,0,13.09,.06,20.38,9.55,18.43,22.56-3.57,23.79-10.37,46.57-20.38,68.79,2.33,1.26,4.67,2.43,6.9,3.77,8.59,5.17,13.02,13.36,16.14,22.46v93.82c-2.56,7.57-5.61,15.05-12.41,19.73-4.8,3.31-10.37,5.51-15.59,8.21h-94Zm-102.34-62.53c0,13.63,.11,27.27-.07,40.9-.06,4.19,1.09,5.53,5.48,4.83,22.62-3.58,44.28-10.17,65.07-19.75,3.07-1.41,4.04-2.99,4.02-6.29-.15-22.94-.09-45.88-.08-68.83,0-23.5,14.42-37.95,37.89-37.96,22.82-.02,45.64,.06,68.46-.12,1.88-.01,4.79-1.13,5.48-2.56,10.16-21.04,16.81-43.18,20.29-66.3,.69-4.55-.93-5.4-4.95-5.38-27.15,.11-54.3,.14-81.45-.04-4.14-.03-5.71,1.43-6.78,5.27-15.73,56.52-52.1,92.69-108.48,108.88-3.69,1.06-5.05,2.58-4.98,6.45,.22,13.63,.09,27.26,.1,40.9Zm123.67,11.41c-22.23-21.63-15.31-47.93-1.81-60.51,15.74-14.67,40.13-14.45,55.6,.36,14.13,13.53,18.88,40.21-2.2,60.11,12.9,6.96,21.73,17.55,27.25,31.27,5.24-4.95,6.85-10.48,6.85-16.72-.03-25.12,0-50.23-.02-75.35,0-14.74-7.63-22.39-22.53-22.42-24.83-.06-49.67-.05-74.5,0-15.23,.03-22.58,7.46-22.6,22.77-.03,24.62-.02,49.24,.02,73.85,0,2.48-.15,5.14,.65,7.41,1.25,3.57,3.25,6.89,4.93,10.31,.47-.09,.95-.18,1.42-.26,5.22-13.56,14.18-23.86,26.93-30.82Zm26.01-6.54c13.97-.08,24.82-11.09,24.72-25.1-.09-13.55-11.19-24.5-24.88-24.53-13.76-.03-25.19,11.31-25.14,24.94,.05,13.7,11.39,24.77,25.29,24.69Zm37.58,42.57c-4.54-17.13-22.79-28.45-42.6-26.87-14.68,1.18-31.43,14.95-32.62,26.87h75.21Z"/>
  <path class="cls-1" d="M1,29.94c.59-1.52,1.23-3.02,1.76-4.55C7.68,11.22,20.4,2.04,35.37,2.01c25.33-.04,50.66,.4,75.97-.16,17.39-.38,29.85,6.24,37.54,22.52,1.69-.69,3.32-1.32,4.93-2.03,21.41-9.44,43.74-15.67,66.86-19.12,10.25-1.53,19.96,6.6,20.06,17.42,.26,29.26,.22,58.53,0,87.8-.07,9.17-5.36,14.93-14.89,17.44-43.09,11.39-74.03,37.21-92.2,77.86-3.29,7.36-5.35,15.31-7.61,23.1-2.67,9.19-8.73,14.43-18.41,14.47-28.66,.13-57.32,.16-85.97,0-12.4-.07-19.96-9.95-18.1-22.07,3.66-23.92,10.36-46.9,20.54-69.29-2.06-1.09-4.09-2.11-6.07-3.23-9.09-5.12-13.77-13.52-17-22.97,0-31.27,0-62.54,0-93.82Zm224.34,34.49c0-13.47-.18-26.94,.1-40.4,.1-4.86-1.51-5.94-6.1-5.18-22.43,3.68-43.93,10.2-64.56,19.74-3.13,1.45-3.94,3.13-3.93,6.36,.13,23.11,.09,46.22,.07,69.32-.02,22.63-14.8,37.33-37.56,37.35-22.99,.02-45.97,0-68.96,0-2.32,0-4.27-.17-5.61,2.73-9.68,20.9-16.43,42.67-19.8,65.45-.9,6.06-.72,6.13,5.41,6.13,26.82,.02,53.64-.07,80.45,.09,4.18,.02,5.99-1.19,7.17-5.43,15.64-56.54,51.85-92.85,108.42-108.79,3.63-1.02,5.07-2.55,5-6.47-.24-13.63-.09-27.26-.09-40.9ZM49.93,100.37c-17.77-22.28-18.69-43.18-2.8-59.4,14.28-14.57,36.95-16.26,53.21-3.79,8.25,6.33,13.42,14.73,15.1,25,2.47,15.07-2.82,27.57-13.94,37.99,13.04,7.29,21.89,17.47,27.82,31.04,2.36-3.28,4.23-6.63,5.65-10.15,.66-1.63,.61-3.6,.61-5.42,.03-25.94,.13-51.88-.02-77.82-.07-12.49-8.02-20.75-20-20.82-26.49-.15-52.98-.15-79.47,0-11.59,.06-19.98,8.32-20.05,19.83-.17,26.6-.11,53.21,0,79.81,.02,5.62,1.96,10.63,6.91,14.78,5.33-13.77,14.26-24.1,26.96-31.05Zm25.78-6.5c13.84,.04,25.23-11.18,25.24-24.86,.01-13.55-11.62-25.13-25.18-25.06-13.51,.07-24.74,11.27-24.82,24.76-.08,13.94,10.92,25.12,24.76,25.16Zm37.92,42.18c-4.62-15.8-21.89-27.63-38.82-26.87-17.2,.77-33.79,12.88-36.38,26.87H113.63Z"/>
  <path class="cls-1" d="M1,391.24c3.2-5.71,5.68-11.99,9.76-16.98,6.06-7.43,14.78-10.75,24.33-10.81,27.16-.16,54.33-.24,81.49,0,19.26,.17,34.19,15.54,34.3,34.97,.14,23.78,.1,47.57-.03,71.35-.02,3.37,.83,5.2,4.12,6.73,20.17,9.36,41.24,15.72,63.13,19.45,7.18,1.22,7.24,1.1,7.24-6.2,0-26.78-.07-53.55,.07-80.33,.02-3.65-1.21-5.2-4.72-6.17-58.94-16.25-94.63-55.04-110.55-113.8H18.19c2.05,16.86,5.91,33.05,11.54,48.84,.5,1.41,.97,2.83,1.41,4.25,1.47,4.7-.19,8.63-4.3,10.22-4.02,1.56-8.28-.29-9.83-5.06-3.53-10.86-7.11-21.75-9.79-32.84-2.29-9.49-3.53-19.24-4.94-28.92-1.32-9.11,1.61-12.31,10.74-12.31,33.16-.01,66.32,0,99.48,0,9.28,0,10.55,1.44,12.6,10.36,12.27,53.59,44.79,88.49,97.6,104.19,14.24,4.23,18.12,8.61,18.12,23.58,0,26.44,.01,52.89,0,79.33,0,15.03-8.53,22.25-23.26,20.05-22.33-3.33-43.74-9.68-64.35-18.82-1.33-.59-2.74-1.03-4.6-1.73-4.57,12.16-14.04,18.53-25.61,22.42H29c-5.12-2.58-10.57-4.65-15.27-7.84-6.99-4.75-10.17-12.33-12.73-20.1,0-31.27,0-62.54,0-93.82Zm127.84,101.63c5.66-4.63,6.78-10.49,6.78-16.8,0-25.12,.04-50.23-.02-75.35-.03-14.55-7.61-22.04-22.27-22.1-14.5-.07-29-.02-43.5-.01-11,0-22-.16-33,.05-12.35,.23-20.68,7.91-20.77,19.56-.2,26.78-.14,53.56,0,80.34,.03,5.53,2.03,10.49,6.18,13.86,3.98-6.09,7.2-12.38,11.72-17.54,4.51-5.15,10.31-9.16,15.52-13.65-20.17-18.93-15.92-45.24-2.25-58.84,15.17-15.1,38.92-16.03,55.18-1.93,18.15,15.74,18,37.81-.41,61.26,17.03,12.57,19.14,14.99,26.82,31.16Zm-53.2-37.53c13.92,.09,25.22-10.93,25.32-24.67,.1-13.6-11.35-24.98-25.11-24.96-13.69,.01-24.8,10.95-24.9,24.5-.1,14.03,10.72,25.04,24.69,25.13Zm38.06,42.57c-4.8-17.34-23.2-28.79-42.99-26.82-16.01,1.59-31.11,15.74-32.25,26.82H113.7Z"/>
  <path class="cls-1" d="M513,123.76c-3.31,5.82-5.91,12.23-10.11,17.31-5.98,7.23-14.6,10.43-23.96,10.48-27.16,.16-54.32,.23-81.48,0-19.21-.16-34.22-15.57-34.32-34.95-.12-23.95-.11-47.9,.05-71.84,.02-3.37-1.1-4.85-4.1-6.24-20.63-9.57-42.16-16.06-64.6-19.69-4.28-.69-5.94,.09-5.91,4.86,.19,27.27,.16,54.55,0,81.82-.02,3.96,1.47,5.32,5.09,6.37,56.2,16.15,92.49,52.25,108.3,108.54,1.13,4.01,2.63,5.64,7.02,5.61,26.83-.2,53.65-.09,80.48-.1,6.32,0,6.87-.16,5.48-6.45-3.11-14.06-6.83-27.98-10.27-41.96-.51-2.06-1.36-4.23-1.1-6.22,.46-3.68,3.07-6,6.73-6.32,3.93-.35,6.81,1.74,7.91,5.51,3.35,11.44,6.64,22.9,9.67,34.43,1.26,4.79,1.77,9.78,2.65,14.68,2.03,11.24-5.54,21.5-17.03,21.64-29.32,.34-58.65,.26-87.98,.04-9.28-.07-15.05-5.44-17.55-14.79-13.53-50.66-45.42-83.72-95.55-99.31-2.69-.84-5.51-1.33-8.11-2.39-7.45-3.06-11.04-9.02-11.07-16.81-.14-28.94-.18-57.88,.01-86.81,.08-11.99,10.12-19.44,22.03-17.58,23.46,3.66,46.01,10.2,67.62,20.02,.58,.26,1.24,.35,2.21,.62,.79-1.48,1.49-2.93,2.31-4.3,6.83-11.42,16.71-17.85,30.24-17.89,26.49-.08,52.99-.03,79.48-.02,17.52,0,30.06,9.46,34.94,26.25,.18,.6,.61,1.13,.93,1.69V123.76Zm-100.79-23.6c-22.23-21.69-14.86-47.9-1.96-60.09,15.18-14.34,38.91-14.99,54.46-1.12,7.49,6.68,12.1,14.94,13.24,24.93,1.64,14.39-3.32,26.39-14.25,36.26,13.13,7.19,22.03,17.56,27.34,31.34,5.36-4.69,6.98-10.22,6.98-16.42,0-25.27,.01-50.55,0-75.82-.01-14.34-7.9-22.27-22.2-22.28-24.82-.02-49.64-.01-74.47,0-15.51,0-22.94,7.41-22.96,22.94-.02,24.61-.02,49.22,.02,73.82,0,2.48-.15,5.14,.66,7.41,1.26,3.55,3.28,6.83,5.34,10.96,11.58-20.45,13.05-22.13,27.81-31.94Zm50.85-31.04c.04-13.83-11.18-25.17-24.91-25.17-13.58,0-25.18,11.62-25.1,25.15,.08,13.48,11.32,24.7,24.83,24.77,13.96,.08,25.14-10.92,25.18-24.75Zm12.84,67.1c-4.4-15.97-22.36-28.09-39.28-27-17.35,1.12-34.24,13.76-35.89,27h75.17Z"/>
  <path class="cls-1" d="M326.32,302.17c-.33,18.41-11.88,32.97-28.81,35.6-8,1.24-15.17-1.29-21.45-6.13-17.87-13.76-18.44-43.27-1.19-57.86,17.93-15.17,44.13-5.46,49.98,18.59,.78,3.2,1,6.53,1.48,9.8Zm-32.25,20.47c.12,.26,.24,.52,.36,.78,2.94-1.32,6.32-2.11,8.74-4.07,6.3-5.08,8.44-12.17,7.48-20-.91-7.44-4.2-13.71-11.56-16.73-5.86-2.41-11.22-.72-15.43,3.72-6.74,7.1-7.59,15.66-4.55,24.51,2.22,6.44,6.55,11.1,13.96,11.75,.33,.03,.66,.03,.99,.05Z"/>
  <path class="cls-1" d="M217.72,248.51c-8.43-.4-16.42-4.88-22.42-12.95-10.33-13.91-9.76-34.04,1.25-47.18,12.45-14.87,32.71-15.29,45.78-.94,14.09,15.47,12.2,41.25-4,54.41-5.49,4.46-11.76,6.75-20.61,6.67Zm18.69-34.76c.05-12.73-7.36-21.62-17.04-21.38-9.02,.22-16.29,9.28-16.32,20.36-.03,10.38,6.55,19.25,15.25,20.57,7.27,1.1,15.06-5.13,17.38-14.07,.54-2.06,.58-4.26,.73-5.47Z"/>
  <path class="cls-1" d="M293.65,189.42c-1,2.99-1.46,4.74-2.16,6.4-17.66,42.04-35.34,84.08-53.02,126.12-.26,.61-.47,1.24-.75,1.84-2.25,4.67-5.95,6.41-10.05,4.72-4.36-1.79-5.95-5.73-3.88-10.75,5.94-14.41,12.04-28.75,18.08-43.12,11.7-27.82,23.39-55.64,35.1-83.46,.71-1.68,1.1-4.05,2.4-4.79,2.49-1.44,5.78-3.08,8.24-2.51,2.42,.56,4.22,3.75,6.05,5.55Z"/>
</svg>