<svg xmlns="http://www.w3.org/2000/svg" width="35" height="40" viewBox="0 0 35 40">
  <path id="Trazado_17282" data-name="Trazado 17282" d="M37.5,10a10,10,0,0,1,20,0v1.25a10,10,0,0,1-20,0ZM54.9,8.75H52.547a4.662,4.662,0,0,1-3.164-1.281l-.422-.49A8.136,8.136,0,0,1,42.68,10H40v1.25a7.5,7.5,0,0,0,15,0V10A8.178,8.178,0,0,0,54.9,8.75ZM49.633,4.116,51.219,5.7a1.876,1.876,0,0,0,1.328.549H54A7.5,7.5,0,0,0,40.43,7.5h2.25a5.522,5.522,0,0,0,4.938-3.035,1.372,1.372,0,0,1,.25-.348A1.247,1.247,0,0,1,49.633,4.116ZM30,37.594A13.842,13.842,0,0,1,43.844,23.75h7.313A13.84,13.84,0,0,1,65,37.594,2.407,2.407,0,0,1,62.594,40H32.408A2.408,2.408,0,0,1,30,37.594Zm13.75-8.633a3.75,3.75,0,1,1-2.5,0V26.547A11.35,11.35,0,0,0,32.5,37.5H62.43A11.2,11.2,0,0,0,55,26.914v2.047A3.76,3.76,0,0,1,57.5,32.5V35A1.25,1.25,0,0,1,55,35V32.5a1.25,1.25,0,0,0-2.5,0V35A1.25,1.25,0,0,1,50,35V32.5a3.76,3.76,0,0,1,2.5-3.539V26.328a10.891,10.891,0,0,0-1.344-.078H43.68ZM42.5,33.75a1.25,1.25,0,1,0-1.25-1.25A1.254,1.254,0,0,0,42.5,33.75Z" transform="translate(-30)" fill="#fa8d2d"/>
</svg>
