<svg xmlns="http://www.w3.org/2000/svg" width="35" height="40" viewBox="0 0 35 40">
  <path id="Trazado_17283" data-name="Trazado 17283" d="M36.041,8V9.755a2.451,2.451,0,0,0,1.559,2.32A28.891,28.891,0,0,0,47.43,13.75a28.963,28.963,0,0,0,9.9-1.673,2.452,2.452,0,0,0,1.559-2.32V8l1.73-1.742a1.746,1.746,0,0,0,.633-1.364A1.928,1.928,0,0,0,59.8,3.02C48.414.155,47.906,0,47.617,0L47.5,0l-.113,0c-.3,0-.785.15-12.117,3.02a1.916,1.916,0,0,0-1.52,1.873,1.939,1.939,0,0,0,.562,1.366L36.041,8ZM47.5,11.047a5.744,5.744,0,0,1-2.117-3.784L47.5,6.38l2.117.882A5.855,5.855,0,0,1,47.5,11.047ZM42.711,3.705c2.927-.739,4.333-1.095,4.791-1.2.461.1,10.719,2.691,10.719,2.691l-1.76,1.771V8l.081,1.728a25.216,25.216,0,0,1-5.721,1.305,8.7,8.7,0,0,0,1.366-4.786.937.937,0,0,0-.576-.865l-3.75-1.563A1.153,1.153,0,0,0,47.5,3.75a1.122,1.122,0,0,0-.36.072L43.39,5.385a.932.932,0,0,0-.577.864,8.7,8.7,0,0,0,1.368,4.787,24.863,24.863,0,0,1-5.641-1.278V6.971L36.783,5.2ZM56.234,15a1.25,1.25,0,0,0-1.242,1.064,7.618,7.618,0,0,1-15.052,0A1.128,1.128,0,0,0,38.773,15a1.262,1.262,0,0,0-1.261,1.422,10.061,10.061,0,0,0,19.9,0A1.169,1.169,0,0,0,56.234,15ZM55,27.5H52.5l-5,5-5-5H40a10,10,0,0,0-10,10A2.5,2.5,0,0,0,32.5,40h30A2.5,2.5,0,0,0,65,37.5,10,10,0,0,0,55,27.5Zm1.25,10V36.25H57.5a1.25,1.25,0,0,0,0-2.5H56.25V32.5a1.25,1.25,0,0,0-2.5,0v1.25H52.5a1.25,1.25,0,0,0,0,2.5h1.25V37.5H32.5A7.508,7.508,0,0,1,40,30h1.464L47.5,36.039,53.539,30H55a7.508,7.508,0,0,1,7.5,7.5Z" transform="translate(-30)" fill="#fa8d2d"/>
</svg>
