<?xml version="1.0" encoding="UTF-8"?>
<svg id="Layer_1" data-name="Layer 1" xmlns="http://www.w3.org/2000/svg" viewBox="0 0 512 512">
  <defs>
    <style>
      .cls-1 {
        fill: #f28a30;
      }
    </style>
  </defs>
  <path class="cls-1" d="M76,1c3.82,2.48,5.45,5.86,5.07,10.51-.35,4.26-.07,8.58-.07,13.45,7.81,0,15.25,0,22.69,0,24.07,.03,41.27,17.11,41.31,41.02,.01,6.82,.01,13.63,0,20.45-.01,6.89-1.14,8.47-7.94,10.94-.54,17.38,2.39,35.33-7.3,51.73,9.28,6.94,18.35,13.66,27.33,20.49,4.1,3.12,5.11,7.09,2.97,10.89-2.08,3.71-5.43,4.89-9.34,3.82-1.84-.5-3.49-1.88-5.08-3.06-8.4-6.23-16.76-12.51-25.18-18.81-4.24,3.02-7.23,5.71-8.03,11.58-2.28,16.72-16.97,27.49-34.34,26.54-15.15-.83-27.54-13.84-29.33-29.75-.35-3.08-3.94-5.79-6.3-9.04-9.34,6.98-17.82,13.35-26.34,19.67-6.62,4.91-10,4.48-15.13-1.8,0-2,0-3.99,0-5.99,2.03-1.9,3.93-3.97,6.12-5.65,8.26-6.33,16.61-12.53,24.32-18.32-1.96-6.69-4.7-12.6-5.27-18.72-1.06-11.35-.77-22.82-1.25-34.23-.07-1.76-.7-4.09-1.94-5.1-9.64-7.86-17.48-17.02-21.99-28.75v-8.98c4.21-7.49,11.83-3.98,17.99-5.35-.06-.99-.01-1.83-.17-2.63-2.33-11.67-.03-22.4,6.63-32.21,4.01-5.91,9.07-6.5,14.12-1.57,2.25,2.2,4.16,4.74,6.35,7.26C53.8,8,54.94,7.1,69,1h7Zm45.54,106.67c-.18-.01-.36-.03-.54-.04,0-3.99-.28-8.01,.08-11.97,.37-4.13-1.38-6.97-4.25-9.54-8.95-7.99-20.65-5.82-27.9,5.23-4.96,7.56-10.95,7.57-15.87-.05-3.32-5.14-7.81-8.5-13.82-9.85-8.46-1.9-18.24,5.7-18.24,14.24,0,8.15-.28,16.31,.06,24.44,.8,19.38,9.88,37.85,34.74,40.2,21.08,1.99,38.68-6.56,43.75-29.91,1.6-7.38,1.39-15.16,2-22.76Zm-40.32-32.68c6.48-6.3,14.13-10.03,23.46-10.17,9.29-.13,16.91,3.63,24.32,10.15,0-2.84,0-4.78,0-6.72-.02-17.72-9.68-27.33-27.49-27.35-8.99,0-17.97,.02-26.96-.01-6.87-.03-9.5-2.73-9.55-9.71-.02-2.83,0-5.66,0-8.48l-1.54-.28c-2.2,4.23-4.5,8.41-6.56,12.71-3.17,6.6-9.12,7.85-14.4,2.66-2.28-2.24-4.05-5.01-6.04-7.54-3.88,8.57-1.79,14.79,2.16,21.04,1.52,2.41,1.98,6.23,1.36,9.07-.78,3.57-4.3,4.64-7.97,4.52-3.71-.11-7.42-.03-12.65-.03,4.54,4.9,7.97,8.6,11.42,12.33,14.96-15.04,33.36-16.95,50.44-2.2Zm-13.55,101.17c2.24,5.18,8.03,8.76,13.96,8.42,6-.35,11.11-3.92,12.44-8.42h-26.4Z"/>
  <path class="cls-1" d="M513,155.7c-.41,.49-.85,.96-1.24,1.47-2.37,3.14-5.56,4.34-9.24,3.15-3.92-1.28-5.56-4.28-5.55-8.46,.06-30.25,.04-60.51,.03-90.76,0-11.57-4.49-16.97-15.95-19.14-1.14-.22-2.31-.48-3.46-.45-6.86,.14-10.84-3.08-14.39-9.11-5.29-9.01-14.92-12.34-24.79-14.16-11.27-2.08-22.54-1.68-33.6,1.45-22.1,6.26-35.72,24.08-35.8,47.06-.1,27.93,0,55.85-.06,83.78,0,1.94-.14,4.06-.9,5.78-1.62,3.66-4.9,5.01-8.67,4.21-4.27-.91-6.39-3.82-6.38-8.27,.03-29.92-1-59.89,.34-89.75,1.2-26.82,17.51-54.39,55.42-60.44,1.43-.23,2.83-.7,4.24-1.07,7.67,0,15.33,0,23,0,1.09,.33,2.16,.81,3.28,.98,15.12,2.38,28.15,8.35,37.53,21.02,1.02,1.38,3.18,2.36,4.97,2.67,15.14,2.64,26.7,9.56,31.23,25.23v104.8Z"/>
  <path class="cls-1" d="M513,179.65c-5.23,6.26-8.55,6.68-15.14,1.79-8.41-6.25-16.77-12.55-25.35-18.98-3.72,2.92-7.32,4.88-7.91,10.82-1.65,16.48-16.37,27.88-33.74,27.31-15.4-.51-28.39-13.7-30.07-29.54-.33-3.12-3.81-5.9-6.18-9.34-8.39,6.25-15.95,11.88-23.5,17.5-1.6,1.19-3.16,2.44-4.81,3.56-4.4,2.98-9.2,2.37-11.91-1.46-2.59-3.66-1.83-8.36,2.18-11.45,6.99-5.38,14.11-10.59,21.17-15.87,1.99-1.49,3.98-2.99,6.37-4.79-10.66-19.18-6.26-40.13-7.02-60.5-.18-4.71,3.34-7.81,7.85-7.85,4.7-.03,7.97,3.16,8.03,8.22,.11,9.81-.22,19.63,.14,29.43,.19,5.26,.8,10.67,2.32,15.68,6.13,20.21,22.59,28.02,42.72,26.13,24.81-2.33,33.97-20.6,34.79-40.13,.42-9.96,.05-19.95,.09-29.93,.02-5.99,2.86-9.33,7.87-9.39,5.09-.06,8.18,3.25,8.08,9.17-.23,13.77-.14,27.58-1.19,41.3-.46,6.09-3.36,12-5.26,18.33,7.9,5.93,16.18,12.07,24.36,18.33,2.2,1.69,4.1,3.77,6.13,5.67v5.99Zm-93.84-3.75c2.82,5.85,7.69,8.47,13.56,8.57,6.1,.1,11.11-2.56,14.13-8.6-4.77,.27-9.18,.72-13.59,.72-4.59,0-9.18-.43-14.11-.7Z"/>
  <path class="cls-1" d="M260,1c3.81,2.48,5.11,5.88,5.09,10.5-.17,35.9-.13,71.8-.05,107.7,.01,4.51-1.38,7.89-5.83,9.28-5.32,1.66-10.13-2.26-10.18-8.29-.09-11.47-.03-22.94-.03-34.41,0-24.77,.11-49.53-.1-74.29-.04-4.63,1.27-8.02,5.09-10.5h6Z"/>
  <path class="cls-1" d="M1,253.5c2.48-3.81,5.88-5.1,10.52-5.08,35.97,.17,71.94,.13,107.91,.05,4.52-.01,7.91,1.37,9.31,5.81,1.67,5.31-2.26,10.12-8.3,10.17-10.82,.09-21.65,.03-32.47,.03-25.31,0-50.63-.1-75.94,.09-4.72,.03-8.45-.99-11.02-5.07v-5.99Z"/>
  <path class="cls-1" d="M513,259.49c-2.5,3.79-5.89,5.1-10.52,5.08-35.97-.17-71.95-.13-107.92-.05-4.52,.01-7.91-1.38-9.3-5.82-1.67-5.33,2.25-10.11,8.31-10.16,11.82-.09,23.65-.03,35.47-.03,24.32,0,48.63,.1,72.94-.09,4.72-.04,8.44,1,11.02,5.07v5.99Z"/>
  <path class="cls-1" d="M256.93,368.27c-5.16,0-10.33,.08-15.49-.02-5.4-.1-8.32-2.98-8.41-8.33-.11-6.32-.04-12.64-.02-18.95,.01-4.96-1.96-8.6-6.68-10.64-4.85-2.1-8.68-.56-12.14,2.96-4.2,4.28-8.39,8.56-12.72,12.69-4.82,4.6-8.69,4.55-13.43-.11-6.88-6.77-13.71-13.59-20.5-20.46-4.85-4.91-4.82-8.74,.07-13.75,4.18-4.29,8.46-8.49,12.71-12.71,3.37-3.34,4.71-7.08,2.75-11.72-2-4.73-5.61-6.78-10.58-6.78-6.16,0-12.33,.04-18.49-.02-6.04-.06-8.93-2.85-8.97-8.78-.07-10.14-.07-20.29,0-30.43,.04-5.69,2.93-8.57,8.6-8.65,6.33-.09,12.66,0,18.99-.03,4.99-.02,8.54-2.14,10.5-6.89,1.93-4.68,.47-8.38-2.88-11.7-4.37-4.34-8.79-8.63-13.05-13.08-4.38-4.57-4.34-8.5,.11-13.02,6.89-7,13.84-13.93,20.85-20.81,4.69-4.61,8.56-4.59,13.43,.07,4.21,4.03,8.29,8.19,12.36,12.35,3.6,3.68,7.72,5.24,12.62,3.04,4.62-2.07,6.46-5.96,6.46-10.86,0-6.15-.07-12.31,.02-18.46,.08-5.4,2.96-8.37,8.31-8.42,10.49-.1,20.99-.1,31.49,0,5.08,.05,8.03,3.03,8.14,8.09,.13,6.32,.07,12.64,.02,18.95-.04,5.17,1.95,8.91,6.93,10.96,4.94,2.03,8.67,.22,12.08-3.24,4.21-4.27,8.41-8.54,12.74-12.68,4.57-4.36,8.51-4.33,13.05,.12,7.02,6.87,13.96,13.81,20.85,20.81,4.61,4.68,4.57,8.56-.09,13.41-4.15,4.32-8.41,8.53-12.71,12.7-3.58,3.48-4.95,7.34-2.82,12.13,2.09,4.7,5.8,6.57,10.75,6.55,6.16-.03,12.33-.06,18.49,.01,5.71,.07,8.66,2.92,8.7,8.54,.08,10.31,.09,20.62,0,30.93-.05,5.37-2.99,8.29-8.36,8.38-6.33,.11-12.66,.05-18.99,.02-4.98-.02-8.61,1.96-10.65,6.67-2.09,4.84-.55,8.66,2.99,12.1,4.29,4.18,8.57,8.38,12.71,12.71,4.6,4.8,4.55,8.68-.12,13.41-6.78,6.87-13.61,13.69-20.5,20.46-4.9,4.82-8.77,4.78-13.78-.09-4.3-4.17-8.48-8.46-12.74-12.68-3.38-3.34-7.31-4.55-11.84-2.64-4.47,1.89-6.57,5.49-6.65,10.2-.11,6.15,0,12.3-.04,18.46-.05,6.33-2.81,9.14-9.06,9.21-5,.05-10,.01-14.99,.01Zm-61.58-38.37c2.99-3.23,5.5-6.36,8.44-9.04,8.55-7.8,18.48-9.84,29.1-5.22,10.57,4.61,16,13.09,16.1,24.74,.03,3.91,0,7.82,0,11.67h16.01c0-3.86,.02-7.48,0-11.1-.08-11.86,5.34-20.39,16.02-25.33,10.16-4.7,21.36-2.37,29.87,5.86,2.73,2.64,5.17,5.57,7.31,7.9,4.25-4.17,7.85-7.69,11.93-11.68-2.93-2.75-6.2-5.38-8.95-8.47-7.7-8.64-9.53-18.59-4.72-29.11,4.7-10.29,13.12-15.54,24.57-15.63,3.92-.03,7.84,0,11.72,0v-15.98c-3.86,0-7.49-.02-11.11,0-11.87,.06-20.44-5.33-25.39-15.98-4.71-10.14-2.38-21.31,5.86-29.8,2.64-2.72,5.58-5.16,7.94-7.32-4.2-4.23-7.76-7.8-11.91-11.97-2.66,2.92-5.22,6.26-8.31,9-8.65,7.68-18.62,9.52-29.17,4.71-10.3-4.7-15.58-13.09-15.66-24.52-.03-3.91,0-7.82,0-11.69h-16.01c0,3.86-.02,7.47,0,11.09,.07,11.86-5.37,20.39-16.02,25.34-10.12,4.7-21.38,2.36-29.87-5.86-2.73-2.64-5.15-5.59-7.24-7.87-4.32,4.15-7.96,7.64-12.18,11.7,3.06,2.79,6.4,5.35,9.15,8.43,7.69,8.64,9.51,18.6,4.69,29.12-4.71,10.29-13.13,15.54-24.58,15.62-3.92,.03-7.83,0-11.69,0v15.98c3.87,0,7.5,.02,11.12,0,11.88-.08,20.43,5.34,25.37,15.99,4.7,10.12,2.37,21.31-5.87,29.82-2.64,2.73-5.58,5.16-8.43,7.78,4.17,4.14,7.68,7.63,11.9,11.82Z"/>
  <path class="cls-1" d="M55.76,460c-5.48-10.94-7.16-22.26-6.83-34.07,.33-11.46,.07-22.93,.07-34.56-10.13-2.77-18.51-7.82-24.62-16.29-9.82-13.63-9.94-31.75-.22-45.73,9.23-13.27,26.73-19.96,41.71-15.96,10.76,2.88,17.75,9.9,22.66,22.96,10.52,0,21.17-.02,31.82,0,23.3,.05,40.59,17.36,40.64,40.71,.03,14.14-.13,28.28,.04,42.41,.17,13.84,.31,27.61-7.02,40.51,10.22,6.15,19.79,12.46,29.89,17.78,6.97,3.67,10.25,8.35,9.16,16.23-.47,3.43,.06,6.98-.13,10.47-.25,4.6-3.72,7.66-8.22,7.52-4.27-.13-8.29-3.33-7.51-7.54,1.92-10.25-3.61-14.88-11.72-18.75-5.83-2.78-11.17-6.58-16.72-9.92-4.43-2.66-11.28,.86-11.78,6.05-1.78,18.54-15.28,30.6-33.76,30.15-15.22-.37-29.01-13.48-30.18-28.69-.56-7.26-6.64-10.62-12.7-6.99-7.99,4.79-15.92,9.68-23.98,14.33-2.42,1.4-3.72,2.9-3.43,5.84,.26,2.63,.18,5.32,.01,7.98-.29,4.6-3.71,7.66-8.21,7.54-4.27-.12-7.52-3.13-7.67-7.56-.18-5.48-.63-11.06,.19-16.43,.42-2.79,2.76-6.06,5.2-7.65,9.46-6.17,19.31-11.75,29.01-17.57,1.39-.83,2.72-1.76,4.3-2.79Zm9.38-67.77c0,14.52-.92,28.53,.21,42.37,1.84,22.48,13.35,34.63,34.55,37.03,19.88,2.25,36.53-5.72,42.68-26.08,1.47-4.86,2.23-10.1,2.31-15.18,.28-17.29,.14-34.58,.1-51.88-.05-16.08-10.11-26.12-26.2-26.17-12-.04-23.99,0-35.99-.02-6.88-.01-9.3-2.26-9.81-8.98-.59-7.72-5.28-13.2-12.59-14.71-14.42-2.99-29.86,12.19-27.12,26.66,2.39,12.6,12.25,20.89,25.42,20.96,20.32,.12,40.65,.09,60.98-.01,4.59-.02,7.86,1.6,9.12,6.05,1.51,5.35-2.48,9.91-8.63,9.93-18.15,.06-36.29,.02-55.02,.02Zm26.52,95.33c2.24,5.18,8.03,8.76,13.96,8.42,6.01-.35,11.11-3.92,12.44-8.42h-26.4Z"/>
  <path class="cls-1" d="M359.9,459.94c-7.52-13.28-7.08-27.59-6.91-41.89,.13-10.64,.02-21.28,.03-31.93,.01-25.03,16.46-44.54,41.33-48.61,15.2-2.49,30.33-2.16,44.36,5.02,17.02,8.7,25.86,22.97,26.24,42.07,.3,15.29-.09,30.6,.11,45.89,.13,10.33-2.3,20-6.82,29.63,10.6,6.38,20.82,12.87,31.38,18.74,5.49,3.05,8.15,6.81,7.47,13.16-.43,3.94,.02,7.98-.11,11.96-.15,4.76-3.29,7.91-7.75,8.01-4.7,.11-8.84-3.24-8.02-8.04,1.64-9.52-3.21-14.04-10.83-17.76-6.1-2.98-11.75-6.89-17.6-10.4-4.46-2.68-11.28,.81-11.79,6.03-1.5,15.5-10.97,26.41-25.77,29.69-17.95,3.98-36.74-9.89-38.16-28.18-.58-7.49-6.64-10.63-13.07-6.78-7.7,4.61-15.32,9.38-23.15,13.76-3.05,1.7-4.25,3.72-3.88,7.1,.25,2.3,.16,4.66,.01,6.98-.29,4.62-3.66,7.69-8.16,7.6-4.29-.09-7.58-3.07-7.73-7.49-.19-5.65-.59-11.38,.19-16.93,.37-2.63,2.76-5.67,5.11-7.19,9.49-6.13,19.32-11.73,29.01-17.55,1.39-.83,2.73-1.75,4.51-2.89Zm9.1-51.52c0,7.48-.21,14.96,.04,22.43,1.11,34.19,26,45.9,52.33,39.5,16.93-4.12,27.27-18.8,27.58-38.63,.24-15.45,.19-30.91,.01-46.36-.16-14.44-8.58-25.74-22.38-30.26-11.55-3.79-23.25-3.79-34.82-.14-14.22,4.49-22.61,16.07-22.75,31.02-.07,7.48-.01,14.96-.01,22.43Zm53.62,79.14h-27.51c3.55,5.91,8.54,8.69,14.73,8.29,5.61-.37,10.4-2.83,12.77-8.29Z"/>
  <path class="cls-1" d="M264.99,448.11c0,18.44-.03,36.89,.02,55.33,.01,3.98-1.68,6.82-5.33,8.12-3.42,1.22-6.8,.49-8.89-2.59-1.12-1.65-1.71-3.98-1.72-6.01-.1-36.55-.09-73.11-.06-109.66,0-5.82,3.14-9.17,8.21-9.04,4.82,.12,7.73,3.42,7.74,9.01,.04,18.28,.01,36.56,.01,54.83Z"/>
  <path class="cls-1" d="M437.21,75.17c-7.23,3.89-15.09,8.45-23.25,12.38-5.73,2.76-10.75,.86-12.53-3.86-1.75-4.65,.56-8.56,6.37-11.03,10.67-4.53,20.48-10.01,26.89-20.39,1.24-2,5.66-3.46,8.09-2.9,2.41,.56,5.52,3.77,5.91,6.21,1.3,8.16,4.91,14.17,12.17,18.26,4.21,2.37,5.3,6.77,3.27,10.67-2.11,4.06-6.89,5.95-11.01,3.23-5.71-3.78-10.81-8.47-15.91-12.57Z"/>
  <path class="cls-1" d="M441.11,112.45v-15.23h15.52v15.23h-15.52Z"/>
  <path class="cls-1" d="M424.89,97.23v15.16h-15.55v-15.16h15.55Z"/>
  <path class="cls-1" d="M89.24,97.01h15.43v15.48h-15.43v-15.48Z"/>
  <path class="cls-1" d="M57.24,97.01h15.43v15.48h-15.43v-15.48Z"/>
  <path class="cls-1" d="M257.05,312.38c-31.22,0-56.05-24.8-56.04-55.95,.01-31.11,24.93-55.88,56.17-55.81,31.08,.06,55.81,24.97,55.81,56.21,0,30.74-25,55.57-55.95,55.56Zm.24-95.8c-21.83-.18-40.23,18.03-40.28,39.87-.04,21.57,18.1,39.85,39.69,39.96,21.85,.11,40.14-18,40.28-39.89,.14-21.48-18.03-39.76-39.69-39.94Z"/>
  <path class="cls-1" d="M81.22,423.81v-15.33h15.37v15.33h-15.37Z"/>
  <path class="cls-1" d="M128.65,423.94h-15.38v-15.34h15.38v15.34Z"/>
  <path class="cls-1" d="M400.65,423.94h-15.38v-15.34h15.38v15.34Z"/>
  <path class="cls-1" d="M432.79,408.46v15.37h-15.49v-15.37h15.49Z"/>
  <path class="cls-1" d="M257.32,232.55c13.3,.05,23.77,10.77,23.67,24.24-.11,13.31-10.81,23.72-24.31,23.64-13.29-.08-23.75-10.8-23.67-24.26,.08-13.29,10.76-23.67,24.31-23.62Zm-.4,31.87c4.12,.03,8.04-3.88,8.01-8-.03-4.11-4.04-7.99-8.13-7.87-3.93,.11-7.65,3.83-7.76,7.75-.12,4.09,3.76,8.09,7.88,8.12Z"/>
</svg>