<?xml version="1.0" encoding="UTF-8"?>
<svg id="Layer_1" data-name="Layer 1" xmlns="http://www.w3.org/2000/svg" viewBox="0 0 512 512">
  <defs>
    <style>
      .cls-1 {
        fill: #f28a30;
      }
    </style>
  </defs>
  <path class="cls-1" d="M513,406.21v96.81c-3.35,5.05-8.13,6.31-14.04,6.3-161.31-.11-322.61-.11-483.92,0-5.91,0-10.69-1.24-14.04-6.3,0-107.12,0-214.25,0-321.37,2.7-2.63,5.25-5.43,8.12-7.86,19.06-16.13,38.22-32.13,57.2-48.35,1.49-1.28,2.58-3.81,2.67-5.81,.31-7.64,.09-15.29,.13-22.94,.04-7.62,3.86-12.08,10.24-12.07,6.17,.02,9.96,4.27,10.09,11.68,.13,7.48-.23,14.98,.19,22.44,.14,2.45,1.43,5.51,3.25,7.07,19.58,16.79,39.32,33.41,59.15,49.9,4.05,3.37,5.96,7.18,5.91,12.45-.15,17.79-.06,35.59-.06,53.38,0,1.78,0,3.55,0,5.58h12.35c.67-11.14,3.86-21.23,11.85-29.34,8.11-8.24,17.89-12.46,29.45-12.54,9.12-.07,17.37,2.6,24.67,8.06,11.28,8.42,16.24,20.13,17.03,33.78h12.3c0-2.43,0-4.55,0-6.68,0-57.54,0-115.08,.02-172.62,0-2.16,0-4.34,.32-6.46,.69-4.61,4.17-7.9,8.59-8.37,4.77-.51,9,1.96,10.54,6.55,.67,1.99,.84,4.22,.85,6.35,.07,12.62,.04,25.24,.04,38.47,2.17,0,3.96,0,5.76,0,14.66,0,29.33-.05,43.99,.02,9.22,.04,12.73,3.53,12.82,12.62,.08,8.81,0,17.63,.03,26.44,0,1.74,.19,3.48,.3,5.52,17.04,0,33.52-.06,50,.02,8.45,.04,12.19,3.88,12.19,12.22,.01,27.27,0,54.55,0,81.82,0,1.74,0,3.48,0,5.82,2.01-.99,3.31-1.62,4.61-2.28,36.5-18.56,80.47-.97,93.86,37.6,1.4,4.02,2.37,8.2,3.54,12.3v17.96c-.86,3.34-1.55,6.73-2.61,10-8.07,24.94-24.98,40.41-50.4,46.8-1.37,.35-3.46,1.86-3.49,2.89-.28,8.75-.16,17.51-.16,26.68,1.43-.3,2.42-.36,3.29-.71,8.99-3.58,18.41-4.65,27.9-3.68,9.27,.95,18.94,1.53,25.46,9.83Zm-226.74-236.57V488.66h55.5c-1.61-29.69,17.16-55.79,49.07-63.05,.05-.76,.15-1.58,.15-2.4,0-25.61,.06-51.22-.08-76.83-.01-2.14-1.02-4.46-2.09-6.4-12.67-22.78-12.65-45.49-.11-68.32,1.28-2.34,2.18-5.22,2.2-7.86,.15-29.6,.1-59.21,.1-88.81v-5.35h-104.73ZM21.32,195.79v209.24h115.87V195.79H21.32Zm243.89,220.15v-96.29h-106.95v96.29h106.95Zm96.85,72.81h130.59v-71.45c-3.14-.4-5.93-1-8.74-1.08-19.72-.57-36.96,10.75-44.64,29.2-3.8,9.14-9.02,10.86-17.59,5.8-.72-.42-1.44-.83-2.18-1.21-13.78-7-27.36-6.55-40.16,2.03-12.79,8.58-18.15,21.05-17.28,36.7Zm94.26-138.32c19.23-1.27,37.26-23.98,36.64-45.52-.71-24.86-20.88-45.15-45.22-45.51-25.19-.37-46.69,18.54-47.81,42.06-1.17,24.54,15.35,47.18,36.14,49.07,0-1.67,0-3.32,0-4.96,0-12.63-.03-25.27,.01-37.9,.02-7.06,4.01-11.85,9.9-12.05,6.1-.21,10.23,4.52,10.31,12.04,.09,7.98,.02,15.96,.02,23.94,0,6.27,0,12.55,0,18.84Zm-319.14,75.44H21.34v62.95H57.93c0-8.53-.05-16.8,.01-25.06,.06-7.89,3.73-11.57,11.61-11.6,11.16-.05,22.31-.04,33.47,0,8.24,.03,11.94,3.68,11.97,11.8,.03,8.25,0,16.5,0,24.73h22.18v-62.82Zm128.1-158.44c-4.37,0-8.36,.11-12.34-.02-10.81-.35-19.1-8.3-20.12-19.06-.28-2.96-.49-6.02-1.39-8.82-3.13-9.72-12.87-15.46-23.17-13.94-9.52,1.4-16.86,9.74-17.34,19.69-.68,14.17-9.08,22.12-23.4,22.16-3.1,0-6.2,0-9.21,0v31.73h106.98v-31.75Zm0,169.03h-107.01v52.25h24.78c0-8.01,0-15.65,0-23.28,0-9.89,3.33-13.27,13.07-13.28,10.33-.01,20.65-.01,30.98,0,9.91,0,13.1,3.19,13.14,13.14,.03,7.77,0,15.53,0,23.55h25.03v-52.37ZM39.22,174.81H119.45c-13.82-11.65-26.81-22.6-40.09-33.79-13.24,11.14-26.27,22.12-40.14,33.79Zm396.83,197.84c-8.86-3.25-16.74-6.13-24.78-9.08v61.45c9.59,6.74,15.95,3.34,20.55-5.75,.58-1.14,1.83-1.92,2.62-2.99,.66-.89,1.54-1.94,1.55-2.92,.1-13.77,.07-27.54,.07-40.71Zm-108.13-247.68h-41.73v23.51h41.73v-23.51ZM78.33,472.49v16.18h16.26v-16.18h-16.26Zm141.59,.05h-16.46v16.19h16.46v-16.19Z"/>
  <path class="cls-1" d="M35.35,44.82C41.85,21.69,56.22,7.1,79.88,4.37c23.24-2.69,40.39,8.01,51.64,27.73,6.41-2.68,12.55-6.22,19.17-7.86,26.66-6.61,53.16,8.78,60.94,35.13,.97,3.29,2.3,4.24,5.45,4.08,3.82-.18,7.67-.18,11.48,.12,5.96,.47,9.63,4.46,9.61,10.01-.02,5.46-3.86,9.82-9.67,10.03-8.32,.31-16.66,.27-24.98,.02-5.47-.17-8.81-3.45-9.82-8.88-.6-3.25-.69-6.63-1.59-9.79-3.52-12.47-14.71-21.4-27.25-22.05-13.76-.71-25.47,6.77-31.04,20.75,5.65,0,10.86-.31,16.01,.09,5,.39,8.53,4.48,8.83,9.27,.28,4.43-2.74,8.61-7.37,10.06-1.09,.34-2.27,.6-3.4,.61-8.5,.05-16.99,.18-25.48-.03-6.58-.16-10.75-4.34-10.32-10.81,.36-5.4,1.92-10.71,2.57-16.1,.44-3.66,1.08-7.62,.16-11.05-3.29-12.18-14.58-20.73-27.6-21.68-11.45-.83-23.7,6.28-28.99,16.87-.5,1-.8,2.09-1.49,3.93,3.46,0,6.38-.12,9.28,.02,5.7,.27,9.84,4.47,9.87,9.83,.04,5.22-4.24,9.99-9.74,10.07-12.99,.2-25.99,.21-38.98,0-5.64-.09-9.59-4.68-9.51-10.16,.08-5.49,4.06-9.48,9.87-9.75,2.64-.12,5.28-.02,7.82-.02Z"/>
  <path class="cls-1" d="M376.9,68.58c.04-29.1,23.66-52.61,52.75-52.52,29,.09,52.4,23.76,52.34,52.95-.05,28.73-23.66,52.26-52.51,52.33-28.93,.08-52.63-23.69-52.59-52.76Zm52.22,32.35c18.17,.09,32.92-14.41,32.87-32.31-.05-17.64-14.72-32.24-32.49-32.32-17.73-.08-32.46,14.5-32.52,32.2-.06,17.86,14.3,32.35,32.14,32.43Z"/>
  <path class="cls-1" d="M338,197.49c6.49,0,12.98-.08,19.47,.02,6.79,.1,10.94,3.55,11.09,10.14,.3,13.28,.3,26.58-.01,39.86-.15,6.4-4.33,9.97-10.68,10.01-12.98,.08-25.97,.08-38.95,0-6.84-.04-10.78-3.96-10.84-10.86-.1-12.79-.1-25.58,0-38.37,.06-6.86,3.98-10.66,10.93-10.78,6.32-.11,12.65-.02,18.97-.02Zm10.08,20.47h-19.51v19.2h19.51v-19.2Z"/>
  <path class="cls-1" d="M338.66,361.17c6.32,0,12.65-.07,18.97,.02,6.7,.09,10.82,3.62,10.96,10.27,.28,13.12,.28,26.25,0,39.37-.15,6.84-4.33,10.36-11.37,10.39-12.65,.06-25.3,.07-37.95,0-7.2-.04-11.14-3.91-11.19-11.04-.09-12.62-.08-25.25,0-37.88,.05-7.22,3.87-11.01,11.1-11.11,6.49-.09,12.98-.02,19.47-.02Zm-10.04,20.33v19.47h19.25v-19.47h-19.25Z"/>
  <path class="cls-1" d="M338.75,279.33c6.32,0,12.65-.08,18.97,.02,6.66,.11,10.74,3.69,10.87,10.37,.27,13.12,.28,26.25-.01,39.37-.15,6.67-4.29,10.24-10.96,10.28-12.82,.07-25.63,.07-38.45,0-7.15-.04-11.05-3.94-11.1-11.12-.08-12.62-.09-25.25,0-37.87,.05-7.17,3.91-10.93,11.19-11.03,6.49-.09,12.98-.02,19.47-.02Zm-10.07,20.2v19.54h19.14v-19.54h-19.14Z"/>
  <path class="cls-1" d="M90.52,294.88c0-3.81-.29-7.64,.06-11.42,.53-5.78,4.89-9.72,10.11-9.66,5.22,.06,9.76,4.14,10.02,9.82,.34,7.44,.33,14.92,0,22.36-.25,5.8-4.57,9.7-9.94,9.79-5.44,.09-9.62-3.58-10.18-9.47-.36-3.77-.07-7.61-.07-11.42Z"/>
  <path class="cls-1" d="M110.82,355.5c0,3.48,.17,6.97-.04,10.44-.36,6.02-4.57,10.21-10.04,10.28-5.55,.08-9.91-3.85-10.2-10.01-.35-7.27-.35-14.58,0-21.86,.29-6.19,4.57-10.04,10.18-9.99,5.7,.05,9.82,4.33,10.1,10.7,.15,3.47,.03,6.96,.03,10.44h-.02Z"/>
  <path class="cls-1" d="M67.86,295.16c0,3.31,.12,6.63-.02,9.94-.27,6.38-4.38,10.64-10.13,10.68-5.61,.04-9.84-3.85-10.11-10.08-.32-7.27-.32-14.58,0-21.86,.28-6.08,4.81-10.18,10.24-10.03,5.44,.15,9.66,4.43,9.97,10.42,.19,3.63,.04,7.29,.04,10.93Z"/>
  <path class="cls-1" d="M67.86,355.59c0,3.31,.12,6.63-.02,9.94-.28,6.31-4.47,10.66-10.14,10.69-5.57,.03-9.83-3.9-10.1-10.09-.32-7.27-.32-14.58,.02-21.86,.29-6.18,4.58-10,10.22-9.9,5.52,.09,9.66,4.24,9.98,10.29,.19,3.63,.04,7.29,.04,10.93Z"/>
  <path class="cls-1" d="M110.82,237.52c0,3.48,.16,6.97-.03,10.44-.33,6.01-4.49,10.3-9.89,10.47-5.51,.17-10.03-3.78-10.33-9.88-.37-7.43-.38-14.92,.02-22.35,.33-6.14,4.73-9.8,10.47-9.6,5.33,.18,9.34,4.16,9.72,10,.24,3.63,.04,7.29,.05,10.93Z"/>
  <path class="cls-1" d="M67.85,237.52c0,3.48,.15,6.97-.03,10.44-.31,6-4.47,10.3-9.88,10.47-5.51,.17-10.02-3.79-10.3-9.88-.35-7.44-.36-14.91,.01-22.35,.31-6.15,4.68-9.8,10.44-9.61,5.34,.18,9.35,4.18,9.71,10,.22,3.63,.04,7.29,.05,10.93Z"/>
  <path class="cls-1" d="M211.48,357.92c-8.65,0-17.29,.06-25.94-.02-7.54-.06-12.31-4.04-12.35-10.11-.04-6.03,4.86-10.26,12.24-10.28,17.62-.06,35.25-.06,52.87,0,5.86,.02,10.04,2.7,11.3,7.23,1.22,4.4,.22,8.51-3.71,10.95-2.25,1.4-5.27,2.05-7.97,2.13-8.8,.26-17.62,.1-26.43,.1Z"/>
  <path class="cls-1" d="M211.53,399.21c-9.14,0-18.28,.05-27.42-.02-6.22-.04-10.82-4.28-10.9-9.87-.07-5.55,4.57-10.02,10.71-10.04,18.45-.06,36.9-.05,55.34,0,6.47,.02,10.67,3.98,10.72,9.86,.04,5.93-4.13,10-10.53,10.05-9.31,.07-18.61,.02-27.92,.02Z"/>
  <path class="cls-1" d="M211.91,261.4c5.62,.09,10.14,4.74,9.95,10.24-.18,5.17-4.9,9.71-10.1,9.75-5.6,.04-10.06-4.48-10.02-10.14,.04-5.77,4.35-9.93,10.18-9.85Z"/>
</svg>