<svg xmlns="http://www.w3.org/2000/svg" width="35.003" height="40" viewBox="0 0 35.003 40">
  <path id="Trazado_17271" data-name="Trazado 17271" d="M62.258,20a13.749,13.749,0,0,0,2.475-4.687,6.017,6.017,0,0,0-.469-4.707c-1.426-2.383-4.717-3.35-8.867-3C53.586,2.949,50.75,0,47.5,0s-6.086,2.949-7.891,7.608c-4.16-.352-7.452.615-8.867,3a5.975,5.975,0,0,0-.478,4.706A13.693,13.693,0,0,0,32.739,20a13.763,13.763,0,0,0-2.475,4.688,6.017,6.017,0,0,0,.469,4.707c1.241,2.07,3.877,3.086,7.276,3.086.5,0,1.055-.1,1.582-.137C41.336,37.023,44.242,40,47.5,40s6.023-2.979,7.914-7.586c.527.039,1.084.137,1.582.137,3.4,0,6.035-1.016,7.266-3.086a5.979,5.979,0,0,0,.479-4.707A13.522,13.522,0,0,0,62.258,20ZM32.881,28.109a3.554,3.554,0,0,1-.205-2.773,9.54,9.54,0,0,1,1.748-3.383,31.735,31.735,0,0,0,3.379,3,34.883,34.883,0,0,0,.986,5C35.844,30.1,33.682,29.445,32.881,28.109Zm4.65-6.641C37,20.977,36.508,20.492,36.039,20q.7-.732,1.494-1.465c-.009.488-.033.965-.033,1.465S37.523,20.977,37.531,21.469Zm.273-6.43a31.4,31.4,0,0,0-3.38,3.008,9.65,9.65,0,0,1-1.748-3.375,3.55,3.55,0,0,1,.205-2.773c.723-1.211,2.559-1.875,5.1-1.875.254,0,.537.02.811.029A34.9,34.9,0,0,0,37.8,15.039Zm16.555-1.992c-.654-.41-1.319-.82-2.022-1.211-.5-.281-1.009-.539-1.509-.789a28.868,28.868,0,0,1,2.852-.693C53.836,11.094,54.211,12.3,54.359,13.047ZM47.5,2.5c1.884,0,3.867,2.031,5.332,5.469A31.571,31.571,0,0,0,47.5,9.555a31.635,31.635,0,0,0-5.328-1.586C43.633,4.531,45.617,2.5,47.5,2.5Zm-6.18,7.852a28.868,28.868,0,0,1,2.852.693c-.5.252-1.008.518-1.508.791-.7.391-1.367.8-2.022,1.211A17.5,17.5,0,0,1,41.32,10.352Zm-.672,16.6c.654.41,1.319.82,2.022,1.211.527.293,1.045.508,1.572.771a27.06,27.06,0,0,1-2.92.713A26.745,26.745,0,0,1,40.648,26.953ZM47.5,37.5c-1.884,0-3.887-2.051-5.342-5.508A31.593,31.593,0,0,0,47.5,30.414,31.648,31.648,0,0,0,52.842,32C51.391,35.453,49.383,37.5,47.5,37.5Zm6.18-7.852a26.927,26.927,0,0,1-2.91-.713c.518-.264,1.045-.479,1.563-.771.7-.391,1.367-.8,2.022-1.211A26.738,26.738,0,0,1,53.68,29.648Zm1.156-6.055a36.348,36.348,0,0,1-3.711,2.383A36.323,36.323,0,0,1,47.5,27.744a36.578,36.578,0,0,1-3.623-1.767A37.864,37.864,0,0,1,40.167,23.6C40.063,22.453,40,21.25,40,20s.058-2.452.166-3.523a36.083,36.083,0,0,1,3.711-2.383A25.848,25.848,0,0,1,47.5,12.25a35.329,35.329,0,0,1,3.625,1.773A37.864,37.864,0,0,1,54.836,16.4c.109,1.15.094,2.353.094,3.6S54.945,22.453,54.836,23.594Zm2.125-13.57c2.53,0,4.366.664,5.088,1.875a3.554,3.554,0,0,1,.205,2.773,10.962,10.962,0,0,1-1.748,3.379,30.653,30.653,0,0,0-3.379-3,34.505,34.505,0,0,0-.986-4.991C56.484,10.039,56.766,10.023,56.961,10.023Zm.508,8.516c.531.484,1.031.977,1.5,1.461q-.7.732-1.494,1.465c.009-.488.025-.965.025-1.465S57.484,19.023,57.469,18.539Zm4.648,9.57c-.8,1.337-2.959,1.992-5.909,1.845a34.776,34.776,0,0,0,.986-5,30.572,30.572,0,0,0,3.379-3,10.894,10.894,0,0,1,1.748,3.379A3.549,3.549,0,0,1,62.117,28.109ZM47.5,18.125A1.875,1.875,0,1,0,49.375,20,1.881,1.881,0,0,0,47.5,18.125Z" transform="translate(-30)" fill="#fa8d2d"/>
</svg>
