<svg xmlns="http://www.w3.org/2000/svg" width="40" height="35" viewBox="0 0 40 35">
  <path id="Trazado_17266" data-name="Trazado 17266" d="M39.375,23.75a1.871,1.871,0,0,1,1.875,1.875v3.75a1.871,1.871,0,0,1-1.875,1.875h-3.75a1.871,1.871,0,0,1-1.875-1.875v-3.75a1.871,1.871,0,0,1,1.875-1.875Zm-.625,5v-2.5h-2.5v2.5Zm5-3.125a1.871,1.871,0,0,1,1.875-1.875h3.75a1.871,1.871,0,0,1,1.875,1.875v3.75a1.871,1.871,0,0,1-1.875,1.875h-3.75a1.871,1.871,0,0,1-1.875-1.875Zm2.5,3.125h2.5v-2.5h-2.5Zm13.125-5a1.871,1.871,0,0,1,1.875,1.875v3.75a1.871,1.871,0,0,1-1.875,1.875h-3.75a1.871,1.871,0,0,1-1.875-1.875v-3.75a1.871,1.871,0,0,1,1.875-1.875Zm-.625,2.5h-2.5v2.5h2.5ZM36.25,2.5A3.75,3.75,0,0,1,40,6.25v9.328l8.891-5.922A3.122,3.122,0,0,1,53.75,12.25v3.961l8.8-6.336A3.124,3.124,0,0,1,67.5,12.414V32.5a5,5,0,0,1-5,5h-30a5,5,0,0,1-5-5V6.25A3.75,3.75,0,0,1,31.25,2.5ZM30,32.5A2.5,2.5,0,0,0,32.5,35h30A2.5,2.5,0,0,0,65,32.5V12.414a.625.625,0,0,0-.992-.508L53.227,19.664a1.114,1.114,0,0,1-1.3.031,1.093,1.093,0,0,1-.68-1.047v-6.4a.622.622,0,0,0-.969-.516L39.445,18.953a1.245,1.245,0,0,1-1.281.063,1.231,1.231,0,0,1-.664-1.1V6.25A1.252,1.252,0,0,0,36.25,5h-5A1.25,1.25,0,0,0,30,6.25Z" transform="translate(-27.5 -2.5)" fill="#fa8d2d"/>
</svg>
