<svg xmlns="http://www.w3.org/2000/svg" width="49.997" height="40" viewBox="0 0 49.997 40">
  <path id="Trazado_17268" data-name="Trazado 17268" d="M34.3,16.094A4.9,4.9,0,0,0,37.832,13a1.253,1.253,0,0,0-2.3-.986,2.527,2.527,0,0,1-1.66,1.621,2.516,2.516,0,0,1-2.117-.953,1.249,1.249,0,1,0-1.827,1.7A4.994,4.994,0,0,0,34.3,16.094ZM49,17.727a2.534,2.534,0,0,1,2.129-.957,2.566,2.566,0,0,1,1.66,1.621,1.166,1.166,0,0,0,1.57.654,1.256,1.256,0,0,0,.664-1.641,4.471,4.471,0,0,0-7.836-1.389,1.239,1.239,0,0,0,.063,1.758A1.222,1.222,0,0,0,49,17.727ZM35.031,25.391a7.226,7.226,0,0,1,2.9-2.062c.005-.03,0-.062.009-.092l.477-2.715a10.59,10.59,0,0,0-5.327,3.3,1.25,1.25,0,1,0,1.944,1.572Zm27.617-9.133a4.846,4.846,0,0,0-4.384,1.709,1.25,1.25,0,1,0,1.826,1.709,2.06,2.06,0,0,1,3.779.664,1.253,1.253,0,0,0,2.3-.986A4.911,4.911,0,0,0,62.648,16.258Zm.438,8.648A11.494,11.494,0,0,1,55.2,26.048a11.6,11.6,0,0,1-7.011-3.77,1.256,1.256,0,0,0-2.227.684,9.566,9.566,0,0,0,7.984,10.18c1.65.293,8.914.508,10.984-6.836A1.267,1.267,0,0,0,63.086,24.906Zm-8.7,5.766a7.178,7.178,0,0,1-5.5-4.453A16.167,16.167,0,0,0,61.07,28.367,7.16,7.16,0,0,1,54.391,30.672Zm-26.87-7.133L25.05,9.484a2.681,2.681,0,0,1,1.26-2.834,32.865,32.865,0,0,1,20.633-3.8,38.143,38.143,0,0,1,4.138-.385A4.933,4.933,0,0,0,47.905.448a35.369,35.369,0,0,0-22.8,4.01A5.166,5.166,0,0,0,22.58,9.891l2.48,14.078c1.113,6.309,10.656,11.125,15.977,11.125a7.154,7.154,0,0,0,.88-.054,23.161,23.161,0,0,1-1.758-2.5C35.555,32.07,28.327,28.07,27.521,23.539ZM69.906,9.453A35.588,35.588,0,0,0,47.095,5.439a5.186,5.186,0,0,0-4.22,4.178L40.391,23.711c-.537,3.018.884,6.789,3.891,10.328.852.992,5.3,5.961,9.688,5.961,5.505,0,14.836-4.77,15.969-11.1l2.48-14.023A5.182,5.182,0,0,0,69.906,9.453Zm.055,4.93L67.48,28.406c-.789,4.81-9.023,9.039-13.445,9.039-2.977,0-6.787-3.924-7.773-5.083-2.491-2.93-3.73-6.027-3.33-8.273L45.4,10.066a2.687,2.687,0,0,1,2.158-2.22,32.922,32.922,0,0,1,21.2,3.729A2.984,2.984,0,0,1,69.961,14.383Z" transform="translate(-22.5)" fill="#fa8d2d"/>
</svg>
