<svg xmlns="http://www.w3.org/2000/svg" width="40" height="35" viewBox="0 0 40 35">
  <path id="Trazado_17272" data-name="Trazado 17272" d="M30,31.25A3.75,3.75,0,0,0,33.75,35h32.5a1.25,1.25,0,0,1,0,2.5H33.75a6.249,6.249,0,0,1-6.25-6.25V3.75a1.25,1.25,0,1,1,2.5,0v27.5ZM53.75,10h10A1.254,1.254,0,0,1,65,11.25v10a1.25,1.25,0,0,1-2.5,0V14.266l-9.117,9.117a1.24,1.24,0,0,1-1.766,0L44.93,16.766l-7.8,7.867a1.248,1.248,0,0,1-1.766-1.766l8.75-8.75a1.24,1.24,0,0,1,1.766,0L52.5,20.734,60.734,12.5H53.75a1.25,1.25,0,0,1,0-2.5Z" transform="translate(-27.5 -2.5)" fill="#fa8d2d"/>
</svg>
