<svg xmlns="http://www.w3.org/2000/svg" width="38.75" height="32.5" viewBox="0 0 38.75 32.5">
  <path id="Trazado_17291" data-name="Trazado 17291" d="M28.75,5.625A1.875,1.875,0,0,1,30.625,3.75h3.75A1.873,1.873,0,0,1,36.25,5.625v3.75a1.871,1.871,0,0,1-1.875,1.875h-3.75A1.873,1.873,0,0,1,28.75,9.375Zm5,3.125V6.25h-2.5v2.5Zm32.5-2.5a1.25,1.25,0,0,1,0,2.5h-25a1.25,1.25,0,0,1,0-2.5Zm0,12.5a1.25,1.25,0,0,1,0,2.5h-25a1.25,1.25,0,0,1,0-2.5Zm0,12.5a1.25,1.25,0,0,1,0,2.5h-25a1.25,1.25,0,0,1,0-2.5Zm-31.875-15a1.871,1.871,0,0,1,1.875,1.875v3.75a1.871,1.871,0,0,1-1.875,1.875h-3.75a1.873,1.873,0,0,1-1.875-1.875v-3.75a1.873,1.873,0,0,1,1.875-1.875Zm-3.125,2.5v2.5h2.5v-2.5Zm-2.5,11.875a1.873,1.873,0,0,1,1.875-1.875h3.75a1.871,1.871,0,0,1,1.875,1.875v3.75a1.871,1.871,0,0,1-1.875,1.875h-3.75a1.873,1.873,0,0,1-1.875-1.875Zm5,3.125v-2.5h-2.5v2.5Z" transform="translate(-28.75 -3.75)" fill="#fa8d2d"/>
</svg>
