<svg xmlns="http://www.w3.org/2000/svg" width="45.001" height="36" viewBox="0 0 45.001 36">
  <path id="Trazado_17249" data-name="Trazado 17249" d="M-6-13.563h-6A1.556,1.556,0,0,0-13.5-12v5.995A1.5,1.5,0,0,0-12-4.5h6a1.508,1.508,0,0,0,1.5-1.5V-12A1.555,1.555,0,0,0-6-13.563Zm-.745,6.75H-11.25V-11.25h4.5Zm-.6-17.3a2.5,2.5,0,0,0-1.716-.64,2.194,2.194,0,0,0-1.589.64l-10.642,9.675A3.678,3.678,0,0,0-22.5-11.714V0A4.5,4.5,0,0,0-18,4.5H-.063A4.535,4.535,0,0,0,4.437.007L4.5-11.728a3.657,3.657,0,0,0-1.2-2.7L-7.348-24.11ZM2.187,0A2.257,2.257,0,0,1-.063,2.25H-18A2.25,2.25,0,0,1-20.25,0V-11.714a1.432,1.432,0,0,1,.469-1.06l10.718-9.79L1.723-12.832a1.5,1.5,0,0,1,.527,1.118ZM21.67-1.083l-4.31-4.98A3.146,3.146,0,0,0,20.1-7.856a3.03,3.03,0,0,0-.441-3.262l-4.675-5.5H15.5a2.781,2.781,0,0,0,2.569-1.619,2.5,2.5,0,0,0-.466-2.73l-8.89-9.66a2.976,2.976,0,0,0-4.2-.007L-.83-24.827a1.138,1.138,0,0,0,.07,1.6A1.126,1.126,0,0,0,.831-23.3l5.345-5.817a.653.653,0,0,1,.879.007l8.895,9.661a.254.254,0,0,1,.064.3.523.523,0,0,1-.51.275h-2.95a1.125,1.125,0,0,0-1.022.653,1.131,1.131,0,0,0,.165,1.2l6.251,7.355a.784.784,0,0,1,.119.856.855.855,0,0,1-.791.491H14.9a1.126,1.126,0,0,0-1.024.658,1.13,1.13,0,0,0,.173,1.206L19.975.391a1.124,1.124,0,0,1,.167,1.221,1.029,1.029,0,0,1-.956.634H7.88a1.126,1.126,0,0,0,0,2.253H19.186a3.273,3.273,0,0,0,3-1.951A3.361,3.361,0,0,0,21.67-1.083Z" transform="translate(22.5 31.5)" fill="#fa8d2d"/>
</svg>
