<svg xmlns="http://www.w3.org/2000/svg" width="36" height="36" viewBox="0 0 36 36">
  <path id="Trazado_17272" data-name="Trazado 17272" d="M16.889-22.1A2.333,2.333,0,0,1,18-20.194,2.2,2.2,0,0,1,15.806-18H-15.809A2.194,2.194,0,0,1-18-20.194,2.2,2.2,0,0,1-16.889-22.1L-.555-31.354a1.126,1.126,0,0,1,1.111,0ZM-15.585-20.25H15.588L0-29.082ZM-13.5-6.75v-9h2.25v9h5.625v-9h2.25v9h6.75v-9h2.25v9H11.25v-9H13.5v9a1.128,1.128,0,0,1,1.125,1.125A1.128,1.128,0,0,1,13.5-4.5h-27a1.126,1.126,0,0,1-1.125-1.125A1.126,1.126,0,0,1-13.5-6.75Zm-2.813,5.625A1.126,1.126,0,0,1-15.188-2.25H15.188a1.128,1.128,0,0,1,1.125,1.125A1.128,1.128,0,0,1,15.188,0H-15.188A1.126,1.126,0,0,1-16.313-1.125ZM-18,3.375A1.127,1.127,0,0,1-16.875,2.25h33.75a1.125,1.125,0,0,1,0,2.25h-33.75A1.127,1.127,0,0,1-18,3.375Z" transform="translate(18 31.5)" fill="#fa8d2d"/>
</svg>
