<svg xmlns="http://www.w3.org/2000/svg" width="42.739" height="38" viewBox="0 0 42.739 38">
  <path id="Trazado_17258" data-name="Trazado 17258" d="M20.588.047a1.19,1.19,0,0,1,1.573,0L42.349,17.859a1.132,1.132,0,0,1,.037,1.677,1.058,1.058,0,0,1-1.611.037L38,17.125V31.813a5.936,5.936,0,0,1-5.937,5.938H10.688A5.937,5.937,0,0,1,4.75,31.813V17.125L1.973,19.574A1.134,1.134,0,0,1,.3,19.537a1.184,1.184,0,0,1,.1-1.677ZM7.125,15.091V31.813a3.563,3.563,0,0,0,3.563,3.563H32.063a3.563,3.563,0,0,0,3.563-3.562V15.091L21.375,2.521Z" transform="translate(0 0.25)" fill="#fa8d2d"/>
</svg>
