<svg xmlns="http://www.w3.org/2000/svg" width="31.436" height="36" viewBox="0 0 31.436 36">
  <path id="Trazado_17244" data-name="Trazado 17244" d="M15.687,2.067A11.379,11.379,0,0,0,7.748-9.12a2.263,2.263,0,0,0-1.6.661L0-2.25-6.206-8.456a2.265,2.265,0,0,0-1.605-.661A11.379,11.379,0,0,0-15.749,2.07,2.413,2.413,0,0,0-13.313,4.5H13.31a2.369,2.369,0,0,0,2.377-2.433ZM13.31,2.25H-13.313a.188.188,0,0,1-.187-.19A9.858,9.858,0,0,1-7.808-6.877L-1.59-.659A2.231,2.231,0,0,0,0,0,2.242,2.242,0,0,0,1.591-.659L7.809-6.877A9.869,9.869,0,0,1,13.5,2.06.189.189,0,0,1,13.31,2.25ZM1.688-26.437H1.125V-27A1.124,1.124,0,0,0,0-28.125,1.125,1.125,0,0,0-1.125-27v.563h-.562a1.124,1.124,0,0,0-1.125,1.125,1.124,1.124,0,0,0,1.125,1.125h.563v.563A1.128,1.128,0,0,0,0-22.5a1.126,1.126,0,0,0,1.125-1.125v-.562h.563a1.124,1.124,0,0,0,1.125-1.125A1.126,1.126,0,0,0,1.688-26.437ZM0-10.125a9.027,9.027,0,0,0,9-9v-7.743a2.244,2.244,0,0,0-1.459-2.109L1.582-31.21A4.453,4.453,0,0,0,0-31.5a4.481,4.481,0,0,0-1.582.29l-5.955,2.233A2.247,2.247,0,0,0-9-26.868v7.743A9.026,9.026,0,0,0,0-10.125ZM-6.813-26.871l5.967-2.235A2.835,2.835,0,0,1,0-29.25a2.221,2.221,0,0,1,.792.147L6.75-26.868v5.493H-6.813v-5.5ZM6.715-19.125A6.739,6.739,0,0,1,0-12.375a6.739,6.739,0,0,1-6.714-6.75Z" transform="translate(15.749 31.5)" fill="#fa8d2d"/>
</svg>
