<svg xmlns="http://www.w3.org/2000/svg" width="45" height="28.125" viewBox="0 0 45 28.125">
  <path id="Trazado_17238" data-name="Trazado 17238" d="M22.5-3.375A1.124,1.124,0,0,1,21.375-2.25H18A3.369,3.369,0,0,1,14.832-4.5H12.6a3.174,3.174,0,0,1-.47.9l-.639.791a3.271,3.271,0,0,1-4.037.842L6.033-.209A3.623,3.623,0,0,1,.949.312L.521-.059A5.386,5.386,0,0,1-2.308,1.1a5.009,5.009,0,0,1-.568.028,5.365,5.365,0,0,1-3.4-1.213L-11.988-4.5h-2.841A3.378,3.378,0,0,1-18-2.25h-2.25a1.124,1.124,0,0,1-1.125-1.125A1.125,1.125,0,0,1-20.25-4.5l2.25,0a1.123,1.123,0,0,0,1.125-1.121V-20.25h-4.5A1.126,1.126,0,0,1-22.5-21.375,1.126,1.126,0,0,1-21.375-22.5H-13.3a15.533,15.533,0,0,1,8.634-4.343,1.116,1.116,0,0,1,1.274.951,1.126,1.126,0,0,1-.951,1.275A13.31,13.31,0,0,0-12-20.609l-.33.345-2.292.014v13.5h3.4l6.349,4.9a3.165,3.165,0,0,0,2.334.707A3.116,3.116,0,0,0-.423-2.287l.742-.74.887.584L2.4-1.406A1.362,1.362,0,0,0,4.288-1.63L7.1-5.093,8.336-4.058a1.017,1.017,0,0,0,1.408-.163l.639-.791a1.014,1.014,0,0,0-.148-1.42l-7.629-6.2a1.127,1.127,0,0,1-.164-1.583,1.126,1.126,0,0,1,1.583-.164l7.629,6.2a3.168,3.168,0,0,1,.951,1.426h2.02v-13.5H12.353l-.331-.337A13.52,13.52,0,0,0,2.5-24.75H1.929a1.012,1.012,0,0,0-.687.276l-6.557,6.137a1.613,1.613,0,0,0-.091,2.25,1.815,1.815,0,0,0,1.132.513,1.451,1.451,0,0,0,1.028-.4l.045.049c.579-.64,1.972-1.934,5.318-5.041a1.126,1.126,0,0,1,1.59.058,1.125,1.125,0,0,1-.058,1.59l-5.378,5a3.643,3.643,0,0,1-2.475.991c-.06,0-.121,0-.182,0a3.971,3.971,0,0,1-2.686-1.254,3.837,3.837,0,0,1,.122-5.3l.026-.029,6.642-6.211A3.259,3.259,0,0,1,1.927-27H2.5a15.737,15.737,0,0,1,10.786,4.5h8.088A1.128,1.128,0,0,1,22.5-21.375a1.128,1.128,0,0,1-1.125,1.125h-4.5V-5.625A1.116,1.116,0,0,0,17.937-4.5h3.438A1.128,1.128,0,0,1,22.5-3.375Z" transform="translate(22.5 27)" fill="#fa8d2d"/>
</svg>
