<?xml version="1.0" encoding="UTF-8"?>
<svg id="Layer_1" data-name="Layer 1" xmlns="http://www.w3.org/2000/svg" viewBox="0 0 512 512">
  <path d="M361.87,262.48c-8.58,5.95-16.53,11.09-24.06,16.78-12.39,9.36-14.11,22.59-12.4,36.79,.68,5.6,2.04,11.14,2.4,16.75,.29,4.58,.48,9.52-.87,13.8-7.13,22.6-21.63,38.74-44.33,46.39-14.53,4.89-26.51-1.48-30.72-16.19-2.21-7.72-3.15-15.97-3.52-24.03-.77-16.93-.78-33.9-1.1-50.86,0-.5-.02-1-.05-1.5-.96-13.59-3.03-14.84-16.32-13.1-12.15,1.59-24.52,3.46-36.65,2.73-19.57-1.17-32.24-14.09-35.99-33.54-3.38-17.51,2.88-31.91,14.13-44.79,3.06-3.5,6-7.1,8.3-9.83-8.41-2.32-18.64-4.36-28.25-8.02-9.57-3.65-18.51-8.93-28.35-13.81-14.33,11.36-26.16,25.87-36.15,42.18-5.7,9.31-8.23,17.21-.17,26.9,5.53,6.64,8.79,15.18,12.96,22.93,2.42,4.5,5.91,7.31,10.93,8.68,4.78,1.31,9.53,3,14.02,5.09,11.19,5.21,15.29,14.03,11.68,25.76-2.04,6.62-4.96,12.99-7.7,19.38-2.22,5.18-4.67,10.27-7.2,15.32-3.65,7.27-3.89,13.75,.53,21.41,7.98,13.83,10.53,29.2,8.64,45.23-.17,1.46,1.08,3.85,2.37,4.6,8.47,4.91,17.07,9.61,25.76,14.12,5.33,2.76,7.11,5.65,5.32,10-1.79,4.36-5.46,5.59-10.87,3.17-52.96-23.74-86.52-63.71-96.73-120.83-10.64-59.53,8.11-110.03,52.67-150.98,.73-.67,1.5-1.3,2.61-2.26-2.07-1.86-3.89-3.48-5.7-5.12-24.8-22.35-43.78-49.04-58.92-78.6-2-3.9-1.68-7.46,1.7-10.34,32.59-27.71,68.22-49.71,111-57.98,38.73-7.48,72.72,3.05,103.02,27.34,1.3,1.04,2.61,2.07,3.86,3.17,3.82,3.37,4.24,6.93,1.27,10.41-2.96,3.47-6.15,3.43-10.56,.49-10.07-6.72-19.92-13.9-30.53-19.66-12.24-6.65-25.82-9.42-40.64-9.87,1.03,1.68,1.65,2.88,2.45,3.97,18.4,25.07,36.77,50.17,55.34,75.12,1.48,1.98,4.23,3.69,6.66,4.19,19.49,4.03,39.04,7.74,59.62,10.58-7.84-11.24-15.67-22.47-23.52-33.7-.67-.95-1.5-1.79-2.16-2.75-2.6-3.78-2.16-7.64,1.11-10.15,3.28-2.51,7.35-2.09,10.14,1.42,4.14,5.21,8.36,10.4,11.97,15.96,6.33,9.75,12.2,19.79,18.31,29.68,1.03,1.66,2.07,3.47,3.54,4.69,11.73,9.77,23.56,19.42,34.61,28.49-.61-6.67-1.7-14.72-2.03-22.81-1.21-29.62,11-53.13,33.68-71.56,19.68-15.99,42.41-25.92,66.72-32.57,3.98-1.09,6.96,.34,8.87,3.73,11.41,20.29,19.99,41.69,22.39,64.94,1.11,10.78,1.03,21.99-.56,32.7-3.57,24.12-18.14,41.59-37.13,55.76-15.07,11.24-31.9,19.06-49.65,25.05-1.57,.53-3.13,1.08-4.68,1.66-.28,.11-.48,.43-.54,.48,3.32,10.7,7.13,21.12,9.8,31.83,19.45,77.96-9.83,159.83-74.42,208.08-37.71,28.17-80.31,41.94-127.35,40.12-99-3.84-173.06-74.8-190.24-161.42-4.48-22.56-4.98-45.19-1.72-67.92,1.01-7.05,3.26-9.56,8.07-9.21,4.69,.34,7.05,3.35,6.59,8.66-.67,7.77-1.73,15.52-2.11,23.31-3.53,72,39.55,143.19,104.84,173.89,30.82,14.49,63.21,20.78,97.01,17.85,85.84-7.45,153.57-71.13,167.36-151.04,12.76-73.95-11.51-134.61-69.38-182.14-1.52-1.25-3.19-2.32-4.92-3.57-3.34,2.69-6.41,5.22-9.54,7.67-3.14,2.46-6.35,4.83-10.03,7.62,1.62,1.2,3,2.25,4.41,3.27,36.98,26.71,60.01,62.43,67.08,107.41,13.84,88-44.52,167.18-127.99,184.13-16.13,3.28-32.32,4.11-48.67,2.75-5.57-.46-8.41-3.36-7.92-8.11,.47-4.62,3.85-6.69,9.51-6.17,74.32,6.87,141.2-41.27,158.49-111.91,5.42-22.14,5.6-44.37,.64-68.08Zm-3.79-13.78c-11.34-32.86-31.53-58.81-60.56-78.03-3.25-2.15-5.54-2.16-8.86-.09-22.6,14.1-46.64,24.72-73.12,29.25-2.73,.47-5.65,.89-8.01,2.19-3.9,2.17-7.44,5.01-11.09,7.62-8.76,6.26-16.58,13.41-21.35,23.3-10.66,22.12,3.07,44.19,27.41,43.27,11.42-.43,22.76-2.74,34.16-3.93,12.48-1.3,19.2,3.05,22.39,15.27,1.75,6.68,2.69,13.71,2.94,20.62,.48,13.29-.12,26.62,.38,39.91,.31,8.08,1.28,16.24,2.99,24.14,1.59,7.36,6.34,9.37,13.69,7.09,1.74-.54,3.45-1.21,5.09-2,22.09-10.66,32.19-30.53,27.64-55.17-4.75-25.76,2.73-46.21,25.36-60.42,6.88-4.32,13.8-8.58,20.93-13Zm-190.52-65.03c12.86,4.59,33.13,4.93,50.24,1.23,33.38-7.22,62.16-23.63,88.95-44.07,.3-.23,.39-.71,.75-1.4-19.16-3.71-38.09-7.19-56.91-11.15-4.38-.92-7.46-.11-10.92,2.48-14.36,10.77-28.92,21.28-43.41,31.88-9.47,6.94-18.94,13.88-28.7,21.03Zm-50.25,220.1c.08-1.12,.23-2.03,.2-2.94-.37-11.01-3.43-21.27-9.25-30.59-4.11-6.57-4.9-13.33-2.22-20.44,2.39-6.34,5.14-12.56,7.78-18.81,3.28-7.78,6.71-15.5,9.88-23.32,1.65-4.06,.25-7.21-3.88-8.82-4.32-1.69-8.65-3.39-13.1-4.68-7.75-2.26-13.63-6.71-17.6-13.71-2.62-4.62-5.27-9.22-7.85-13.86-2.07-3.73-4.06-7.51-6.27-11.62-18.45,41.32,4.9,123.16,42.3,148.78Zm-4.04-251.81c10.54,9.74,21.48,17.72,33.59,24.18,3.19,1.7,5.32,1.16,8.02-.84,17.1-12.65,34.31-25.15,51.47-37.71,6.08-4.45,12.13-8.95,18.39-13.57-.83-.48-1.09-.73-1.4-.8-17.89-3.57-35.78-7.15-53.7-10.58-1.27-.24-3.01,.33-4.1,1.12-17.34,12.58-34.61,25.27-52.27,38.2Zm17.48-110.68c.83,1.88,.95,2.36,1.22,2.73,12.76,17.41,25.46,34.87,38.41,52.14,1.28,1.71,4.01,2.76,6.26,3.27,8.09,1.81,16.25,3.27,24.4,4.82,8.1,1.55,16.21,3.05,24.48,4.61-.1-.85-.03-1.25-.2-1.48-18.05-24.65-36.08-49.31-54.26-73.87-.73-.99-2.91-1.7-4.14-1.41-11.88,2.87-23.71,5.98-36.17,9.19ZM481.04,126.37c-17.55,7.21-34.6,14.13-51.54,21.3-1.52,.64-2.74,2.73-3.46,4.41-5.95,13.85-11.76,27.75-17.59,41.65-.54,1.29-.88,2.67-1.53,4.68,19.12-6.93,36.24-15.76,50.79-29.02,12.52-11.4,21.01-25.08,23.33-43.03Zm-88.22,66.76c.41-.6,.89-1.09,1.14-1.69,6.11-14.53,12.24-29.04,18.18-43.63,.59-1.45,.38-3.58-.23-5.09-6.69-16.44-13.53-32.81-20.34-49.2-.26-.64-.66-1.22-1.08-1.98-19.77,24.12-15.35,66,2.33,101.59ZM67.55,92.78c10.55,18.3,21.92,34.38,35.63,48.84,15.09-11.05,29.67-21.73,45.22-33.12-27.34-5.32-53.56-10.41-80.86-15.72ZM453.57,49.14c-17.14,6.24-32.28,13.6-45.72,24.17-6.92,5.44-6.91,5.48-3.6,13.47,5.41,13.05,10.84,26.1,16.69,40.17,11.01-26.25,21.57-51.45,32.63-77.81ZM151.25,94.46c-11.8-16.05-22.77-30.98-33.85-46.04-16.81,8.39-32.24,18.08-47.43,30.26,27.44,5.33,53.75,10.44,81.28,15.79Zm284.04,35.29c12.08-5,22.9-9.48,33.73-13.95,13.12-5.42,13.36-5.46,11.14-19.2-2.3-14.27-6.84-27.89-13.48-41.7-10.47,24.97-20.63,49.19-31.39,74.85Z"/>
</svg>