<?xml version="1.0" encoding="UTF-8"?>
<svg id="Layer_1" data-name="Layer 1" xmlns="http://www.w3.org/2000/svg" viewBox="0 0 512 512">
  <path d="M248,511.51c-13.87-3.07-26.3-8.99-36.91-18.55-13.28-11.96-23.61-26.25-31.68-42-6.18-12.07-11.29-24.73-16.28-37.36-1.68-4.25-3.64-5.79-7.93-4.89-2.44,.51-4.93,.74-7.15,1.06-2.59,5.61-4.43,11.58-7.8,16.52-10.45,15.33-25.31,21.87-43.62,18.47-18.3-3.4-30.67-14.85-33.85-32.88-1.69-9.61-5.81-13.92-13.56-18.5-24.6-14.54-34.37-41.58-26.68-70.99,5.38-20.59,15.98-38.52,28.9-55.21,2.84-3.67,5.69-7.32,8.32-10.71-7.39-10.56-15.06-20.61-21.74-31.27-8.41-13.43-14.89-27.83-17.03-43.74-4.16-30.8,8.91-54.83,37.15-68.04,13.98-6.54,28.89-9.7,44.24-11.12,17.83-1.66,35.58-1.15,53.34,.96,2.37,.28,5.74,1.55,6.32-2.59,.59-4.19,5.78-7.77,.12-12.77-12.68-11.18-16.99-25.71-12.97-42.01,4.23-17.16,15.73-27.84,32.83-31.93,8.88-2.13,17.94-1.32,26.31,2.72,2.89,1.4,4.76,.99,7.1-.91,10.85-8.77,23.04-14.5,37.2-15.2,20.53-1.02,37.14,7.63,51.35,21.5,21.7,21.18,34.66,47.65,44.69,75.7,1.79,5,4.04,6.32,8.93,5.52,5.57-.92,11.24-1.32,16.88-1.74,5.56-.41,9.06,2.05,9.64,6.44,.64,4.83-1.97,8.01-7.89,8.76-6.58,.84-13.23,1.21-20.33,1.83,2.08,8.7,4.34,17.12,6.05,25.65,2.51,12.51,4.51,25.13,7.02,37.64,.43,2.13,1.92,4.5,3.64,5.85,16.33,12.86,32.98,25.32,49.18,38.33,6.84,5.49,12.83,12.02,20.03,18.86,6.63-9.5,13.43-18.47,19.35-27.97,6.6-10.59,11.28-22.07,14.04-34.38,5.21-23.28-4.38-43.69-25.75-54.33-13.17-6.55-27.23-9.45-41.69-10.97-1.48-.16-2.99-.27-4.42-.64-4.1-1.06-6.23-3.85-6.01-8,.21-3.87,3.8-7.1,7.96-6.75,24.71,2.09,48.63,6.93,67.61,24.43,15.23,14.04,21.05,31.96,18.5,52.4-2.93,23.44-14.19,43.3-27.76,62.04-3.7,5.11-7.71,9.99-11.47,14.83,7.31,10.42,15.07,20.4,21.64,31.11,10.61,17.3,18.5,35.74,18.05,56.61-.37,17.32-6.98,31.95-20.11,43.41-2.25,1.97-3.16,3.81-2.73,6.81,3.05,21.54-9.28,40.95-29.95,47.43-21.55,6.76-45.26-4.63-52.81-25.71-1.31-3.66-2.95-4.61-6.63-4.73-7.81-.25-15.63-.95-23.38-1.91-4.04-.5-5.9,.7-7.2,4.57-6.12,18.33-14.27,35.76-24.87,51.95-11.06,16.88-23.95,32.04-42.87,40.62-5.52,2.5-11.55,3.89-17.35,5.78h-16Zm111.11-255.65c-1.3-19.42-2.53-38.81-4.01-58.17-.13-1.74-1.53-4.01-3.02-4.94-29.47-18.51-60.33-34.3-92.82-46.83-1.91-.74-4.6-.74-6.51,0-28.4,11.01-55.4,24.83-81.9,39.83-10.21,5.78-14.76,12.12-15.5,24.33-2.11,34.93-2.28,69.71,1.57,104.49,.19,1.74,1.67,3.9,3.19,4.85,29.35,18.37,60.04,34.14,92.41,46.53,2.05,.79,4.93,.8,6.98,.02,32.36-12.42,63.06-28.18,92.39-46.57,1.6-1,3.08-3.45,3.23-5.34,1.49-19.37,2.7-38.75,3.99-58.2Zm-23.37,150.32c-1.52-.51-2.28-.86-3.09-1.01-25.36-4.72-50.03-11.93-74.35-20.46-1.78-.62-4.18-.16-6.11,.41-16.69,4.98-33.28,10.3-50.03,15.08-8.37,2.39-17.01,3.85-25.96,5.83,2.76,7,5.04,13.59,7.9,19.92,10.05,22.26,21.85,43.28,41.45,58.94,18.79,15.02,42.19,15.09,60.89-.06,25.36-20.53,37.96-48.93,49.28-78.66ZM156.21,118.43c-7.68-.62-14.62-1.39-21.58-1.69-24.45-1.04-48.58,.37-71.09,11.28-16.75,8.12-27.46,20.78-28.02,40.17-.34,11.62,2.7,22.6,7.3,33.21,6.85,15.8,16.59,29.7,27.64,42.84,.72-.44,1.21-.61,1.54-.95,20.78-21.23,43.83-39.7,68.45-56.29,1.28-.86,2.25-2.8,2.55-4.39,2.47-13.01,4.56-26.1,7.15-39.09,1.64-8.24,3.93-16.36,6.07-25.08Zm20.48-12.5c1.07,.33,1.99,.72,2.95,.9,25.34,4.73,49.99,11.95,74.28,20.49,1.76,.62,4.17,.07,6.09-.52,13.95-4.28,27.76-9.02,41.8-12.98,10.99-3.09,22.24-5.26,33.92-7.96-2.61-6.6-4.92-13.13-7.73-19.44-9.87-22.15-21.54-43.04-40.85-58.7-19.73-16.01-43.18-15.95-62.88,.6,11.96,16.33,13.91,33.73,2.84,50.97-11.08,17.25-27.95,22.37-47.71,18.74-.82,2.05-1.53,3.72-2.15,5.42-.27,.75-.36,1.57-.56,2.48ZM461.96,374.94c13.63-12.05,16.64-27.26,13.58-43.74-4.57-24.57-18.3-44.52-33.99-63.48-.73,.49-1.35,.78-1.79,1.23-20.66,21.16-43.68,39.44-68.12,56.04-1.38,.93-2.32,3.1-2.66,4.85-2.42,12.53-4.47,25.13-6.97,37.64-1.72,8.57-3.98,17.04-6.13,26.08,9.32,.71,18.33,1.4,27.39,2.09,3.72-20.11,14.57-33.33,34.22-37.74,18.02-4.04,32.63,2.54,44.46,17.02Zm-306.74,18.6c-4-20.84-8.06-41.12-11.65-61.48-.73-4.15-2.35-6.74-5.76-9.03-23.12-15.53-44.76-32.89-64.28-52.82-.88-.9-1.94-1.61-2.91-2.39-14.07,15.92-29.7,40.02-33.94,62.1-4.65,24.24,4.51,44.21,28.29,54.65,9.62-17.45,24.15-26.9,44.44-24.57,20.47,2.35,32.33,15.24,37.8,34.3,3.19-.3,5.81-.55,7.99-.75Zm-16.07-187.11c-20.8,14.74-40.54,30.84-58.18,49.64,18.1,18.81,37.53,35.2,58.18,49.38v-99.01Zm233.69,.52v98.55c20.74-14.42,40.29-30.71,57.93-49.23-9.01-11.7-46.82-43.71-57.93-49.33ZM219.01,56.24c.14-15.04-12.27-27.71-27.35-27.92-15.77-.22-28.58,12.11-28.67,27.6-.09,15.17,12.52,27.9,27.85,28.1,15.08,.2,28.03-12.58,28.17-27.77Zm235.3,343.89c.14-15.35-12.2-27.99-27.58-28.25-15.1-.26-27.9,12.43-28.03,27.79-.13,15.49,12.15,28,27.57,28.07,15.53,.08,27.9-12.1,28.04-27.61Zm-322,2.43c-.03-15.47-12.42-27.85-27.86-27.84-15.4,0-27.82,12.48-27.8,27.92,.02,15.34,12.69,28.07,27.88,28.01,15.26-.06,27.81-12.74,27.78-28.09ZM277.72,135.86c25.44,12.88,49.8,25.22,74.95,37.96-3.96-17.81-7.83-35.17-11.98-53.84-21.33,5.38-41.8,10.54-62.97,15.88Zm-43.73,240.33c-25.35-12.92-49.58-25.26-74.64-38.03,3.92,17.7,7.79,35.17,11.93,53.89,21.35-5.4,41.73-10.55,62.71-15.86Zm-74.59-202.35c25.08-12.78,49.4-25.17,73.59-37.49-19.81-6.47-40.24-12.1-61.94-15.39-3.97,18.01-7.79,35.36-11.65,52.89Zm193.46,163.51c-13.35,7.23-25.18,13.93-37.28,20.11-12.11,6.18-24.49,11.83-37.27,17.97,20.8,6.65,41.11,12.36,62.66,15.58,3.97-17.92,7.8-35.16,11.89-53.65Z"/>
  <path d="M178.51,256.09c.35-39.24,29.78-72.18,68.92-76.78,38.42-4.51,74.9,21.34,83.71,59.33,1.26,5.42-.44,9.17-4.72,10.44-4.61,1.37-8.38-.79-9.89-6.51-3.27-12.33-8.86-23.27-18.52-31.76-18.19-16-39.17-21.08-62.11-13.12-23.07,8-36.79,24.74-41.03,48.94-6.1,34.81,20.84,70.9,60.56,71.19,28.09,.2,52.46-18.09,59.86-44.61,.49-1.75,1.04-3.5,1.71-5.19,1.77-4.51,5.25-6.36,9.41-5.09,3.99,1.21,6.16,5.02,5.07,9.46-6.83,27.74-23.52,47.12-50.57,56.38-44.2,15.12-90.33-11.26-100.48-56.89-1.14-5.15-1.3-10.51-1.92-15.78Z"/>
</svg>