<?xml version="1.0" encoding="UTF-8"?>
<svg id="Layer_1" data-name="Layer 1" xmlns="http://www.w3.org/2000/svg" viewBox="0 0 512 512">
  <path d="M512,432.68v70.87c-2.67,2.66-5.33,5.32-8,7.99h-136c-5.61-2.59-8.78-6.71-8.75-13.15,.08-19.29-.25-38.58,.11-57.86,.42-22.79,16.06-37.7,38.86-37.71,4.59,0,9.17,0,13.92,0,0-6.14,.12-11.46-.09-16.77-.05-1.26-.93-2.69-1.83-3.67-5.11-5.58-10.34-11.04-15.15-16.14-59.86,66.19-132.11,82.6-216.24,49.31,0,25.4-.19,50.84,.1,76.27,.11,9.38-3.07,16.09-11.94,19.72h-30c-2.89-2.89-5.48-6.01-3.64-10.4,1.87-4.49,5.87-4.71,10.08-4.6,6.45,.16,12.9,.04,19.57,.04v-138.49h-44.87c0,2.16,0,3.96,0,5.76,0,14.47-.11,28.94,.05,43.41,.06,5.58-1.24,10.24-6.44,13.02-5.03,2.69-9.97,1.66-13.93-1.88-5.92-5.29-11.12-5.43-17.06-.03-3.93,3.57-8.87,4.59-13.91,1.9-5.17-2.75-6.72-7.41-6.7-12.96,.07-14.64,.02-29.27,.02-43.91,0-1.76,0-3.53,0-5.36H15.37v138.52c2.19,0,4,0,5.82,0,27.16,0,54.32,.05,81.48-.05,4.3-.01,8.1,.46,9.78,5.04,1.7,4.66-1.02,7.51-4.45,9.97H11c-3.67-3.66-7.33-7.32-11-10.98,0-48.91,0-97.82,0-146.73,3.8-8.78,10.64-11.7,19.98-11.57,25.16,.33,50.33,.11,75.49,.11,1.88,0,3.76,0,6.49,0-19.05-35.18-25.93-71.56-21.01-110.46h-5.93c-19.83,0-39.67-.21-59.49,.11C8.2,232.13,2.95,229.9,0,223.06,0,200.44,0,177.82,0,155.19c.31-.56,.77-1.08,.9-1.68,4.21-19.31,17.75-30.19,37.64-30.21,4.77,0,9.54,0,13.98,0,1.51-5.74-.19-9.11-4.43-12.44-8.99-7.05-14.05-16.69-15.19-28.16-.47-4.72-.64-9.46-.97-14.4-1.77,0-3.09,.01-4.4,0-9.07-.12-13.47-4.49-13.51-13.44-.02-4.99,0-9.98,0-14.97,0-4.57,1.97-8.22,5.99-10.16,2.6-1.25,5.71-1.45,9.14-2.24,.6-3.54,1.32-7.42,1.9-11.33C32.56,5.9,38.64,.5,48.87,.49c18.83-.02,37.66-.04,56.49,.01,7.94,.02,13.62,4.26,15.73,11.97,1,3.66,1.45,7.48,1.97,11.25,.41,2.98,1.41,4.55,4.93,4.7,6.9,.3,10.88,4.8,10.99,11.64,.08,5.49,.1,10.98,0,16.47-.12,6.82-4.73,11.44-11.62,11.75-2.09,.1-4.19,.01-6.09,.01-.27,1.03-.42,1.34-.43,1.66-.04,2.33-.02,4.66-.09,6.98-.39,14.04-5.36,26.11-16.67,34.69-4.49,3.41-4.55,6.92-3.72,11.32,.65,.16,.96,.3,1.28,.3,5,.03,10.03-.32,14.99,.16,4.74,.46,9.57,1.29,14.01,2.9,3.22,1.17,4.99,.66,7.39-1.5,31.18-28.15,68-43.21,109.82-45.18,41.47-1.96,79.2,9.64,112.89,34.01,1.15,.83,2.38,1.53,4.14,2.65,1.4-21.11,9.72-37.4,28.28-47-2.51-11.29-2.98-21.43,7.5-28.75,.81-.56,.95-2.87,.59-4.15-1.76-6.39-3.83-12.7-5.7-19.06-2.96-10.04,2.09-16.83,12.52-16.84,16.16-.02,32.33-.01,48.49,0,11.29,0,16.16,6.73,12.83,17.67-2.16,7.11-4.33,14.22-6.51,21.4,11.72,7.25,12.42,17.73,9.18,29.25,.3,.39,.45,.72,.71,.89,.83,.55,1.69,1.06,2.54,1.57,12.72,7.61,20.45,18.82,23.37,33.22,1.49,7.31,2.4,14.74,3.45,22.13,.8,5.62-1.32,9.03-5.85,9.79-4.79,.8-8.27-2.04-9.16-7.56-1.07-6.72-2.06-13.45-3.14-20.16-2.48-15.46-14.04-27.31-29.67-28.45-13.92-1.01-28.01-1.12-41.93-.22-16.77,1.09-28.08,11.61-30.97,28.18-4.56,26.15-8.37,52.42-12.67,78.61-.61,3.72,.55,4.77,4.04,4.73,8.83-.11,17.66-.03,26.49-.03,30.49,0,60.99,0,91.48,0,6.3,0,6.32-.03,5.41-5.92-.99-6.39-2.13-12.77-3.02-19.17-.76-5.48,1.92-9.4,6.54-10.01,4.06-.54,7.38,2.3,8.39,7.35,1.36,6.79,2.62,13.6,3.92,20.4v9.98c-4.36,10.04-12.24,13.2-22.82,12.95-19.14-.45-38.3-.13-57.45-.13h-5.67c6.74,24.38,8.58,48.49,5.24,73.11,1.39,.08,2.2,.16,3,.16,23.34,.08,41.21,14.72,44.79,37.82,1.36,8.78,.73,17.88,.8,26.84,.11,15.28-5.9,27.66-18.06,37.04-1.09,.84-2.51,2.16-2.56,3.31-.26,5.74-.12,11.5-.12,17.58,5.99,0,11.3-.04,16.61,0,15.94,.13,29.13,9.76,34.29,24.93,.57,1.67,1.29,3.29,1.95,4.93ZM145.98,138.03c5.78,10.6,6.95,14.87,6.96,24.98,0,18.29,.01,36.59,0,54.88,0,9.76-4.22,13.99-13.94,14-12.83,.02-25.66,0-38.49,.01-2.12,0-4.19-.45-4.58,2.94-4.26,37.2,2.54,72.06,22.06,104.18,1.02,1.67,3.82,3.14,5.83,3.19,12.49,.29,24.99,.06,37.48,.18,11.3,.11,17.48,6.46,17.53,17.79,.04,10.98,.17,21.96-.08,32.93-.08,3.36,1.09,5.01,3.99,6.45,28.92,14.34,59.38,20.05,91.48,16.34,46.25-5.34,83.15-27.03,111.55-63.7,4.41-5.69,6.93-11.44,6.08-18.69-.4-3.44-.1-6.98,0-10.47,.47-15.45,7.59-27.15,20.15-35.9,1.52-1.06,2.98-3.1,3.29-4.89,4.13-23.94,2.73-47.59-3.87-70.99-.94-3.34-2.28-4.47-5.77-4.4-11.49,.22-22.99,.23-34.49,.04-11.36-.18-19.5-9.14-17.93-19.9,2.21-15.1,4.42-30.22,7.43-45.17,1.23-6.15-.35-9.59-5.18-13.22-38.67-29.11-81.93-39.48-129.43-31.13-30.54,5.37-57.12,19.24-80.06,40.55Zm260.55,196.95c.14,0,.29,.02,.43,.03,0,4.15-.08,8.31,.01,12.46,.34,14.65,12.27,26.83,26.92,27.54,15.62,.76,28.94-9.8,30.16-24.87,.79-9.73,.75-19.61,.03-29.34-.99-13.47-12.46-24.22-25.49-25.02-15.03-.92-27.52,7.51-30.58,21.42-1.27,5.76-1.04,11.84-1.49,17.78Zm37.27,112.14v48.67h53.03c0-19.54,.27-38.8-.15-58.05-.14-6.44-3.3-12.1-9.13-15.89-8.9,7.45-17.82,14.68-26.45,22.24-5.09,4.45-10.33,6.54-17.29,3.02ZM108.78,216.17v-48.6H44.17v48.6H108.78Zm274.42,205.99c-5.56,4.88-8.32,10.32-8.36,17.03-.05,10.64-.04,21.28-.05,31.92,0,8.12,0,16.25,0,24.55h53v-49.48c-7,4.63-12.71,3.01-18.36-1.98-8.46-7.47-17.27-14.54-26.23-22.03ZM104.89,68.61H48.19c-1.68,13.68,.73,25.61,13.05,33.28,10.22,6.36,20.87,6.26,31.02-.29,12.04-7.77,14.19-19.57,12.63-32.99Zm-28.87,289.29v46.09c9.19-9.38,17.99-8.44,26.64-.21v-45.89h-26.64ZM29.25,52.81H123.72v-9.15H29.25v9.15ZM124.96,216.05h12.76c0-16.16,.04-31.93-.03-47.7-.02-4.15-.02-8.35-.69-12.42-1.16-7.05-5.07-12.22-12.04-15.64v75.76Zm-96.89,.11v-76.07c-2.18,1.49-3.89,2.42-5.33,3.68-5.7,4.99-7.34,11.61-7.33,18.86,.02,16.46,0,32.92,.02,49.38,0,1.3,.2,2.6,.33,4.15h12.31ZM454.24,15.62h-43.25c2.05,6.73,3.87,13.24,6.13,19.6,.41,1.15,2.63,2.32,4.04,2.36,7.64,.23,15.29,.26,22.93-.02,1.43-.05,3.59-1.54,4.07-2.86,2.21-6.03,3.95-12.23,6.07-19.07ZM108.27,28.2c-.5-3.72-.53-6.77-1.43-9.53-.44-1.35-2.5-3.07-3.84-3.09-17.66-.21-35.32-.17-52.98-.06-1.22,0-3.29,.9-3.5,1.74-.85,3.42-1.13,6.97-1.69,10.94,19.93,0,39.07,0,58.21,0,1.47,0,2.95,0,5.23,0Zm324.23,36.21c6.83,0,13.66-.1,20.49,.04,3.94,.08,5.27-1.77,5.25-5.48-.02-3.44-.62-5.84-4.85-5.81-13.83,.09-27.66,.08-41.48,0-4.03-.02-5.07,2.05-5.05,5.67,.02,3.64,1.16,5.67,5.14,5.61,6.83-.1,13.66-.03,20.49-.03ZM76.46,148.95c5.12-8.7,12.54-16.42,7.7-27.37h-15.09c-5.08,11.39,2.75,18.72,7.39,27.37Zm351.81,241.25c-2.73,11.75-1.41,15.85,6.71,21.21,10.82-4.03,9.56-12.76,8.74-21.21h-15.45ZM59.78,151.95c-4.43-12.81-7.28-15.09-15.57-12.7v12.7h15.57Zm49.19-13.1c-9.04-.95-12.66,2.23-15.51,12.95h15.51v-12.95ZM467.01,419.17c-8.17-.82-16.72-3.62-22.25,5.58,1.99,2.36,4.08,4.85,6.43,7.65,5.49-4.6,10.65-8.91,15.81-13.23Zm-41.3,5.5c-5.67-8.89-14.02-6.57-23.28-6.34,6.18,5.18,11.38,9.55,16.78,14.07,2.53-3.01,4.63-5.52,6.5-7.73Z"/>
  <path d="M433.55,91.82c2.73,2.85,4.77,4.97,6.8,7.09,1.45,1.52,2.73,3.22,4.36,4.51,1.8,1.43,4.07,2.29,5.85,3.75,3.46,2.85,4,6.8,1.68,10.18-2.26,3.3-6.22,4.04-10.2,2.24-2.96-1.34-6.04-2.78-9.19-3.18-1.45-.19-3.56,1.76-4.63,3.26-.36,.5,1.28,3.18,2.56,3.92,3.14,1.82,6.54,3.23,9.94,4.55,8.37,3.26,13.6,9.14,14.08,18.15,.49,9.03-3.82,15.84-11.4,20.77-1.7,1.11-3.31,2.99-4.02,4.87-1.35,3.57-3.68,5.69-7.31,5.75-3.63,.06-6.04-2.02-7.47-5.54-.63-1.54-2.26-2.86-3.73-3.82-2.2-1.45-4.83-2.26-6.98-3.77-3.56-2.52-4.7-5.97-2.53-10,1.98-3.68,6.15-4.56,10.4-2.91,3.32,1.29,6.84,2.39,10.35,2.78,3.72,.42,6.3-1.7,7.18-5.49,.93-4.02-1.55-5.56-4.75-6.92-4.58-1.94-9.27-3.81-13.44-6.45-11.28-7.12-11.32-23.55-.23-31.03,2.49-1.68,4.57-3.03,5.58-6.37,.69-2.26,4.01-3.73,7.1-6.36Z"/>
  <path d="M257.04,172.78c5.31,1.52,11.22,3.11,17.07,4.9,15.56,4.76,31.08,9.61,46.62,14.41,14.25,4.41,19.01,12,17.44,26.83-4.1,38.75-20.31,71.57-48.42,98.44-6.58,6.29-13.97,11.83-21.4,17.14-7.81,5.58-16.22,5.62-24.23,.15-40.03-27.32-63.24-65.08-69.85-112.98-.58-4.23-.77-8.7-.09-12.89,1.24-7.66,6.07-13.06,13.38-15.39,20.89-6.65,41.89-12.93,62.86-19.3,1.89-.57,3.88-.79,6.62-1.32Zm66.2,43.82c.27-7.32-.03-7.84-6.95-9.99-18.54-5.76-37.06-11.56-55.67-17.08-2.67-.79-5.98-.81-8.66-.02-17.18,5.05-34.28,10.38-51.39,15.69-12.36,3.83-12.59,3.92-10.7,16.89,6.15,42.02,26.96,75.02,61.79,99.31,3,2.09,5.76,2.28,8.71,.23,36.81-25.58,57.48-60.76,62.87-105.03Z"/>
  <path d="M263.88,272.07c0,5.64,.04,11.09-.01,16.54-.06,6.14-2.86,9.44-7.84,9.39-4.83-.05-7.4-3.07-7.53-9.15-.11-5.45-.02-10.91-.02-16.49-4.58-.83-8.86-1.28-12.96-2.39-20.19-5.48-32.88-25.38-29.42-45.87,.92-5.46,4.67-9.17,10.29-9.99,14.58-2.13,26.83,2.42,36.94,12.98,.9,.94,1.73,1.93,2.87,3.21,6.32-7.94,13.98-13.71,23.8-15.46,5.46-.97,11.23-1.04,16.76-.5,5.03,.49,8.17,4.06,9.24,9.16,4.55,21.69-11.42,44.39-33.41,47.45-2.63,.37-5.27,.67-8.7,1.11Zm27.01-42.81c-15.68-1.37-29.52,12.87-26.28,26.67,15.43,1.09,27.83-11.33,26.28-26.67Zm-42.97,26.59c1.62-15.47-12.37-29.1-26.65-26.31-1.51,14.96,11.17,27.65,26.65,26.31Z"/>
</svg>