<?xml version="1.0" encoding="UTF-8"?>
<svg id="Layer_1" data-name="Layer 1" xmlns="http://www.w3.org/2000/svg" viewBox="0 0 512 512">
  <path d="M0,192.11c13.79-13.7,27.13-27.89,41.47-40.98,17.47-15.94,38.04-19.43,59.74-9.95,21.54,9.4,32.62,26.87,33.31,50.18,.47,16.03-6.02,29.68-17.46,41.01-16.91,16.76-33.85,33.49-50.52,50.49-17.23,17.57-15.21,45.22,4.07,60.19,14.45,11.22,35.22,11.41,49.45-.37,6.09-5.04,10.94-11.55,16.61-17.68-2.97-1.71-6.62-3.84-10.29-5.91-8.26-4.65-16.57-9.21-24.8-13.91-12.21-6.97-14.05-19.5-4.26-29.44,9.11-9.25,18.31-18.43,27.57-27.52,9.76-9.58,22.45-7.88,29.24,3.94,6.85,11.93,13.53,23.95,20.6,36.51,7.14-7.11,14.01-13.82,20.68-20.72,1.04-1.07,1.22-3.02,1.66-4.61,22.21-79.66,44.4-159.33,66.64-238.99,.85-3.05,1.01-5.36-1.75-7.83-3.94-3.53-4.04-8.28-.99-11.43,3.27-3.37,8-3.65,11.35,.62,5.46,6.95,13.13,4.75,19.83,5.5,17.2,1.92,34.49,2.93,51.75,4.32,5.51,.44,8.92,3.84,8.54,8.39-.39,4.65-4.22,7.27-9.76,6.82-15.1-1.23-30.2-2.41-45.3-3.59-.76-.06-1.53,0-1.91,0,23.47,23.43,46.98,46.89,69.77,69.64,19.42-19.38,39.38-39.29,59.33-59.2-12.55-1.05-25.58-2.14-38.61-3.23-2.16-.18-4.34-.18-6.46-.55-4.92-.86-7.88-4.37-7.33-8.44,.57-4.23,4.22-7.08,9.04-6.73,8.63,.62,17.25,1.42,25.88,2.15,10.78,.91,21.55,1.94,32.35,2.67,8.98,.61,10.86,2.32,11.62,11.28,3.21,37.75,6.49,75.49,9.68,113.23,1.18,13.91,2.17,27.83,3.28,41.74,.34,4.27,.63,8.36,4.39,11.63,4.54,3.95,4.74,8.82,1.33,12.12-3.42,3.3-7.52,3.04-11.81-1.3-2.25-2.28-4.25-2.26-7.11-1.46-23.49,6.6-47.04,13.03-70.57,19.51-.8,.22-1.57,.54-2.38,.72-5.49,1.23-9.65-.84-10.69-5.3-1-4.26,1.57-7.97,6.75-9.43,9.75-2.75,19.53-5.37,29.29-8.08,11.84-3.28,23.67-6.6,35.5-9.92,1.08-.3,2.12-.74,2.88-1.01-25.52-25.46-50.95-50.83-75.93-75.76-44.63,44.55-89.76,89.6-134.66,134.41,17.97-4.97,36.51-10.08,55.03-15.22,16.96-4.7,33.9-9.47,50.86-14.15,5.98-1.65,10.06,.23,11.21,4.95,1.14,4.67-1.14,7.99-6.93,9.62-20.14,5.66-40.29,11.23-60.44,16.84-23.66,6.59-47.33,13.17-70.98,19.79-1.39,.39-2.99,.84-3.97,1.79-6.68,6.48-13.22,13.1-20.2,20.07,12.51,7,24.66,13.79,36.8,20.6,6.91,3.88,10.75,9.76,9.44,17.65-.64,3.83-2.61,8.01-5.26,10.84-9.2,9.85-18.88,19.26-28.52,28.69-9.24,9.03-22.11,7.16-28.64-4.13-6.15-10.64-12.07-21.41-18.1-32.12-.8-1.43-1.65-2.84-3.42-5.89-5.65,6.24-10.3,12.46-16,17.48-31,27.3-79.5,12.85-90.17-26.99-5.61-20.96-.11-39.44,15.22-54.86,17.02-17.12,34.36-33.93,51.14-51.28,19.81-20.48,12.69-54.26-13.75-64.89-16.14-6.49-31.18-3.45-43.8,8.62-12.15,11.62-23.85,23.71-35.77,35.57C8.9,204.66,5.17,204.45,0,198.1,0,196.1,0,194.11,0,192.11Zm218.5,51.3c45.26-45.17,90.17-90,134.52-134.27-25.08-25.04-50.58-50.5-76.04-75.91-19.39,69.69-38.92,139.86-58.48,210.17ZM437.16,50.4c-19.89,19.85-39.8,39.72-59,58.89,22.99,22.95,46.47,46.38,69.76,69.62-3.57-42.63-7.19-85.88-10.76-128.51ZM165.91,335.87c5.64,10.05,10.97,19.44,16.18,28.9,1.64,2.98,3.23,3.97,6.02,1.14,9.01-9.12,18.11-18.16,27.21-27.18,2.22-2.21,2.12-3.9-.67-5.46-9.72-5.41-19.43-10.85-29.53-16.5-2.64,10.05-8.8,16.47-19.21,19.1Zm-8.62-47.01c-5.59-9.96-11.07-19.92-16.77-29.76-1.55-2.68-3.55-1.51-5.29,.24-8.92,8.92-17.84,17.83-26.8,26.72-2.56,2.54-2.29,4.37,.94,6.14,9.16,5.01,18.24,10.18,27.36,15.25,.49,.27,1.16,.24,1.71,.34,3.43-10.36,6.57-13.53,18.85-18.91Zm4.32,32.03c4.49,.06,8.29-3.6,8.42-8.09,.13-4.64-3.86-8.71-8.46-8.62-4.46,.09-8.24,3.95-8.22,8.39,.02,4.47,3.78,8.26,8.25,8.32Z"/>
  <path d="M512,333.85c-2.43,5.21-4.17,10.9-7.42,15.54-7.01,10.02-17.27,15.09-29.43,15.19-30.3,.25-60.6,.27-90.9,.01-17.98-.16-32.08-13.58-34.03-31.55-1.74-16,9.61-31.63,26.02-36.14,1.66-.46,3.52-1.81,4.39-3.27,3.78-6.37,9.08-10.34,16.31-12.1,2.23-.54,4.56-1.9,6.18-3.54,24.18-24.52,64.18-19.51,81.58,10.2,1.22,2.08,3.38,3.99,5.55,5.09,10.54,5.34,17.52,13.48,20.69,24.86,.26,.94,.69,1.83,1.05,2.74v12.98Zm-82.34,15.48v-.03c14.99,0,29.98,.24,44.96-.08,12.29-.26,20.81-8.25,22.26-20.02,1.23-9.94-5.85-19.63-16.41-23.43-2.66-.95-5.78-3.23-6.81-5.68-11.08-26.57-46.47-30.05-62.88-7.76-1.64,2.23-5.45,3.69-8.4,3.97-4.83,.46-8.16,2.21-8.97,6.95-.96,5.63-4.05,7.58-9.55,7.96-9.73,.67-16.76,7.16-17.99,15.72-1.82,12.63,6.45,22.15,19.83,22.34,14.65,.21,29.31,.05,43.96,.05Z"/>
  <path d="M304.79,493.78c9.49,0,19,.31,28.48-.07,13.25-.53,24.74-10.87,26.73-23.44,2.3-14.51-5.1-28.06-18.62-32.56-5.7-1.9-8.93-4.93-11.55-10.35-14.72-30.51-56.69-35.04-77.7-8.51-3.13,3.95-6.18,6.41-11.62,5.95-5.29-.45-10.65,3.14-11.26,7.99-1,8-5.38,10.18-12.75,10.73-12.38,.94-21.81,11.27-22.51,23.4-.71,12.21,7.37,23.88,19.34,26.16,6.78,1.29,13.93,.71,20.91,.81,8.18,.12,11.65,2.28,11.73,7.59,.09,5.52-3.48,8.12-11.93,7.81-8.77-.32-17.79-.06-26.22-2.07-15.79-3.75-30.34-20.05-28.91-42.03,1.09-16.86,14.55-32.63,31.84-36.55,1.78-.4,3.95-1.77,4.76-3.31,4.77-9.06,11.87-14.47,22.16-15.76,1.57-.2,3.27-1.45,4.42-2.68,30.4-32.32,79.92-26.12,101.09,12.63,.93,1.69,2.77,3.27,4.56,4.05,20.32,8.81,31.11,28.59,27.14,50.1-3.7,20.07-22.03,35.28-43.55,35.61-18.65,.29-37.31,.1-55.97,.05-6.13-.02-9.47-2.96-9.36-7.92,.11-4.72,3.29-7.41,9.29-7.47,9.83-.1,19.66-.03,29.49-.03,0-.05,0-.1,0-.15Z"/>
</svg>