<svg xmlns="http://www.w3.org/2000/svg" width="40.002" height="40" viewBox="0 0 40.002 40">
  <path id="Trazado_17242" data-name="Trazado 17242" d="M44.086,15.047l-.538-.154c-2.626-.776-2.844-1.3-2.68-2.229.221-1.287,2.044-1.592,3.755-1.321a11.155,11.155,0,0,1,1.843.5,1.25,1.25,0,0,0,.818-2.363A13.08,13.08,0,0,0,45,8.875h0V7.5a1.25,1.25,0,0,0-2.5,0V8.821c-2.211.288-3.766,1.515-4.094,3.421-.616,3.565,2.8,4.568,4.441,5.049l.555.161c2.856.813,3.426,1.235,3.231,2.383-.219,1.289-2.039,1.594-3.758,1.32a14.7,14.7,0,0,1-2.477-.734l-.4-.141a1.186,1.186,0,0,0-1.594.758,1.251,1.251,0,0,0,.758,1.6l.383.138a15.926,15.926,0,0,0,2.947.855h0L42.5,25A1.25,1.25,0,0,0,45,25V23.688c2.215-.283,3.766-1.52,4.1-3.426C49.719,16.656,46.328,15.688,44.086,15.047Zm23.047,22.82L56.078,26.813a16.238,16.238,0,1,0-1.766,1.77L65.367,39.637A1.261,1.261,0,0,0,66.25,40a1.249,1.249,0,0,0,.883-2.133ZM43.75,30A13.75,13.75,0,1,1,57.5,16.25,13.725,13.725,0,0,1,43.75,30Z" transform="translate(-27.5)"/>
</svg>
