<svg xmlns="http://www.w3.org/2000/svg" width="50" height="40" viewBox="0 0 50 40">
  <path id="Trazado_17254" data-name="Trazado 17254" d="M43.961,23.75H36.039A13.539,13.539,0,0,0,22.5,37.289,2.708,2.708,0,0,0,25.208,40H54.789A2.707,2.707,0,0,0,57.5,37.289,13.54,13.54,0,0,0,43.961,23.75ZM54.789,37.5H25.208A.209.209,0,0,1,25,37.289,11.053,11.053,0,0,1,36.039,26.25h7.922A11.053,11.053,0,0,1,55,37.289.21.21,0,0,1,54.789,37.5ZM40,20A10,10,0,1,0,30,10,10,10,0,0,0,40,20ZM40,2.5A7.5,7.5,0,1,1,32.5,10,7.508,7.508,0,0,1,40,2.5ZM51.8,18.828A9.2,9.2,0,0,0,56.25,20,8.75,8.75,0,1,0,53.333,3a1.25,1.25,0,1,0,.835,2.356,6.251,6.251,0,1,1-1.041,11.31,1.247,1.247,0,0,0-1.708.455A1.289,1.289,0,0,0,51.8,18.828ZM60.836,25H57.5a1.25,1.25,0,0,0,0,2.5h3.334A9.173,9.173,0,0,1,70,36.664a.837.837,0,0,1-.836.836H61.25a1.25,1.25,0,0,0,0,2.5h7.914A3.334,3.334,0,0,0,72.5,36.664,11.635,11.635,0,0,0,60.836,25Z" transform="translate(-22.5)"/>
</svg>
