<?xml version="1.0" encoding="UTF-8"?>
<svg id="Layer_1" data-name="Layer 1" xmlns="http://www.w3.org/2000/svg" viewBox="0 0 512 512">
  <path d="M375.59,377.15c25.67,6.25,39.14,21.66,41.86,47.53,17.8-14.33,28.13-32.13,30.79-54.43,2.66-22.3-3.91-41.92-17.54-59.86,4.11-3.39,8.04-6.64,12.28-10.14,10.18,12.13,16.74,25.72,19.92,40.86,11.61,55.2-25.4,107.51-81.35,115.15-52.17,7.13-100.61-29.68-107.66-81.71-2.74-20.22,.61-39.31,9.78-57.5,.74-1.48,.79-4.44-.18-5.46-8.47-8.93-17.24-17.57-26.41-26.8-6.33,6.33-12.4,12.4-18.47,18.49-3.17,3.18-8.1,5.99-8.94,9.71-.8,3.53,2.67,8.04,4.31,12.1,6.87,17.05,8.71,34.62,5.57,53.56-5.17-.85-10.13-1.67-15.78-2.6,3.5-23.55-1.21-45.11-15.94-63.84-14.66-18.65-34.2-28.85-57.82-30.45-34.56-2.35-67.96,18.54-80.27,53-12.38,34.64,1.8,71.58,26.81,89.45,2.5-25.27,16.18-40.88,41.38-46.98-28.26-8.1-35.06-29.89-32.6-45.91,3.05-19.85,19.77-33.88,39.63-33.88,19.9,0,36.55,13.92,39.68,33.83,2.43,15.41-3.83,37.63-32.59,45.95,25.06,6.12,38.77,21.53,41.35,47.24,10.75-7.93,18.35-17.93,24.3-29.9,4.89,2.21,9.51,4.31,14.12,6.39-9.57,26.03-41.16,54.19-81.53,56.14-46.79,2.27-84.74-27.8-97.03-67.37-12.76-41.08,3.68-85.57,39.77-109.02,35.15-22.83,89.94-22.28,126.12,19,9.66-9.61,19.31-19.19,28.9-28.85,.6-.61,.9-1.77,.91-2.67,.08-6.14,.04-12.27,.04-18.41-44.47-6.86-74.42-30.66-85.39-74.4-8.2-32.68,.84-61.98,23.51-87.67,4.02,3.82,7.69,7.32,11.67,11.11-18.62,21.39-25.78,45.8-19.43,73.51,4.13,18.02,16.11,35.85,29.21,44.26,2.45-25.27,16.24-40.8,41.4-46.96-27.87-7.88-35.14-29.46-32.64-45.88,2.99-19.64,19.69-33.82,39.12-33.89,20.33-.07,37.02,13.7,40.19,33.81,2.49,15.77-4.19,37.82-32.62,45.95,25.07,6.13,38.8,21.53,41.31,46.56,24.78-15.42,42.98-59.03,22.92-98.56-20.18-39.77-72.79-58.58-117.39-29.24-2.98-4.22-5.99-8.47-8.99-12.72,25.03-19.27,65.8-24.82,99.86-6.83,34.42,18.17,55.47,56.88,51,94.29-2.73,22.88-11.87,42.72-28.39,58.96-16.38,16.1-36.27,24.86-59.35,27.36,0,6.42-.06,12.56,.05,18.69,.02,1.04,.47,2.34,1.18,3.07,9.4,9.61,18.88,19.14,28.37,28.72,40.31-46.41,102.82-40.91,135.45-12.43-3.28,4.01-6.57,8.04-9.86,12.06-46.08-35.24-101.1-14-121.28,23.3-21.46,39.68-4.56,83.8,21.86,101.17,.69-11.52,4.43-21.73,12.01-30.41,7.57-8.68,17.27-13.67,28.5-16.41-10.58-2.95-19.25-8.28-25.38-17.28-6.2-9.1-8.46-19.16-6.26-29.89,4.29-20.87,21.04-33.48,42.66-32.54,17.86,.78,34.31,16.21,36.48,34.63,2.22,18.91-8.12,38.58-33.21,45.06Zm-119.9-142.68c8.76-1.58,16.46-2.29,23.73-4.43,12.1-3.56,9.8-1.51,9.4-13.45-.41-12.37-6.49-21.89-17.73-27.46-10.85-5.38-21.7-4.6-31.75,2.06-11.43,7.57-14.86,18.92-14.44,32.03,.09,2.9,1.08,4.34,3.65,4.94,9.33,2.19,18.68,4.34,27.14,6.3Zm-78.68,194.38c-.06-25.54-21.32-41.64-43.19-33.49-13.73,5.12-20.84,17.1-20.92,34.57-.02,3.42,1.04,5.02,4.19,6.13,17.88,6.3,35.75,6.58,53.81,.69,4.57-1.49,7.58-3.34,6.11-7.91Zm190.77,13.25c8.84-1.63,16.51-2.41,23.8-4.53,12.02-3.49,9.64-1.67,9.27-13.06-.71-22.3-22.64-37.06-43.05-29.06-17.01,6.66-21.91,21.21-20.66,37.02,.09,1.12,1.87,2.73,3.14,3.05,9.44,2.42,18.95,4.57,27.5,6.58Zm-110.61-288.44c12.79-.05,23.91-11.24,23.79-23.95-.12-12.94-10.98-23.81-23.87-23.86-13.07-.06-24.26,11.21-24.04,24.19,.23,12.93,11.2,23.67,24.12,23.63Zm-112.01,159.78c-12.86-.11-23.9,10.7-24.12,23.62-.22,12.96,10.95,24.19,24.05,24.2,12.76,.01,23.92-11.16,23.86-23.88-.06-12.92-10.9-23.82-23.8-23.94Zm224.15,47.82c12.83-.16,23.87-11.4,23.65-24.09-.23-12.98-11.15-23.77-24.01-23.73-13.09,.05-24.23,11.38-23.9,24.33,.33,12.94,11.39,23.65,24.25,23.49Z"/>
  <path d="M453.97,43.33c-3.32,4.12-6.53,8.09-9.83,12.18-3.56-2.42-6.63-4.67-9.86-6.67-16.23-10.1-34.01-14.89-53.07-14.9-82.5-.04-164.99-.06-247.49,0-50.53,.04-90.77,33.81-99.43,83.48-1.02,5.86-1.25,11.92-1.25,17.88-.08,81.5-.07,163.01-.05,244.51,.02,50.99,33.14,90.7,83.46,99.88,5.7,1.04,11.6,1.3,17.41,1.31,82,.08,163.99,.09,245.99,.04,50.91-.03,91.16-33.69,99.85-83.59,.99-5.7,1.24-11.59,1.24-17.39,.08-81.67,.05-163.34,.05-245.01,0-23.15-6.48-44.18-20.67-62.67-.49-.64-.87-1.36-1.48-2.32,4.07-3.32,8.02-6.55,12.26-10.01,10.47,12.47,17.79,26.2,21.55,41.46,2.4,9.75,4.11,19.95,4.15,29.95,.32,83.83,.23,167.67,.17,251.5-.04,56.1-41.66,104.46-97.07,112.82-5.57,.84-11.27,1.17-16.92,1.18-84,.07-167.99,.1-251.99,.03-57.34-.05-106.15-43.32-113.03-100.13-.62-5.1-.92-10.26-.92-15.4-.06-82.67-.05-165.34-.04-248.01,.01-57.31,40.13-104.79,96.62-114.21,5.23-.87,10.6-1.23,15.91-1.23,85.16-.07,170.33-.17,255.49,.02,24.57,.06,46.59,8.34,66.29,22.86,.92,.67,1.69,1.53,2.66,2.42Z"/>
</svg>