<svg xmlns="http://www.w3.org/2000/svg" width="31.226" height="40.003" viewBox="0 0 31.226 40.003">
  <path id="Trazado_17244" data-name="Trazado 17244" d="M59.07,30.9l-6.1-12.758a2.489,2.489,0,0,1,.033-1.578L58.071,4.008A2.964,2.964,0,0,0,56.435.2,2.905,2.905,0,0,0,53,1.215L45.117,12.188a2.011,2.011,0,0,1-1.32.82L30.58,15.133a2.946,2.946,0,0,0,.145,5.831L43.818,22.4a2.059,2.059,0,0,1,1.389.8l1.043,1.247V37.5h-7.5a1.25,1.25,0,0,0,0,2.5h17.5a1.25,1.25,0,0,0,0-2.5h-7.5V27.43l5.414,6.464A2.758,2.758,0,0,0,56.43,35a2.943,2.943,0,0,0,1.548-.432A2.856,2.856,0,0,0,59.07,30.9Zm-2.406,1.547a.427.427,0,0,1-.557-.125l-8.959-10.7a4.6,4.6,0,0,0-3.062-1.7L31,18.477a.423.423,0,0,1-.371-.414.446.446,0,0,1,.352-.461L44.188,15.48a4.489,4.489,0,0,0,2.958-1.838L55.028,2.673A.409.409,0,0,1,55.36,2.5a.378.378,0,0,1,.137.027.444.444,0,0,1,.248.564L50.682,15.637a4.661,4.661,0,0,0,.083,3.538L56.846,31.9A.463.463,0,0,1,56.664,32.445ZM47.5,16.25a1.316,1.316,0,0,0-1.32,1.25,1.25,1.25,0,0,0,1.25,1.25,1.192,1.192,0,0,0,1.18-1.25A1.1,1.1,0,0,0,47.5,16.25Z" transform="translate(-28.124 0.003)"/>
</svg>
