<?xml version="1.0" encoding="UTF-8"?>
<svg id="Layer_1" data-name="Layer 1" xmlns="http://www.w3.org/2000/svg" viewBox="0 0 512 512">
  <path d="M513,427.17c-.97,3.82-1.91,7.65-2.91,11.46-8.41,32.02-39.93,60.64-82.83,58.43-34.48-1.77-66.04-29.31-73-64.66-8.71-44.27,21.69-87.37,66.38-94.13,1.31-.2,2.58-.59,4.13-.95,0-8.84,.76-17.68-.18-26.34-1.43-13.25-11.32-21.13-25.24-21.18-23-.09-46-.03-69-.03-19.83,0-39.67,0-59.5,0h-5.61v47.29c54.45,6.58,76.02,57.14,71.36,90.16-5.92,41.9-41.96,70.46-80.61,69.9-37.85-.55-71.78-28.64-77.85-65.47-3.77-22.93,.89-43.99,14.93-62.62,13.92-18.46,32.89-28.53,55.68-31.57v-47.69c-2.02,0-3.81,0-5.6,0-42.33,0-84.66-.01-127,0-17.6,0-27.15,9.57-27.17,27.14,0,6.64,0,13.29,0,20.23,4.64,1.06,9.16,1.91,13.58,3.14,36.79,10.22,60.01,43.19,58.36,82.72-1.45,34.53-29.42,65.96-64.78,72.79-44.42,8.59-86.95-21.38-94.25-66.38-.13-.78-.59-1.5-.9-2.25,0-6.65,0-13.31,0-19.96,.91-3.68,1.65-7.41,2.77-11.02,10-32.35,31.63-51.75,65.05-57.94,1.3-.24,2.57-.62,4.19-1.01,0-7.87-.02-15.67,0-23.47,.08-22.48,17.63-40.14,40.26-40.19,42.99-.1,85.98-.03,128.98-.03,1.99,0,3.99,0,6.37,0v-48.11c-33.61-3.77-60.46-19.16-79.16-47.64-13.34-20.33-18.63-42.91-16-66.97,6.21-56.79,54.38-93.17,103.05-93,51.39,.18,95.83,37.22,103.28,87.09,4.47,29.91-2.28,57.19-21.07,81.01-18.65,23.65-43.53,36.4-73.5,39.47v48.15h6.05c42.49,0,84.98-.01,127.48,0,25.26,0,42.23,17,42.25,42.24,0,7.13,0,14.26,0,20.84,7.97,2.35,15.75,3.81,22.82,6.89,27.01,11.77,43.17,32.35,48.28,61.43,.14,.78,.6,1.5,.9,2.26v19.96ZM169.01,121.46c-.48,47.58,39.37,87.79,87.31,88.12,48.1,.32,88.17-38.91,88.64-86.78,.47-48.57-38.77-88.37-87.55-88.81-48.13-.44-87.91,38.93-88.4,87.48Zm-88.06,231.85c-35.15,.18-64.01,29.02-63.93,63.91,.07,35.19,29.25,64.04,64.52,63.81,34.92-.22,63.69-29.43,63.45-64.39-.24-34.61-29.46-63.51-64.03-63.33Zm176.81,.5c-38.96,1.91-66.58,30.1-64.68,66.01,1.88,35.54,31.91,63.02,66.88,61.2,34.91-1.81,62.58-31.81,60.98-66.13-1.59-34.14-31.08-62.66-63.18-61.09Zm239.23,63.3c-.18-35.06-29.25-64.01-64.05-63.79-35.39,.22-64.23,29.28-63.92,64.41,.3,34.91,29.57,63.62,64.54,63.32,34.7-.3,63.61-29.45,63.43-63.94Z"/>
  <path d="M280.99,97.82c10.61,0,20.57,.07,30.53-.04,3.81-.04,6.95,.84,8.67,4.5,1.79,3.81,.6,6.97-2.1,9.96-23.3,25.79-46.57,51.61-69.8,77.48-2.81,3.13-5.98,4.95-10.11,3.45-4.44-1.62-5.3-5.32-5.25-9.69,.16-12.42,.05-24.84,.05-37.76-10.24,0-20.01-.09-29.79,.04-4.11,.06-7.7-.55-9.53-4.73-1.8-4.09-.08-7.24,2.69-10.31,22.87-25.29,45.67-50.63,68.5-75.96,.67-.74,1.34-1.48,2.03-2.2,2.58-2.67,5.7-3.45,9.1-2.09,3.42,1.37,5.02,4.08,5,7.83-.05,12.94-.02,25.89-.02,39.51Zm-32,66.84c15.69-17.4,30.38-33.69,45.88-50.88-6.75,0-12.19,0-17.63,0-10.44,0-12.24-1.77-12.24-12.04,0-7.19,0-14.37,0-22.88-15.73,17.47-30.42,33.78-45.84,50.9,7.73,0,14.04-.03,20.36,0,6.67,.04,9.42,2.73,9.46,9.3,.04,7.97,.01,15.94,.01,25.59Z"/>
  <path d="M73.01,456.87c0-.5-.07-1.01,0-1.49,.94-6.23-1.27-10.22-6.5-14.43-26.97-21.71-21.72-63.02,9.43-78.24,3.62-1.77,6.85-1.63,10.42,.15,32.33,16.19,35.76,59.76,6.2,80.57-2.6,1.83-3.85,3.58-3.65,6.82,.3,4.8,.15,9.63,.05,14.45-.11,5.11-3.22,8.32-7.9,8.36-4.69,.04-7.87-3.16-8.04-8.21-.09-2.66-.02-5.32-.02-7.98Zm15.98-32.62c13.67-14.51,7.44-35.35-6-44.19-1.06-.7-3.58-.33-4.76,.5-6.21,4.34-10.21,10.41-12.1,17.7-2.53,9.72,.43,20.52,6.88,25.34,0-4.83-.08-9.45,.02-14.07,.11-5.1,3.23-8.28,7.92-8.3,4.69-.02,7.89,3.17,8.01,8.22,.11,4.63,.02,9.27,.02,14.8Z"/>
  <path d="M256.91,441.12c-13.43-.02-23.92-10.62-23.91-24.16,.02-13.15,10.63-23.71,23.81-23.72,13.55,0,24.15,10.47,24.17,23.89,.01,13.44-10.59,24-24.07,23.99Zm.06-16.01c4.13,0,8.04-3.95,7.96-8.04-.09-4.14-4.08-7.96-8.18-7.82-3.95,.14-7.62,3.85-7.71,7.79-.09,4.09,3.81,8.06,7.93,8.07Z"/>
  <path d="M228.84,397.04c-5.07,.16-13.95-8.81-13.78-13.92,.21-6.17,7.23-10.04,12.31-6.45,3.07,2.17,5.9,4.99,8.05,8.06,3.51,5.03-.48,12.11-6.59,12.3Z"/>
  <path d="M298.94,383.32c.04,4.86-8.6,13.66-13.48,13.73-5.84,.08-10.37-6.69-7.21-11.58,2.27-3.52,5.52-6.75,9.02-9.07,4.96-3.28,11.62,.96,11.67,6.92Z"/>
  <path d="M236.82,445.32c.13,5.09-8.86,13.92-13.98,13.72-5.96-.23-9.98-6.97-6.63-11.88,2.29-3.35,5.38-6.45,8.76-8.69,4.87-3.23,11.7,.99,11.85,6.85Z"/>
  <path d="M298.94,451.02c-.03,5.96-6.68,10.22-11.65,6.95-3.51-2.31-6.88-5.52-8.9-9.12-1.16-2.06-.45-6.53,1.18-8.4,1.62-1.86,5.61-2.83,8.24-2.37,4.77,.85,11.16,9.11,11.14,12.93Z"/>
  <path d="M264.98,373.52c0,1.49,.11,2.99-.03,4.47-.4,4.3-3.69,7.24-7.96,7.24-4.28,0-7.62-2.94-7.92-7.26-.2-2.97-.16-5.96-.02-8.94,.22-4.66,3.47-7.73,7.96-7.73,4.48,0,7.68,3.08,7.97,7.74,.09,1.48,.01,2.98,0,4.47Z"/>
  <path d="M212.94,425.16c-8.4,0-11.81-2.23-11.92-7.79-.12-5.8,3.37-8.16,12.04-8.16,8.37,0,11.82,2.25,11.93,7.79,.12,5.77-3.42,8.17-12.05,8.17Z"/>
  <path d="M301.26,409.26c1.66,0,3.36-.25,4.97,.05,4.3,.79,6.73,3.45,6.73,7.88,0,4.43-2.44,7.23-6.75,7.84-3.09,.43-6.3,.24-9.44,.1-4.67-.21-7.74-3.48-7.74-7.95,0-4.48,3.08-7.66,7.76-7.94,1.49-.09,2.99-.01,4.48-.01,0,.02,0,.03,0,.05Z"/>
  <path d="M264.98,461.35c0,1.49,.11,2.99-.03,4.47-.4,4.31-3.69,7.24-7.96,7.24-4.28,0-7.62-2.94-7.92-7.26-.2-2.97-.16-5.96-.02-8.94,.22-4.66,3.47-7.73,7.96-7.73,4.48,0,7.68,3.08,7.96,7.74,.09,1.48,.01,2.98,0,4.47Z"/>
  <path d="M432.79,465.08c-22.88-.04-41.31-19.21-39.56-41.96,.42-5.4,2.76-10.94,5.32-15.84,7.17-13.68,17.57-24.93,28.59-35.6,3.6-3.48,8-3.52,11.62-.05,11.19,10.74,21.21,22.4,29.04,35.92,15.86,27.4-7.38,58.42-35.01,57.52Zm1.41-76.42c-.81,0-1.62,0-2.44,0-6.47,8.97-13.44,17.62-19.26,26.98-5.95,9.57-3.54,20.15,5,27.58,8.51,7.41,21.46,7.68,30.26,.63,9.19-7.36,11.78-18.54,5.46-28.68-5.74-9.21-12.64-17.7-19.03-26.51Z"/>
</svg>