<?xml version="1.0" encoding="UTF-8"?>
<svg id="Layer_1" data-name="Layer 1" xmlns="http://www.w3.org/2000/svg" viewBox="0 0 512 512">
  <path d="M24.03,57.86h24.74c.61-15.19,6.33-27.67,17.91-37.15,9.83-8.04,21.23-11.48,33.9-10.69,20.29,1.28,43.2,17.45,44.69,47.77h24.68c-2.13,21.49-4.21,42.39-6.34,63.81h37.28v95.7h15.89V10.32h15.95V233.16H9.33v-15.57h30.7c-5.35-53.37-10.64-106.2-16-159.73Zm80.89,63.82h42.29c1.62-16.03,3.19-31.66,4.77-47.28-8.69-1.38-8.51-1.28-12.42,5.64-9.32,16.51-23.37,25.66-42.57,25.67-19.21,0-33.23-9.2-42.57-25.67-3.91-6.91-3.72-7.02-12.41-5.64,4.77,47.61,9.55,95.23,14.32,142.9h48.58V121.69Zm16.31,95.56h63.39v-79.28h-63.39v79.28Zm-24.67-127.45c17.12,.32,31.89-13.92,32.4-31.24,.51-17.24-14.03-32.27-31.53-32.59-17.14-.32-31.89,13.91-32.4,31.23-.5,17.25,14.03,32.27,31.53,32.6Z"/>
  <path d="M281.24,233.18V10.23h15.57V217.27h16.06V26.33h112.05V121.64h63.88v95.88h15.94v15.67h-223.5Zm48.01-191.06V217.26h47.96V121.6h31.45V42.12h-79.42Zm63.83,175.15h79.57v-79.16h-79.57v79.16Z"/>
  <path d="M411.69,383.15c3.74-8.93,7.04-17.22,10.68-25.36,4.73-10.6,16.01-15.71,25.95-10.91,4.3,2.08,8.9,6.06,10.74,10.31,14.13,32.56,27.61,65.4,41.28,98.16,.18,.42,.15,.93,.28,1.75h-51.29v31.79h55.29v15.8h-191.34v-15.44h47.42v-63.93h-51.38c.33-1.32,.44-2.24,.78-3.07,13.28-31.84,26.52-63.69,39.92-95.48,5.48-13,19.55-17.67,30.25-9.8,3.29,2.42,6.03,6.28,7.69,10.06,7.55,17.15,14.63,34.51,21.88,51.79,.49,1.18,1.01,2.35,1.85,4.32Zm-78.42,25.72h70.91c-.04-.66,.03-1.02-.08-1.3-10.31-24.79-20.6-49.6-31.08-74.32-.63-1.48-2.86-3.25-4.23-3.17-1.42,.09-3.28,2.03-3.96,3.6-4.53,10.32-8.8,20.76-13.15,31.16-6.07,14.51-12.13,29.02-18.4,44.03Zm72.04,31.96h70.96c-.12-.81-.1-1.33-.28-1.76-10.26-24.61-20.5-49.23-30.93-73.77-.64-1.5-2.77-3.32-4.16-3.28-1.41,.04-3.36,1.94-4.03,3.48-5.21,12-10.27,24.08-15.11,36.24-.69,1.73-.41,4.21,.25,6.04,2.07,5.72,4.54,11.29,7.04,17.39-5.07,0-9.55-.15-14.01,.09-1.38,.07-3.4,.86-3.93,1.91-2.12,4.27-3.78,8.77-5.81,13.67Zm-28.21,47.9h55.54v-31.75h-51.64c4.45-10.79,8.71-21.1,12.98-31.43h-16.87v63.18Z"/>
  <path d="M41.19,393.12H25.02c0-6.3-.13-12.24,.11-18.17,.05-1.21,1.2-2.68,2.25-3.51,24.26-18.94,48.57-37.82,72.92-56.64,1.08-.83,2.69-1.28,4.09-1.36q18.18-1.04,32.56,10.04c20.14,15.56,40.19,31.23,60.38,46.72,2.8,2.15,3.97,4.41,3.74,7.93-.32,4.78-.08,9.6-.08,14.94h-15.8v79.58H41.19v-79.54Zm5.46-16.12H178.23l.86-1.09c-.62-.22-1.35-.29-1.84-.67-19.07-14.77-38.11-29.57-57.19-44.34-3.19-2.47-11.15-2.24-14.45,.3-10.4,8.03-20.79,16.08-31.16,24.14-8.99,6.99-17.97,13.99-27.79,21.65Zm106.31,79.72h15.79v-63.21H57.31v63.23h15.83v-47.24h79.82v47.22Zm-16.19-31.22h-47.39v31.36h47.39v-31.36Z"/>
  <path d="M504.87,281.81v15.32h-207.7v207.57h-15.93v-222.89h223.63Z"/>
  <path d="M217.18,297.31H9.26v-15.49H232.69v222.94h-15.51v-207.45Z"/>
  <path d="M88.76,185.92v15.31h-15.43v-15.31h15.43Z"/>
  <path d="M88.71,169.43h-15.34v-15.4h15.34v15.4Z"/>
  <path d="M73.18,137.33v-15.25h15.54v15.25h-15.54Z"/>
  <path d="M137.11,201.29v-15.24h31.52v15.24h-31.52Z"/>
  <path d="M137.29,153.94h31.32v15.4h-31.32v-15.4Z"/>
  <path d="M105.18,81.61h-16.05v-15.56h-15.73v-16.02h15.41v-15.7h16.05v15.38h15.73v16.02h-15.41v15.88Z"/>
  <path d="M360.66,201.36h-15.41v-15.34h15.41v15.34Z"/>
  <path d="M360.7,137.48h-15.31v-15.37h15.31v15.37Z"/>
  <path d="M392.89,90.25v15.16h-15.55v-15.16h15.55Z"/>
  <path d="M345.27,90.05h15.37v15.42h-15.37v-15.42Z"/>
  <path d="M377.21,73.48v-15.3h15.55v15.3h-15.55Z"/>
  <path d="M345.29,58.13h15.34v15.4h-15.34v-15.4Z"/>
  <path d="M360.79,153.96v15.37h-15.49v-15.37h15.49Z"/>
  <path d="M424.89,154.03v15.23h-15.52v-15.23h15.52Z"/>
  <path d="M456.73,169.44h-15.37v-15.42h15.37v15.42Z"/>
  <path d="M424.63,201.39h-15.36v-15.34h15.36v15.34Z"/>
  <path d="M441.37,185.86h15.36v15.34h-15.36v-15.34Z"/>
</svg>