<svg xmlns="http://www.w3.org/2000/svg" width="50" height="40" viewBox="0 0 50 40">
  <path id="Trazado_17261" data-name="Trazado 17261" d="M47.492,25a8.125,8.125,0,1,0-8.055-8.125A8.067,8.067,0,0,0,47.492,25Zm0-13.75a5.625,5.625,0,1,1-5.625,5.625A5.63,5.63,0,0,1,47.492,11.25ZM51.4,27.5H43.6c-6.133,0-11.1,4.664-11.1,10.414A2.152,2.152,0,0,0,34.719,40H60.281A2.152,2.152,0,0,0,62.5,37.914C62.5,32.164,57.531,27.5,51.4,27.5Zm-16.383,10c.236-4.173,4-7.5,8.523-7.5H51.4c4.592,0,8.352,3.327,8.523,7.5ZM62.5,12.5a6.25,6.25,0,1,0-6.25-6.25A6.25,6.25,0,0,0,62.5,12.5Zm0-10a3.75,3.75,0,1,1-3.75,3.75A3.754,3.754,0,0,1,62.5,2.5Zm-30,10a6.25,6.25,0,1,0-6.25-6.25A6.25,6.25,0,0,0,32.5,12.5Zm0-10a3.75,3.75,0,1,1-3.75,3.75A3.754,3.754,0,0,1,32.5,2.5ZM66.336,15H61.25a5.869,5.869,0,0,0-2.537.581,1.25,1.25,0,1,0,1.072,2.258A3.431,3.431,0,0,1,61.25,17.5h5.084A3.868,3.868,0,0,1,70,21.461V22.5a1.25,1.25,0,0,0,2.5,0V21.461A6.325,6.325,0,0,0,66.336,15ZM35.219,17.836a1.25,1.25,0,0,0,1.072-2.258A5.925,5.925,0,0,0,33.75,15H28.666A6.326,6.326,0,0,0,22.5,21.461V22.5a1.25,1.25,0,0,0,2.5,0V21.461A3.824,3.824,0,0,1,28.666,17.5H33.75A3.5,3.5,0,0,1,35.219,17.836Z" transform="translate(-22.5)"/>
</svg>
