<svg xmlns="http://www.w3.org/2000/svg" width="40" height="35" viewBox="0 0 40 35">
  <path id="Trazado_17259" data-name="Trazado 17259" d="M28.75,2.5A1.25,1.25,0,0,1,30,3.75v27.5A3.75,3.75,0,0,0,33.75,35h32.5a1.25,1.25,0,0,1,0,2.5H33.75a6.249,6.249,0,0,1-6.25-6.25V3.75A1.25,1.25,0,0,1,28.75,2.5Zm8.75,8.75A1.254,1.254,0,0,1,38.75,10h17.5a1.25,1.25,0,0,1,0,2.5H38.75A1.254,1.254,0,0,1,37.5,11.25ZM51.25,17.5a1.25,1.25,0,0,1,0,2.5H38.75a1.25,1.25,0,0,1,0-2.5Zm10,7.5a1.25,1.25,0,0,1,0,2.5H38.75a1.25,1.25,0,0,1,0-2.5Z" transform="translate(-27.5 -2.5)"/>
</svg>
