<?xml version="1.0" encoding="UTF-8"?>
<svg id="Layer_1" data-name="Layer 1" xmlns="http://www.w3.org/2000/svg" viewBox="0 0 512 512">
  <path d="M321,1c8.2,3.39,17.16,5.62,24.43,10.41,17.48,11.5,25.79,28.55,25.98,49.47,.03,3.66,.07,7.32-.18,10.97-.3,4.45-2.77,7.09-7.35,7.17-4.64,.08-7.1-2.76-7.59-7.01-.42-3.61-.13-7.31-.19-10.96-.29-18.44-8.32-32.47-25.08-40.3-6.4-2.99-14.06-4.47-21.17-4.56-35.16-.45-70.33-.28-105.5-.18-27.68,.08-46.4,18.8-46.46,46.33-.05,23.45-.01,46.91-.01,70.36,0,1.48,0,2.96,0,4.43,4.35,1.43,8.39,2.76,12.91,4.25,.08-1.64,.21-3.2,.22-4.75,.02-17.3,0-34.6,.01-51.9,.02-20.48,12.23-32.92,32.74-33.31,5.33-.1,10.67-.01,16-.02,8.79,0,16.54,2.59,23.5,8.18,8.98,7.21,18.46,7.26,27.38,.07,7.25-5.84,15.34-8.4,24.48-8.24,6.66,.11,13.35-.07,19.97,.48,16.26,1.36,27.72,13.83,27.85,30.23,.15,18.63,.04,37.26,.04,55.89,0,.99,0,1.98,0,3.39,4.44-1.43,8.6-2.78,13.13-4.24,0-8.21,0-16.5,0-24.8,0-1.66-.09-3.34,.05-4.99,.45-4.97,3.59-8.08,7.89-7.94,4.21,.14,7.06,2.95,7.24,7.92,.26,7.31,.23,14.64,.08,21.95-.07,3.23,.47,5.75,3.52,7.55,1.5,.88,2.62,2.52,3.71,3.97,6.54,8.77,6.28,29.3-.45,37.87-4.78,6.09-11.34,8.27-18.79,8.89-1.46,.12-3.74,1.69-4.02,2.95-4.47,20.43-14.13,38.17-27.56,54.02-.31,.36-.48,.85-.54,.96,6.49,3.74,13.29,6.89,19.22,11.24,14.89,10.92,23.67,25.83,26.37,44.08,.5,3.37,1.88,4.75,4.99,5.66,17.85,5.22,35.59,10.79,53.46,15.92,18.2,5.22,27.82,17.15,30.78,35.69,5.45,34.07,11.53,68.03,17.37,102.03,1.43,8.34,3.07,16.64,4.34,25,2.28,15.05-7.97,26.87-23.31,26.87-135.67,.02-271.33,.03-407,0-15.7,0-25.88-12.5-23.1-27.92,2.35-13.06,4.5-26.15,6.75-39.23,.17-.98,.41-1.95,.72-2.89,1.45-4.55,4.75-6.63,9.06-5.74,3.9,.81,6.42,4.72,5.67,9.19-2.3,13.74-4.67,27.47-7.04,41.2-1.1,6.33,1.63,9.96,7.97,10.43,1.16,.09,2.33,.02,3.5,.02,133.33,0,266.66,0,400-.01,1.83,0,3.7,.07,5.47-.3,4.77-1,7.09-4.37,6.27-9.15-6.42-37.44-12.89-74.87-19.34-112.3-1.04-6.05-2.12-12.09-3.13-18.14-1.67-10.02-7.54-16.45-17.1-19.41-17.77-5.49-35.6-10.76-53.41-16.11-.44-.13-.96-.02-1.79-.02,0,12.23-.09,24.36,.15,36.48,.02,1.15,1.89,2.85,3.23,3.3,24.79,8.35,35.02,34.83,22.01,57.27-7.78,13.41-25.02,21.16-40.28,18.1-16.48-3.3-29-16.92-31.21-32.81-2.89-20.83,11.1-38.17,27.53-42.48,2.65-.69,3.42-1.92,3.4-4.49-.09-12.31-.15-24.62,.03-36.93,.04-2.99-1.23-4.03-3.78-4.73-5.92-1.63-11.9-3.17-17.64-5.3-3.64-1.35-5.03-.13-6.28,3.03-12,30.21-24.23,60.33-36.11,90.58-10.12,25.78-19.91,51.68-29.77,77.56-1.56,4.11-3.34,7.86-8.47,7.73-4.84-.12-6.48-3.78-8-7.69-20.5-52.7-41.05-105.39-61.63-158.06-1.45-3.71-3.29-7.26-4.71-10.98-.94-2.46-2.12-3.38-4.86-2.49-6.31,2.06-12.69,3.91-19.08,5.72-2.47,.7-3.69,1.99-3.26,4.6,.05,.32,.04,.67,0,1-1.21,8.94,.05,14.97,10.67,18.7,12.59,4.42,18.86,15.85,20.04,29.26,2.04,23.17,3.81,46.37,5.7,69.56,.93,11.43-7.29,20.9-18.75,21.44-3.16,.15-6.34,.19-9.5-.02-4.7-.3-7.67-3.36-7.67-7.55,0-4.32,2.82-7.06,7.66-7.44,.5-.04,1-.07,1.5-.05,13.79,.42,11.63-1.38,10.93-12.48-1.3-20.56-3.15-41.09-4.84-61.63-.97-11.78-10.17-20.18-22.36-20.58-12.43-.41-22.21,6.94-23.59,18.87-1.79,15.51-2.76,31.11-4.06,46.68-.61,7.29-1.12,14.58-1.78,21.86-.51,5.67,.74,7.14,6.55,7.27,2.5,.06,5.34-.61,7.4,.36,2.55,1.2,5.83,3.52,6.26,5.82,.43,2.33-1.53,6.41-3.66,7.68-10.89,6.47-28.85-1.56-31.33-13.87-.77-3.83-.43-7.96-.14-11.92,1.52-20.55,3.28-41.08,4.79-61.63,1.23-16.71,11.25-30.05,26.95-34.64,3.31-.97,4.29-2.26,4.07-5.4-.22-3.13-.05-6.29-.05-10.18-3.71,1.11-6.95,2.08-10.2,3.06-14.15,4.26-28.21,8.84-42.47,12.7-12.08,3.27-18.43,10.87-20.34,22.96-2.54,16.06-5.37,32.06-8.11,48.09-1.13,6.65-6.24,9.89-11.25,7.16-3.36-1.84-4.47-4.86-3.85-8.45,3.27-18.96,6.14-38,10.1-56.81,2.64-12.55,11.01-21.35,23.18-25.37,19.38-6.41,39-12.12,58.58-17.89,3.52-1.04,4.88-2.53,5.54-6.27,4.24-24.14,17.68-41.41,40.02-51.69,1.51-.69,3.06-1.28,4.59-1.92,.3-.13,.58-.32,1.28-.71-.87-1.17-1.66-2.33-2.54-3.41-12.36-15.15-21.45-31.94-25.56-51.18-.61-2.87-1.75-3.92-4.91-4.1-14.74-.87-23-9.86-23.08-24.55-.04-8.14-1.41-17.27,5.5-22.93,6.42-5.26,6.08-11.32,6.08-18.08,0-21.95-.39-43.93,.42-65.86,.97-26.44,21.23-48.89,47.32-53.89,.92-.18,1.77-.66,2.66-1,42.67,0,85.33,0,128,0ZM173.48,161.87c0,8.47-1.34,17.16,.26,25.28,4.46,22.69,16.18,41.75,33.55,56.9,19.15,16.71,41.49,23.46,66.7,17.39,18.48-4.45,33.06-15.19,44.76-29.91,16.18-20.37,25.7-42.89,21.89-69.57-10.85-1.98-12.72-4.23-12.72-15.46,0-20.78,.03-41.56-.02-62.34-.02-9.01-4.26-16.42-11.68-16.78-13.46-.64-27.09-3.42-39.68,6.31-11.99,9.27-26.22,8.96-38.69,.34-8.05-5.56-16.06-8.22-25.59-7.31-2.64,.25-5.34,.23-7.99,0-11.67-1.01-18.45,7.11-18.28,18.4,.32,20.61,.1,41.22,.09,61.84,0,10.74-2.21,13.3-12.61,14.91Zm34.83,139.13c.53,.68,.76,1.14,1.14,1.42,15.04,11.27,30.05,22.59,45.25,33.64,1.13,.82,4.11,.38,5.43-.57,9.87-7.08,19.53-14.43,29.26-21.7,5.43-4.06,10.86-8.12,16.68-12.48-7.92-9.58-7.87-20.9-7.99-32.64-27.73,13.36-54.81,13.11-82.32,.02,.26,11.92-.12,23.02-7.45,32.3Zm134.42,97.6c0,13,10.33,23.5,23.24,23.6,12.96,.1,24-10.76,23.99-23.61,0-12.75-10.66-23.38-23.49-23.46-13.35-.07-23.73,10.19-23.74,23.47Zm-86.35,59.6c.39,.03,.79,.07,1.18,.1,3.42-8.89,6.68-17.85,10.32-26.64,1.66-4,1.91-7.84,1.06-12-1.48-7.3-2.71-14.65-4.07-21.98q-1.97-10.66-12.93-9.62c-.15,.01-.28,.17-.99,.64-2.22,11.85-4.53,24.18-6.79,36.52-.11,.59,.19,1.29,.42,1.9,3.92,10.36,7.86,20.72,11.79,31.07Zm57.57-199c0,8.04-.27,15.68,.14,23.28,.15,2.82,1.73,5.64,3.04,8.27,.44,.88,2.29,1.87,3.14,1.62,7.29-2.16,13.74,.96,20.39,2.88,5.31,1.53,10.63,3.04,16.25,4.64-2.93-20.3-22.55-38.73-42.97-40.69Zm-156.66,40.72c7.8-2.29,15.31-4.67,22.92-6.66,3.3-.86,7.02-1.83,10.16-1.1,4.72,1.1,7.67-.51,8.19-4.54,1.21-9.36,1.58-18.84,2.3-28.48-21.26,2.11-41.58,21.39-43.58,40.78Zm84.52,45.71c-13.95-10.4-27.08-20.19-40.21-29.98-.23,.17-.46,.34-.69,.51,5.38,13.25,10.76,26.5,16.22,39.94,8.3-3.52,16.07-6.82,24.68-10.47Zm30.39,.02c8.75,3.69,16.52,6.97,24.73,10.43,5.49-13.55,10.84-26.79,16.75-41.38-14.43,10.77-27.6,20.59-41.48,30.95Zm1.18,17.14c-16.89-7.72-20.92-7.64-32.63,.55,5.41,13.45,28.03,12.7,32.63-.55Zm-127.2-211.56c0,4.49-.12,8.24,.03,11.99,.28,7.08,3.57,9.49,10.86,8v-18.33c-3.34-.51-6.42-.97-10.89-1.65Zm210.89,1.6v18.83c4.67,.59,8.99,.32,9.96-4.64,.95-4.89,.66-10.02,.95-15.75-4.4,.63-7.61,1.09-10.91,1.56Zm-123.55,245.45c1-5.03,1.88-8.58,2.34-12.17,.22-1.67,.19-3.86-.71-5.1-2.62-3.62-5.68-6.92-8.69-10.25-.53-.58-1.61-.67-2.43-.99-.22,.85-.86,1.85-.61,2.52,3.14,8.31,6.41,16.57,10.1,26Zm46.63-1.36c.28,.05,.57,.1,.85,.15,3.17-8.14,6.37-16.26,9.43-24.44,.3-.8-.32-1.94-.52-2.92-.82,.36-1.83,.52-2.42,1.11-6.62,6.55-12.69,13.32-7.7,23.67,.34,.7,.25,1.62,.36,2.43Z"/>
</svg>