<?xml version="1.0" encoding="UTF-8"?>
<svg id="Layer_1" data-name="Layer 1" xmlns="http://www.w3.org/2000/svg" viewBox="0 0 512 512">
  <path d="M272,1c8.77,1.68,17.65,2.9,26.28,5.11,29.91,7.66,56.5,21.47,78.15,43.82,8.17,8.44,14.84,17.89,17.61,29.63,2.47,10.49-.42,19.71-7.67,27.05-5.3,5.36-11.85,9.55-18.09,13.9-2.07,1.44-3.43,2.45-3.39,5.28,.19,11.14-.02,22.29,.18,33.43,.03,1.74,1.33,3.47,2.12,5.17,1.98,4.29,5.22,8.43,5.75,12.89,.94,7.85,.81,15.95,.07,23.84-.94,10.03-8.16,17.34-18.06,19.37-2.69,.55-3.71,1.44-4.15,4.35-3.79,24.82-15.48,45.06-36.2,59.59-4.15,2.91-6.32,5.87-5.55,10.91,.47,3.1,.3,6.33,.96,9.38,.82,3.73,2.09,5.87,7.41,5.3,6.22-.66,12.78,1.3,19.13,2.42,17.18,3.04,34.4,5.88,51.47,9.46,32.19,6.75,60.21,36.97,64.85,69.56,.82,5.73,1.19,11.58,1.22,17.37,.13,25.45-.41,50.91,.22,76.35,.42,17.04-12.99,27.09-27.04,27.04-113.66-.37-227.33-.21-341-.21-16.58,0-26.33-9.68-26.42-26.28-.06-10.81-.03-21.62,0-32.44,.02-7.06,2.28-10.1,7.42-10.15,5.24-.04,7.68,3.27,7.69,10.46,0,10.65-.02,21.29,0,31.94,.02,8.01,3.48,11.45,11.6,11.5,8.96,.05,17.93,.01,27.48,.01,0-4.82,0-9.26,0-13.69,0-15.3-.06-30.61,.03-45.91,.04-6.47,5.14-10.3,10.55-8.07,4.06,1.68,4.64,5.2,4.63,9.08-.05,17.47-.02,34.93-.02,52.4,0,1.81,0,3.61,0,5.8h94.09c1.08-7.53,2.21-15.2,3.29-22.89,3.47-24.82,6.68-49.68,10.58-74.43,.93-5.91-2.46-8.72-5.25-12.46-2.37-3.19-4.51-4.31-8.96-3.03-8.18,2.35-14.88-1.01-19.84-8-10.19-14.39-20.58-28.63-30.7-43.06-1.9-2.71-3.54-3.43-6.91-2.73-12.68,2.64-25.47,4.78-38.2,7.21-2.23,.43-4.36,1.37-6.62,2.1,8.42,15.37,7.69,22.58-3.06,36.23-5.52,7.01-11.05,13.71-20.81,14.97-6.66,.86-12.49-.85-19.17-5.09-.97,6.43-2.06,12.15-2.61,17.91-.41,4.29,.08,8.66-.21,12.96-.29,4.22-3.62,7.01-7.75,6.79-4.25-.22-6.82-2.55-7.15-6.81-3.6-45.89,23.48-81.32,60.29-92.72,12.93-4,26.65-5.51,40.02-8.08,10.12-1.94,20.25-3.83,30.4-5.58,2.24-.39,4.77-.61,6.88,.04,3.23,.98,5.13-.1,5.55-2.96,.85-5.86,1.31-11.78,1.61-17.69,.05-.89-1.49-2.07-2.54-2.78-22.37-15.11-35.31-36.05-39.26-62.67-.18-1.23-2.05-2.82-3.4-3.16-11.35-2.85-18.16-10.33-18.98-22.05-.45-6.45-.24-12.97,0-19.45,.22-5.84,2.57-10.88,6.54-15.26,1.08-1.19,1.85-3.13,1.87-4.73,.16-11.14-.02-22.29,.16-33.43,.05-2.82-1.27-3.86-3.38-5.28-5.9-3.98-12.09-7.81-17.1-12.77-9.63-9.52-12.06-21.09-6.97-33.89,6.31-15.87,17.88-27.52,31.12-37.58C178.35,16.84,207.22,5.36,239.25,1.91c.94-.1,1.84-.6,2.75-.91,10,0,20,0,30,0Zm-81.05,153.97c0,5.67-.07,10.98,.02,16.28,.08,4.76-1.68,8.52-6.06,10.55-4.34,2.02-8.2,.87-12.07-1.94-3.01-2.19-6.54-3.95-10.1-5.05-4.51-1.4-6.65,.32-6.81,5.07-.21,6.14-.23,12.31,0,18.45,.17,4.42,2.85,6.91,7.27,7.38,1.48,.16,3,.07,4.49,.1,6.73,.13,9.2,2.4,9.89,9.19,.27,2.64,.22,5.33,.6,7.95,7.08,48.2,56.6,72.37,94.65,63.89,37.22-8.3,59.85-33.56,63.47-71.38,.71-7.38,3.08-9.56,10.48-9.66,1.5-.02,3.02,.08,4.49-.15,3.93-.59,6.53-2.92,6.7-6.86,.29-6.47,.23-12.97,.02-19.44-.12-3.91-2.47-6.02-6.32-4.61-3.82,1.39-7.61,3.2-10.97,5.48-3.8,2.57-7.57,3.49-11.69,1.57-4.17-1.94-6.03-5.49-6-10.07,.03-5.47,0-10.94,0-16.67-44.04,11.72-87.72,11.88-132.1-.07Zm202.32,184.4c-2.24-.73-4.35-1.68-6.57-2.1-12.72-2.45-25.51-4.6-38.18-7.28-3.39-.71-5.04,.04-6.93,2.73-10.23,14.56-20.7,28.94-31.01,43.44-4.87,6.85-11.64,10.16-19.46,7.64-5-1.62-6.84,.34-9.33,3.39-2.89,3.54-5.87,6.41-4.99,12.05,3.88,24.92,7.15,49.93,10.65,74.91,1.05,7.53,2.13,15.05,3.2,22.55h94.11c0-6.95,0-13.57,0-20.18,0-13.14-.07-26.28,.05-39.41,.06-5.79,3.75-9.08,8.81-8.1,4.75,.92,6.34,4.27,6.33,8.77-.03,17.96-.01,35.92-.01,53.88,0,1.74,0,3.47,0,5.37,10.15,0,19.48,.11,28.8-.04,6.57-.11,10.24-3.82,10.26-10.3,.05-27.77,.15-55.55-.12-83.32-.06-5.74-1.61-11.48-2.57-17.78-6.71,3.99-12.5,5.84-19.17,4.97-9.77-1.27-15.29-7.96-20.81-14.97-10.76-13.67-11.49-20.96-3.07-36.23Zm-43.36-229.06c0-5.56,.01-10.51,0-15.46-.02-7.8-1.71-10.11-9.19-11.85-38.56-8.94-77.41-15.68-117.12-10.02-17.71,2.52-35.16,6.85-52.72,10.41-3.86,.78-6.38,3.37-6.59,7.18-.35,6.39-.1,12.82-.1,19.72,2.49,0,4.45,0,6.42,0,39.49,0,78.97,0,118.46,.01,1.99,0,4.02,.02,5.97,.36,3.51,.62,5.57,2.84,5.92,6.41,.37,3.75-1.15,6.61-4.79,7.78-2,.64-4.24,.74-6.36,.75-38.49,.04-76.97,.03-115.46,.03-1.69,0-3.38,0-5.07,0-.09,.43-.18,.85-.27,1.28,2.43,1.68,4.66,3.88,7.34,4.93,10.61,4.16,21.11,9.05,32.13,11.68,26.98,6.42,54.45,6.66,81.87,2.96,16.18-2.19,32.07-5.82,46.49-14,2.89-1.64,5.47-3.8,8.62-6.02-1.24-.54-1.52-.77-1.8-.77-3.83-.04-7.66-.03-11.49-.07-6.34-.06-10.17-3.09-10.03-7.9,.13-4.63,3.7-7.35,9.94-7.42,5.79-.07,11.59-.01,17.84-.01Zm15.06-5.17c2.79-2.09,4.71-3.38,6.46-4.86,8.87-7.51,10.47-14.99,4.83-25.09-2.49-4.46-5.47-8.82-8.97-12.51-28.62-30.11-64.43-44.85-105.41-46.38-39.04-1.45-74.02,10.87-104.24,35.73-9.13,7.51-17.58,15.9-21.83,27.39-3.68,9.96,2.62,21.6,13.21,24.4,0-4.37-.06-8.69,.01-13,.15-9.83,6.76-18.96,16.21-21.68,24.35-7,49.16-11.82,74.48-13.05,36.72-1.78,72.62,4.12,108.08,13.06,10.66,2.69,17.09,11.79,17.17,22.94,.03,3.96,0,7.92,0,13.04Zm-150.22,215.45c12.79,9.56,26.44,19.86,40.28,29.9,1,.73,3.76,.13,5.03-.78,9.7-7,19.25-14.22,28.83-21.38,3.81-2.85,7.59-5.72,10.28-7.74-2.34-8.49-4.42-15.99-6.53-23.65-23.54,9.14-47.98,9.11-71.28,0-2.22,7.92-4.32,15.45-6.62,23.65Zm60.46,176.29c-4.57-32.77-9.08-65.08-13.59-97.38h-9.28c-4.54,32.61-9.03,64.87-13.56,97.38h36.42Zm-33.74-136.97c-1.53-1.3-2.6-2.31-3.77-3.18-13.04-9.76-26.2-19.38-39.1-29.32-3.92-3.02-7.46-2.67-11.83-.73,9.89,13.85,19.59,27.52,29.48,41.04,.67,.91,3.08,1.42,4.24,.97,6.92-2.68,13.7-5.7,20.98-8.79Zm30.78-.12c7,3,13.18,5.44,19.16,8.28,3.48,1.65,5.54,1.2,7.82-2.11,8.11-11.76,16.55-23.29,24.86-34.91,1.01-1.41,1.99-2.83,3.12-4.45-4.88-2.11-8.78-2.19-12.43,1.36-1.89,1.84-4.24,3.2-6.37,4.8-11.83,8.84-23.66,17.68-36.17,27.03Zm-188.51,10.05c7.49,7.5,12.84,7.39,18.34,.78,2.44-2.93,4.9-5.85,7.08-8.97,3.74-5.35,2.35-10.6-4.54-14.63-6.79,7.42-13.76,15.04-20.88,22.82Zm345.35,1.15c-3.48-8.2-13.15-18.79-21.33-23.35-5.81,4.63-6.56,9.19-2.32,14.88,2.08,2.79,4.28,5.49,6.51,8.15,5.53,6.59,11.01,6.68,17.13,.32Zm-185.9,5.43c8.48,10.97,21.93,10.59,27.16-.14-8.92-7.36-17.96-6.62-27.16,.14Zm-78.84-217.14c3.76,1.17,7.33,2.27,10.95,3.4,1.77-12.92,1.04-14.22-10.95-19.48v16.08Zm185.14,.02v-16.28c-12.23,6.36-13.2,8.2-10.5,19.62,3.43-1.09,6.86-2.18,10.5-3.33Z"/>
  <path d="M174.24,474.28c-6.49,0-12.98,.14-19.46-.04-7.5-.21-12.39-5.06-12.62-12.57-.2-6.8-.21-13.61,0-20.41,.23-7.04,4.81-12.15,11.81-12.33,13.62-.34,27.27-.32,40.89,.03,6.63,.17,10.93,4.42,11.31,11.01,.45,7.76,.46,15.6-.04,23.36-.43,6.73-5.1,10.54-11.95,10.93-.33,.02-.66,.03-1,.04-6.32,0-12.64,0-18.96,0Zm16.65-29.96h-33.02v14.46h33.02v-14.46Z"/>
  <path d="M339.53,474.27c-6.49,0-12.98,.14-19.46-.04-7.31-.2-11.95-4.32-12.36-11.62-.42-7.44-.4-14.94,.04-22.38,.41-6.82,4.74-11.14,11.59-11.32,13.46-.34,26.94-.36,40.4-.03,7.29,.18,11.88,5.29,12.09,12.59,.2,6.63,.18,13.28,0,19.91-.2,7.81-5.06,12.55-12.86,12.89-.33,.01-.67,.01-1,.01-6.15,0-12.31,0-18.46,0v-.03Zm-16.47-15.37h33.11v-14.54h-33.11v14.54Z"/>
</svg>