<svg xmlns="http://www.w3.org/2000/svg" width="35.045" height="40" viewBox="0 0 35.045 40">
  <path id="Trazado_17256" data-name="Trazado 17256" d="M64.922,36.891A9.1,9.1,0,0,0,56.094,30H38.836a9.1,9.1,0,0,0-8.828,6.894A2.579,2.579,0,0,0,32.5,40h29.93A2.511,2.511,0,0,0,64.922,36.891ZM32.5,37.43a6.585,6.585,0,0,1,6.334-4.93H56.023a6.592,6.592,0,0,1,6.4,5ZM55.188,17.5a7.5,7.5,0,1,1-15,0,1.25,1.25,0,0,0-2.5,0,10,10,0,1,0,20,0,1.25,1.25,0,0,0-2.5,0Zm-18.9-3.75H58.909a1.25,1.25,0,1,0,0-2.5H57.652a10,10,0,0,0-8.8-9.875V1.25a1.26,1.26,0,0,0-2.52,0v.125a10,10,0,0,0-8.8,9.875H36.284a1.25,1.25,0,1,0,0,2.5ZM48.852,3.875a7.508,7.508,0,0,1,6.284,7.374H48.852Zm-8.8,7.3a7.508,7.508,0,0,1,6.284-7.374V11.25Z" transform="translate(-29.954)"/>
</svg>
