<svg xmlns="http://www.w3.org/2000/svg" width="50" height="40" viewBox="0 0 50 40">
  <path id="Trazado_17262" data-name="Trazado 17262" d="M27.5,30H40v2.5H27.5v3.75a1.25,1.25,0,0,1-2.5,0V31.828A4.986,4.986,0,0,1,22.5,27.5V8.609a6.258,6.258,0,0,1,2.029-5.091C26.78,1.736,30.9,0,37.5,0S48.219,1.736,50.469,3.519a5.755,5.755,0,0,1,1.992,4.149A4.83,4.83,0,0,0,49.422,10H38.75v7.5h6.008L44.047,20H25v7.5A2.5,2.5,0,0,0,27.5,30Zm10-27.5c-6.242,0-9.705,1.621-11.419,2.978a3.054,3.054,0,0,0-1,2.022H49.922a3.034,3.034,0,0,0-1-2.022C47.2,4.121,43.672,2.5,37.5,2.5Zm-1.25,15V10H25v7.5ZM32.5,24.375A1.875,1.875,0,1,1,30.625,22.5,1.871,1.871,0,0,1,32.5,24.375Zm18.125,5A1.875,1.875,0,1,1,48.75,27.5,1.871,1.871,0,0,1,50.625,29.375Zm13.75,0A1.875,1.875,0,1,1,66.25,31.25,1.871,1.871,0,0,1,64.375,29.375ZM54.375,10h6.25a3.124,3.124,0,0,1,3.125,3.125v.719A4.988,4.988,0,0,1,67.6,17.375l1.625,5.914A6.109,6.109,0,0,1,72.5,28.75v10a1.25,1.25,0,0,1-2.5,0v-2.5H45v2.5a1.25,1.25,0,0,1-2.5,0v-10a6.182,6.182,0,0,1,3.2-5.461l1.7-5.914a4.988,4.988,0,0,1,3.852-3.531v-.719A3.124,3.124,0,0,1,54.375,10Zm6.25,2.5h-6.25a.627.627,0,0,0-.625.625v.625h7.5v-.625A.627.627,0,0,0,60.625,12.5ZM52.2,16.25A2.51,2.51,0,0,0,49.8,18.063L48.531,22.5H66.469L65.2,18.063A2.51,2.51,0,0,0,62.8,16.25ZM70,33.75v-5A3.751,3.751,0,0,0,66.25,25H48.75A3.751,3.751,0,0,0,45,28.75v5Z" transform="translate(-22.5)"/>
</svg>
