<svg xmlns="http://www.w3.org/2000/svg" width="50" height="40" viewBox="0 0 50 40">
  <path id="Trazado_17263" data-name="Trazado 17263" d="M45,5V9.734L42.5,7.442V5a5,5,0,0,1,5-5h20a5,5,0,0,1,5,5V35a5,5,0,0,1-5,5H53.75a7.35,7.35,0,0,0,1.125-2.5H67.5A2.5,2.5,0,0,0,70,35V5a2.5,2.5,0,0,0-2.5-2.5h-20A2.5,2.5,0,0,0,45,5ZM63.75,16.25a2.5,2.5,0,0,1,2.5,2.5v2.5a2.5,2.5,0,0,1-2.5,2.5h-2.5a2.5,2.5,0,0,1-2.5-2.5v-2.5a2.5,2.5,0,0,1,2.5-2.5Zm-2.5,5h2.5v-2.5h-2.5Zm-2.5,7.5a2.5,2.5,0,0,1,2.5-2.5h2.5a2.5,2.5,0,0,1,2.5,2.5v2.5a2.5,2.5,0,0,1-2.5,2.5h-2.5a2.5,2.5,0,0,1-2.5-2.5Zm5,0h-2.5v2.5h2.5Zm-10-22.5a2.5,2.5,0,0,1,2.5,2.5v2.5a2.5,2.5,0,0,1-2.5,2.5h-2.5a2.5,2.5,0,0,1-2.5-2.5V8.75a2.5,2.5,0,0,1,2.5-2.5Zm-2.5,5h2.5V8.75h-2.5Zm7.5-2.5a2.5,2.5,0,0,1,2.5-2.5h2.5a2.5,2.5,0,0,1,2.5,2.5v2.5a2.5,2.5,0,0,1-2.5,2.5h-2.5a2.5,2.5,0,0,1-2.5-2.5Zm5,0h-2.5v2.5h2.5ZM40,20a2.5,2.5,0,0,1,2.5,2.5v5A2.5,2.5,0,0,1,40,30H35a2.5,2.5,0,0,1-2.5-2.5v-5A2.5,2.5,0,0,1,35,20Zm0,2.5H35v5h5ZM22.5,35V22.2a5.267,5.267,0,0,1,1.621-3.758l10-9.1a5,5,0,0,1,6.75,0l10,9.1A5.247,5.247,0,0,1,52.5,22.2V35a5,5,0,0,1-5,5h-20a5,5,0,0,1-5-5ZM25,22.2V35a2.5,2.5,0,0,0,2.5,2.5h20A2.5,2.5,0,0,0,50,35V22.2a2.5,2.5,0,0,0-.812-1.844l-10-9.172a2.5,2.5,0,0,0-3.375,0l-10,9.172A2.558,2.558,0,0,0,24.93,22.2H25Z" transform="translate(-22.5)"/>
</svg>
