<svg xmlns="http://www.w3.org/2000/svg" width="39.93" height="40" viewBox="0 0 39.93 40">
  <path id="Trazado_17240" data-name="Trazado 17240" d="M47.43,0a20,20,0,1,0,20,20.07A19.984,19.984,0,0,0,47.43,0ZM34.089,15.258l-3.973,2.789a17.355,17.355,0,0,1,2.478-7.172Zm1.669,1.875,3.154,1.154,2.514,7.692L39.5,28.513l-7.21.109a17.35,17.35,0,0,1-2.234-7.479Zm5.633.688,6.109-4.43,6.113,4.429L51.3,24.973H43.727Zm14.7.469,3.152-1.153,5.7,4.011A17.368,17.368,0,0,1,62.7,28.626l-7.209-.11-1.907-2.529Zm4.828-3.031,1.5-4.376a17.348,17.348,0,0,1,2.478,7.172ZM60.6,8.367,58.438,14.7l-3.17,1.16L48.75,11.211V7.7L54,3.764A18.174,18.174,0,0,1,60.6,8.367ZM51.039,2.86,47.5,5.513,43.961,2.86a17.568,17.568,0,0,1,7.078,0ZM41,3.764,46.25,7.7v3.508L39.734,15.93l-3.172-1.164L34.4,8.367A18.16,18.16,0,0,1,41,3.764ZM33.984,31.1l5.227-.079,1.583,5.136A17.559,17.559,0,0,1,33.984,31.1Zm9.7,5.969L41.509,30l1.923-2.533h8.141L53.492,30l-2.18,7.07a17.546,17.546,0,0,1-3.812.43A17.062,17.062,0,0,1,43.688,37.07ZM54.2,36.156l1.583-5.136,5.227.079A18,18,0,0,1,54.2,36.156Z" transform="translate(-27.5)"/>
</svg>
