<svg xmlns="http://www.w3.org/2000/svg" width="45" height="40" viewBox="0 0 45 40">
  <path id="Trazado_17252" data-name="Trazado 17252" d="M38.648,8.734a1.211,1.211,0,0,1-1.031-1.441A8.753,8.753,0,0,1,54.5,5.834a1.274,1.274,0,0,1-.758,1.6,1.246,1.246,0,0,1-1.594-.762A6.255,6.255,0,0,0,40.086,7.707,1.253,1.253,0,0,1,38.648,8.734Zm17.6,11.891A1.875,1.875,0,1,1,58.125,22.5,1.871,1.871,0,0,1,56.25,20.625Zm6.914-10.8-.664,2.6a13.916,13.916,0,0,1,3.961,5.07H67.5A2.5,2.5,0,0,1,70,20v7.5A2.5,2.5,0,0,1,67.5,30H65a13.126,13.126,0,0,1-5,3.961V36.25A3.751,3.751,0,0,1,56.25,40h-2.5A3.751,3.751,0,0,1,50,36.25V35H45v1.25A3.751,3.751,0,0,1,41.25,40h-2.5A3.751,3.751,0,0,1,35,36.25V32.5a12.486,12.486,0,0,1-5-10,5.115,5.115,0,0,1-2.173-9.687l.364-.18a1.249,1.249,0,1,1,1.119,2.234l-.365.18A2.6,2.6,0,0,0,30.112,20h.138A12.418,12.418,0,0,1,42.43,10H54.406A7.507,7.507,0,0,1,60,7.5h1.352A1.871,1.871,0,0,1,63.164,9.828ZM42.5,12.5a10,10,0,0,0-6,18l1,.75v5a1.254,1.254,0,0,0,1.25,1.25h2.5a1.254,1.254,0,0,0,1.25-1.25V32.5h10v3.75a1.254,1.254,0,0,0,1.25,1.25h2.5a1.254,1.254,0,0,0,1.25-1.25V32.32l1.5-.648A10.014,10.014,0,0,0,63,28.5l.75-1H67.5V20H64.82l-.648-1.5A10.014,10.014,0,0,0,61,14.5l-1.328-1,.875-3.5H60a4.987,4.987,0,0,0-3.727,1.664l-.75.836Z" transform="translate(-25)"/>
</svg>
