<svg xmlns="http://www.w3.org/2000/svg" width="35.001" height="39.999" viewBox="0 0 35.001 39.999">
  <path id="Trazado_17251" data-name="Trazado 17251" d="M55.563,24.438,47.5,32.5l-8.062-8.062A13.5,13.5,0,0,0,30,37.289,2.708,2.708,0,0,0,32.709,40H62.295A2.706,2.706,0,0,0,65,37.289,13.5,13.5,0,0,0,55.563,24.438ZM62.289,37.43H32.708a.209.209,0,0,1-.208-.208,10.954,10.954,0,0,1,6.324-9.93l6.91,6.974a2.5,2.5,0,0,0,3.536,0l6.909-6.909a10.956,10.956,0,0,1,6.324,9.93C62.5,37.406,62.406,37.43,62.289,37.43ZM30.97,6.218l1.53.353v6.977l-2.435,7.3A1.251,1.251,0,0,0,31.25,22.5h5a1.25,1.25,0,0,0,1.014-.519,1.512,1.512,0,0,0,.171-1.127L35,13.547v-6.4l2.5.577V10a1.25,1.25,0,0,0,.63,1.085l5.029,2.873a8.782,8.782,0,0,0,8.681,0l5.029-2.873A1.25,1.25,0,0,0,57.5,10V7.725l6.53-1.507a1.25,1.25,0,0,0,0-2.436L47.851.032a1.281,1.281,0,0,0-.561,0L30.97,3.781a1.25,1.25,0,0,0,0,2.437ZM55,9.273l-4.4,2.513a6.281,6.281,0,0,1-6.2,0L40,9.273V8.3L47.22,9.97A1.235,1.235,0,0,0,47.5,10a1.319,1.319,0,0,0,.285-.032L55,8.3v.969ZM47.5,2.532,58.188,5,47.5,7.466,36.813,5ZM33.75,17.7l.765,2.3H32.984Zm22.5-5.273A1.249,1.249,0,0,0,55,13.68a7.493,7.493,0,0,1-7.43,7.5A7.57,7.57,0,0,1,40,13.68a1.237,1.237,0,0,0-1.18-1.25,1.423,1.423,0,0,0-1.32,1.25,9.93,9.93,0,1,0,19.859,0A1.1,1.1,0,0,0,56.25,12.43Z" transform="translate(-29.999 -0.001)"/>
</svg>
