<svg xmlns="http://www.w3.org/2000/svg" width="36" height="31.5" viewBox="0 0 36 31.5">
  <path id="Trazado_17227" data-name="Trazado 17227" d="M-9.33-9.33l7.08-7.08L3.7-10.458a1.125,1.125,0,0,0,1.59,0L15.419-20.519a1.124,1.124,0,0,0,0-1.59,1.125,1.125,0,0,0-1.59,0L4.5-12.839l-5.955-5.955a1.128,1.128,0,0,0-1.591,0l-7.875,7.875a1.126,1.126,0,0,0,0,1.59,1.12,1.12,0,0,0,1.591,0ZM16.875,0h-29.25A3.377,3.377,0,0,1-15.75-3.375v-24.75a1.126,1.126,0,0,0-1.125-1.125A1.126,1.126,0,0,0-18-28.125v24.75A5.632,5.632,0,0,0-12.375,2.25h29.25a1.125,1.125,0,0,0,0-2.25Z" transform="translate(18 29.25)"/>
</svg>
