<svg xmlns="http://www.w3.org/2000/svg" width="31.5" height="35.998" viewBox="0 0 31.5 35.998">
  <path id="Trazado_17217" data-name="Trazado 17217" d="M0-13.5a9,9,0,0,0,9-9,9,9,0,0,0-9-9,9,9,0,0,0-9,9A9,9,0,0,0,0-13.5ZM0-29.25A6.757,6.757,0,0,1,6.75-22.5,6.758,6.758,0,0,1,0-15.75,6.759,6.759,0,0,1-6.75-22.5,6.759,6.759,0,0,1,0-29.25ZM3.565-10.125h-7.13A12.187,12.187,0,0,0-15.75,2.06,2.438,2.438,0,0,0-13.313,4.5H13.314A2.433,2.433,0,0,0,15.75,2.06,12.186,12.186,0,0,0,3.565-10.125ZM13.31,2.25H-13.313a.188.188,0,0,1-.187-.19A9.948,9.948,0,0,1-3.565-7.875H3.558A9.949,9.949,0,0,1,13.5,2.06.189.189,0,0,1,13.31,2.25Z" transform="translate(15.75 31.5)"/>
</svg>
