<svg xmlns="http://www.w3.org/2000/svg" width="45" height="36" viewBox="0 0 45 36">
  <path id="Trazado_17220" data-name="Trazado 17220" d="M15.188-25.875H11.813a1.687,1.687,0,0,0-1.687,1.688v3.375a1.688,1.688,0,0,0,1.688,1.688h3.375a1.688,1.688,0,0,0,1.688-1.687v-3.375A1.685,1.685,0,0,0,15.188-25.875Zm-.562,4.5h-2.25v-2.25h2.25ZM-6-13.563h-6A1.556,1.556,0,0,0-13.5-12v5.995A1.5,1.5,0,0,0-12-4.5h6a1.508,1.508,0,0,0,1.5-1.5V-12A1.555,1.555,0,0,0-6-13.563Zm-.745,6.75H-11.25V-11.25h4.5ZM18-31.5H0A4.5,4.5,0,0,0-4.5-27v1.125A1.126,1.126,0,0,0-3.375-24.75,1.126,1.126,0,0,0-2.25-25.875V-27A2.25,2.25,0,0,1,0-29.25H18A2.25,2.25,0,0,1,20.25-27V3.375a1.125,1.125,0,0,0,2.25,0V-27A4.5,4.5,0,0,0,18-31.5ZM15.188-16.875H11.813a1.687,1.687,0,0,0-1.687,1.688v3.375a1.688,1.688,0,0,0,1.688,1.688h3.375a1.688,1.688,0,0,0,1.688-1.687v-3.375A1.683,1.683,0,0,0,15.188-16.875Zm-.562,4.5h-2.25v-2.25h2.25ZM-7.348-24.11a2.5,2.5,0,0,0-1.716-.64,2.194,2.194,0,0,0-1.589.64l-10.642,9.675A3.678,3.678,0,0,0-22.5-11.714V0A4.5,4.5,0,0,0-18,4.5H-.063A4.535,4.535,0,0,0,4.437.007L4.5-11.728a3.657,3.657,0,0,0-1.2-2.7L-7.348-24.11ZM2.187,0A2.257,2.257,0,0,1-.063,2.25H-18A2.25,2.25,0,0,1-20.25,0V-11.714a1.432,1.432,0,0,1,.469-1.06l10.718-9.79L1.723-12.832a1.5,1.5,0,0,1,.527,1.118Zm13-7.875H11.813a1.687,1.687,0,0,0-1.687,1.688v3.375a1.688,1.688,0,0,0,1.688,1.688h3.375a1.688,1.688,0,0,0,1.688-1.687V-6.187A1.683,1.683,0,0,0,15.188-7.875Zm-.562,4.5h-2.25v-2.25h2.25Zm-8.437-22.5H2.813a1.687,1.687,0,0,0-1.687,1.688v3.375a1.688,1.688,0,0,0,1.688,1.688H6.188a1.688,1.688,0,0,0,1.688-1.687v-3.375A1.685,1.685,0,0,0,6.188-25.875Zm-.562,4.5H3.375v-2.25h2.25Z" transform="translate(22.5 31.5)"/>
</svg>
