<svg xmlns="http://www.w3.org/2000/svg" width="36" height="31.5" viewBox="0 0 36 31.5">
  <path id="Trazado_17225" data-name="Trazado 17225" d="M-7.875-14.625H3.375A1.128,1.128,0,0,0,4.5-15.75a1.127,1.127,0,0,0-1.125-1.125H-7.875A1.128,1.128,0,0,0-9-15.75,1.128,1.128,0,0,0-7.875-14.625Zm0-6.75H7.875A1.128,1.128,0,0,0,9-22.5a1.127,1.127,0,0,0-1.125-1.125H-7.875A1.128,1.128,0,0,0-9-22.5,1.128,1.128,0,0,0-7.875-21.375ZM16.875,0h-29.25A3.377,3.377,0,0,1-15.75-3.375v-24.75a1.126,1.126,0,0,0-1.125-1.125A1.126,1.126,0,0,0-18-28.125v24.75A5.632,5.632,0,0,0-12.375,2.25h29.25a1.125,1.125,0,0,0,0-2.25ZM-7.875-7.875h20.25A1.126,1.126,0,0,0,13.5-9a1.126,1.126,0,0,0-1.125-1.125H-7.875A1.128,1.128,0,0,0-9-9,1.128,1.128,0,0,0-7.875-7.875Z" transform="translate(18 29.25)"/>
</svg>
