<svg xmlns="http://www.w3.org/2000/svg" width="36" height="31.5" viewBox="0 0 36 31.5">
  <path id="Trazado_17224" data-name="Trazado 17224" d="M-12.375-10.687a1.686,1.686,0,0,1,1.688-1.687A1.683,1.683,0,0,1-9-10.687,1.683,1.683,0,0,1-10.687-9,1.686,1.686,0,0,1-12.375-10.687Zm24.75,0A1.683,1.683,0,0,1,10.688-9,1.683,1.683,0,0,1,9-10.687a1.683,1.683,0,0,1,1.688-1.687A1.683,1.683,0,0,1,12.375-10.687Zm-26.98-6.42,2.44-8.134A5.625,5.625,0,0,1-6.778-29.25H6.778a5.621,5.621,0,0,1,5.386,4.009l2.44,8.134A6.73,6.73,0,0,1,18-11.25V1.125a1.125,1.125,0,0,1-2.25,0V-2.25h-31.5V1.125A1.126,1.126,0,0,1-16.875,2.25,1.127,1.127,0,0,1-18,1.125V-11.25a6.736,6.736,0,0,1,3.4-5.857Zm2.6-.851A6.605,6.605,0,0,1-11.25-18h22.5a6.652,6.652,0,0,1,.752.042l-1.99-6.637A3.377,3.377,0,0,0,6.778-27H-6.778a3.377,3.377,0,0,0-3.234,2.405Zm-3.75,6.708V-4.5h31.5v-6.75a4.5,4.5,0,0,0-2.974-4.233l-.028.007-.007-.021a4.575,4.575,0,0,0-1.491-.253h-22.5a4.534,4.534,0,0,0-1.489.253l-.007.021-.032-.007A4.5,4.5,0,0,0-15.75-11.25Z" transform="translate(18 29.25)"/>
</svg>
