<svg xmlns="http://www.w3.org/2000/svg" width="36" height="31.5" viewBox="0 0 36 31.5">
  <path id="Trazado_17223" data-name="Trazado 17223" d="M3.312-17.177c-3-3.023-5.37-1.837-6.346-1.02a4.255,4.255,0,0,0-.3,6.258L2.626-5.918a.968.968,0,0,0,1.389,0l5.959-6.021A4.263,4.263,0,0,0,9.657-18.2C8.733-19.012,6.363-20.2,3.312-17.177Zm5.1,3.656L3.371-8.414l-5.045-5.107a2.01,2.01,0,0,1,.141-2.953,2.071,2.071,0,0,1,2.707.264l2.206,2.232,2.206-2.232a2.048,2.048,0,0,1,2.7-.264A2.008,2.008,0,0,1,8.416-13.521Zm7.762-15.071a1.372,1.372,0,0,0-.282-.373,1.111,1.111,0,0,0-.933-.268,1.115,1.115,0,0,0-.8.558,9.86,9.86,0,0,1-8.859,5.051H.488a11.831,11.831,0,0,0-11.738,11.9,11.664,11.664,0,0,0,.073,1.185A20.966,20.966,0,0,0-17.974.89a1.126,1.126,0,0,0,.863,1.336,1.144,1.144,0,0,0,.237.024,1.123,1.123,0,0,0,1.1-.89,18.613,18.613,0,0,1,5.174-9.3A11.6,11.6,0,0,0-9.86-6.192h0A11.748,11.748,0,0,0,.485,0a10.721,10.721,0,0,0,1.2-.064C11.138-.752,18-9.042,18-19.786a22.226,22.226,0,0,0-1.821-8.806ZM1.413-2.306a8.688,8.688,0,0,1-.992.055,9.486,9.486,0,0,1-8.36-5.007A10.1,10.1,0,0,1-9-11.728,9.7,9.7,0,0,1,.485-21.375H5.306a12.3,12.3,0,0,0,9.548-4.352,20.483,20.483,0,0,1,.9,5.941C15.75-10.252,9.766-2.9,1.413-2.306Z" transform="translate(18 29.25)"/>
</svg>
