<?xml version="1.0" encoding="UTF-8"?>
<svg id="Layer_1" data-name="Layer 1" xmlns="http://www.w3.org/2000/svg" viewBox="0 0 512 512">
  <defs>
    <style>
      .cls-1 {
        fill: #fff;
      }
    </style>
  </defs>
  <path class="cls-1" d="M0,270.97c9.05-11.08,20.62-19.24,32.57-26.66,41.97-26.05,87.62-42.68,136.25-51.1,13.73-2.38,27.63-3.81,42.15-5.77-.26-2.46-.56-5.33-.85-8.21-3.22-31.52-3.44-63.14,.3-94.54,2.78-23.32,7.9-46.36,12.05-69.52,1.02-5.69,4.54-8.6,10.31-9.93,26.14-6.04,52.47-5.52,78.93-3.12,26.9,2.44,53.31,7.39,79.05,15.45,36.81,11.53,72.04,26.54,103.05,49.96,6.55,4.95,12.15,11.14,18.19,16.76v6.99c-4.02,11.88-7.7,23.89-12.12,35.62-19.93,52.8-46.55,101.77-84.94,143.65-19.25,21-40.75,39.27-68.34,48.75-12.38,4.25-25.06,6.66-38.25,4.76-1.14-.16-2.31-.02-4.37-.02,0,2.56,.05,5.13,0,7.69-.8,34.69-5,68.85-16.87,101.69-7.58,21-18.04,40.26-34.76,55.64-12.32,11.33-26.65,18.48-43.13,21.41-1.1,.2-2.14,.7-3.21,1.05h-20c-.76-.31-1.5-.8-2.28-.9-13.04-1.63-25.1-6.16-36.54-12.42-25.1-13.72-45.12-33.34-62.86-55.31-34.14-42.27-58.89-89.71-76.41-141-2.72-7.96-5.28-15.97-7.91-23.96,0-2.33,0-4.66,0-6.99ZM233.16,58.33c-1.63,20.09-3.72,39.74-4.69,59.44-1.57,31.65,.53,63.13,7.54,94.12,5.19,22.96,12.64,45.09,27.06,64.19,10.22,13.53,23.07,23.32,40.07,26.93,19.36,4.11,36.88-1.18,53.54-10.52,19.89-11.15,36.29-26.52,50.79-43.8,35.7-42.54,60.98-90.89,78.54-143.36,5.21-15.55,4.85-15.59-8.85-25.1-27.85-19.32-58.51-32.76-90.71-42.84-25.29-7.92-51.18-12.92-77.62-15.24-21.3-1.87-42.54-2.37-63.69,1.32-1.79,.31-4.03,2.11-4.72,3.78-1.27,3.05-1.54,6.52-2.29,10.1,7.65-.69,14.75-1.54,21.87-1.91,6.63-.34,11.11,3.46,11.48,9.12,.38,5.89-3.77,10.09-10.59,10.8-8.76,.91-17.52,1.87-27.73,2.96Zm-18.91,149.39c-12.89,1.52-25.49,2.52-37.91,4.58-35.92,5.95-70.39,16.69-103.17,32.62-17.09,8.3-33.55,17.67-48.14,29.97-1.41,1.19-3.05,3.54-2.78,5.03,.79,4.32,2.5,8.47,3.97,13.04,5.93-4.23,11.28-8.5,17.11-11.99,2.77-1.66,6.86-3.13,9.58-2.27,2.9,.92,5.75,4.32,7.06,7.32,1.76,4.04-.52,7.8-3.96,10.39-6.38,4.79-12.8,9.56-19.39,14.06-2.73,1.87-3.19,3.53-1.77,6.52,7.39,15.58,14.15,31.48,21.95,46.85,15.81,31.14,35.37,59.79,59.78,84.91,15.17,15.61,31.97,29.14,52.53,37.22,23.47,9.21,45.57,7.15,65.81-8.55,14.1-10.94,22.93-25.74,29.62-41.85,15.26-36.7,18.74-75.46,19.4-114.65,.02-1.09-.58-2.71-1.42-3.21-5.09-3.08-10.33-5.9-15.68-8.91-.98,.94-1.92,1.84-2.87,2.74-14.57,13.77-31.59,18.53-51.02,13.27-13.07-3.54-23.17-11.39-30.3-22.9-3.2-5.16-2.13-11.08,2.32-14.21,4.52-3.19,10.18-2.13,14.08,2.67,.84,1.03,1.52,2.18,2.31,3.25,12.5,16.93,37.43,17.39,50.33,.85-21.01-24.81-30.7-54.59-37.43-86.74Z"/>
  <path class="cls-1" d="M327.01,257.41c-22.65-.53-43.53-15.78-50.29-37.63-2.08-6.74,.32-12.19,6.24-14.15,5.21-1.73,10.6,1.13,12.72,7.45,2.65,7.91,7.22,14.18,14.31,18.52,11.27,6.91,25.99,5.84,36.42-2.5,1.56-1.24,3.05-2.61,4.74-3.64,3.88-2.37,8.75-1.71,11.96,1.43,3.29,3.2,4.48,8.91,1.28,12.2-4.32,4.45-9.19,8.94-14.72,11.49-7.09,3.27-15.07,4.64-22.66,6.83Z"/>
  <path class="cls-1" d="M271.21,91.89c28.31,.92,51.94,23.67,52.59,51.4,.15,6.28-3.61,10.96-9.32,11.61-5.2,.6-9.62-3.26-10.74-9.45-.5-2.77-.59-5.64-1.3-8.34-5.14-19.48-25.67-29.24-44.11-21.05-8.4,3.73-14.03,2.62-16.76-3.3-2.76-5.98-.12-11.63,8.26-14.89,6.87-2.67,14.24-4.03,21.39-5.97Z"/>
  <path class="cls-1" d="M405.32,129.25c14.71,.68,29.51,8.51,39.77,24.36,3.69,5.69,2.73,11.59-2.17,14.95-4.79,3.29-10.91,1.98-14.56-3.87-12.58-20.18-41.66-20.54-54.62-.1-3.92,6.18-9.97,7.29-14.96,3.66-4.69-3.41-5.31-9.27-1.6-15.08,9.6-15.01,26.11-23.98,48.13-23.93Z"/>
  <path class="cls-1" d="M300.22,45.43c.11,5.49-3.95,9.77-9.46,9.97-6.18,.23-10.63-3.78-10.78-9.68-.14-5.8,3.95-10.14,9.68-10.26,6.06-.13,10.44,4.02,10.56,9.98Z"/>
  <path class="cls-1" d="M201.71,399.94c13.42,.46,25.36,4.72,35.4,13.82,5.23,4.74,6.01,10.76,1.95,15.31-3.97,4.44-9.79,4.64-15.08-.03-8.93-7.88-19.14-10.5-30.53-7.49-11.1,2.93-18.21,10.33-22,21.12-2.45,6.99-7.57,9.95-13.17,8.01-5.61-1.95-8.04-7.02-6.32-13.21,5.99-21.58,26.87-37.33,49.75-37.52Z"/>
  <path class="cls-1" d="M90.92,364.48c-7.85-2.41-15.88-4.34-23.48-7.36-6.66-2.64-8.78-8.72-6.04-14.12,2.6-5.14,8.55-7.04,14.68-3.86,14.88,7.72,30.89,2.68,39.15-6.95,4.81-5.61,7.46-12.02,7.89-19.44,.52-8.79,6.79-13.63,13.83-10.86,4.86,1.91,6.54,5.8,6.41,10.71-.74,28.14-23.75,50.47-52,50.48-.14,.46-.29,.93-.43,1.39Z"/>
  <path class="cls-1" d="M75.2,283.94c-5.66,.09-10.16-4.31-10.15-9.92,.01-5.44,4.5-9.88,10.18-10.05,5.62-.17,10.31,4.14,10.5,9.65,.19,5.41-4.73,10.23-10.53,10.32Z"/>
</svg>