<?xml version="1.0" encoding="UTF-8"?>
<svg id="Layer_1" data-name="Layer 1" xmlns="http://www.w3.org/2000/svg" viewBox="0 0 512 512">
  <defs>
    <style>
      .cls-1 {
        fill: #fff;
      }
    </style>
  </defs>
  <path class="cls-1" d="M512,242v9.98c-4.81,12.39-13.95,17.11-27.03,16.23-9.45-.64-18.99-.27-28.48-.08-7.64,.15-15.04-.18-21.09-6.58-6.11,19-5.87,37.2,.67,55.24,.52,1.42,3.15,2.59,4.98,2.93,10.38,1.97,18.32,10.35,19.04,20.83,.23,3.34-.24,6.72-.4,10.34,1.12,0,2.1-.03,3.09,0,13.13,.47,23.19,9.68,24.08,22.04,.86,12.02-7.73,22.23-20.55,24.85-1.45,.3-3.2,2.13-3.71,3.62-6.18,18.21-6.23,36.5,.18,54.65,.6,1.69,2.85,3.47,4.67,3.95,12.61,3.29,20.66,13.61,19.37,25.34-1.39,12.64-11.29,21.13-24.71,21.13-128.27,0-256.54,.01-384.81,0-33.01,0-62.69-21.3-73.21-52.57C2.42,448.9,1.35,443.71,0,438.61c0-6.32,0-12.64,0-18.96,.33-1.1,.76-2.17,.97-3.29,5.49-29.35,22.36-49.35,49.96-60.48,2.86-1.15,5.85-1.98,9.04-3.04-27.32-21.67-39.54-49.08-31.15-82.9,8.54-34.38,32.51-53.16,67.43-59.35,0-1.75,0-3.55,0-5.34,0-20.79-.14-41.58,.11-62.37,.05-4.37-1.15-6.35-5.4-7.77-23.31-7.79-46.54-15.82-69.7-24.04-3.46-1.23-7.15-3.27-9.47-6-7.27-8.57-3.22-20.86,7.96-24.77,35.44-12.36,70.92-24.59,106.39-36.86,5.96-2.06,11.89-4.25,17.94-6,4.26-1.23,7.51,.51,9.17,4.73,1.46,3.72-.24,7.38-4.31,9.36-1.34,.65-2.76,1.15-4.17,1.64-31.07,10.71-62.14,21.41-93.21,32.12-9.18,3.17-18.35,6.38-27.52,9.57,0,.39,0,.77,0,1.16,23.83,8.23,47.65,16.47,71.85,24.82,.28-1.65,.43-2.61,.61-3.57,1.88-10.27,7.08-15.24,17.34-17.07,36.11-6.45,72.48-10.03,109.15-11.11,50.95-1.5,101.45,2.51,151.6,11.31,8.63,1.51,14.43,7.92,15.51,16.6,.14,1.09,.4,2.16,.72,3.87,24.26-8.38,48.12-16.62,73.15-25.27-2.54-1.08-3.83-1.71-5.18-2.18-68.27-23.61-136.55-47.19-204.8-70.83-7.23-2.5-14.19-2.5-21.43,.09-16.26,5.81-32.61,11.35-48.96,16.9-6.26,2.13-11.73-1.16-11.41-6.82,.24-4.17,2.94-6.28,6.8-7.59,16.2-5.48,32.4-10.99,48.5-16.77,10.46-3.75,20.67-3.82,31.19-.18,68.54,23.76,137.11,47.4,205.68,71.07,10.91,3.76,14.04,7.99,14.06,19.41,.03,15.3,.03,30.6-.02,45.91,0,2.47,.31,4.06,3.13,5.26,19.04,8.11,25.04,28.16,14.07,45.9-.72,1.17-1.14,3.16-.67,4.35,5.56,14.01,11.33,27.93,17.04,41.88Zm-197.87,155.75c-2.32,0-4.11,0-5.89,0-75.66,0-151.33,0-226.99,0-1.33,0-2.67-.02-4,.05-20.71,1.16-34.48,19.64-29.25,39.25,3.63,13.59,15.9,22.59,31.01,22.59,96.66,.02,193.33,0,289.99,.01,1.83,0,3.68-.12,5.49,.09,4.13,.49,7.22,3.89,7.17,7.67-.05,3.92-3.02,6.95-7.36,7.36-1.82,.17-3.66,.11-5.49,.11-95.5,0-190.99,0-286.49,0-2.83,0-5.67-.09-8.49-.27-26.96-1.67-47.2-28.71-41.24-55.08,5-22.15,23.15-36.76,45.95-36.77,126.66-.03,253.33-.02,379.99-.02,1.67,0,3.34,.1,5-.05,4.67-.42,7.86-3.69,7.98-8.04,.12-4.46-2.8-7.7-7.6-8.24-1.98-.22-3.99-.17-5.99-.17-125.16,0-250.33,0-375.49,0-3.16,0-6.33,.12-9.49,.32-37.31,2.3-64.81,39.08-56.37,75.35,6.96,29.88,31.87,49.58,62.89,49.59,126.83,.02,253.66,0,380.49,0,1,0,2,.05,3-.02,5.05-.37,8.39-3.52,8.55-8.03,.17-4.6-2.86-7.85-8-8.44-1.65-.19-3.33-.13-4.99-.13-16.17-.01-32.33,.05-48.5-.05-5.34-.03-8.74-3.23-8.65-7.63,.09-4.35,3.64-7.49,8.87-7.53,10.5-.09,21-.03,31.5-.03,1.75,0,3.5,0,4.57,0-1.17-10.78-3.13-20.95-3.14-31.13,0-10.15,1.94-20.3,3.03-30.44h-70.66c0,2.13,0,3.94,0,5.75,0,11.14,.07,22.29-.03,33.43-.08,8.74-4.51,11.75-12.54,8.69-4.81-1.83-9.53-3.98-14.45-5.44-2.31-.68-5.19-.65-7.49,.07-5.22,1.62-10.21,3.97-15.36,5.84-6.47,2.34-11.31-.95-11.47-7.88-.16-6.82-.04-13.64-.04-20.46,0-6.61,0-13.21,0-20.33Zm121.98-171.83c-2.11,0-3.73,0-5.34,0-108.33,0-216.66-.01-324.99,.05-4.47,0-8.99,.34-13.4,1.07-32.7,5.39-56.41,39.8-49.83,72.15,6.42,31.56,31.08,51.7,63.45,51.71,109.16,.02,218.33,0,327.49,0,1.17,0,2.34,.04,3.5-.03,4.95-.3,8.16-3.62,8.06-8.29-.1-4.46-3.2-7.56-7.96-7.86-1.66-.1-3.33-.05-5-.05-75.67,0-151.33,0-227-.02-1.98,0-4.04,.03-5.93-.45-3.65-.92-5.76-3.6-5.72-7.25,.05-3.85,2.16-6.64,6.19-7.33,2.12-.36,4.31-.39,6.46-.39,69.17-.02,138.33-.02,207.5-.02h5.57c-1.15-10.71-3.06-20.72-3.05-30.73,.01-10.14,1.94-20.27,3.05-30.62H192.89c0,2.06,0,3.84,0,5.63,0,11.31,.08,22.62-.03,33.93-.07,7.27-5.34,11.42-11.5,8.04-13.04-7.15-25.33-7.15-38.36,0-6.06,3.33-11.21-.54-11.34-7.61-.2-11.47-.06-22.95-.07-34.43,0-1.78,0-3.56,0-5.7-10.3,0-19.95-.37-29.57,.08-19.47,.92-32.96,20.29-27.51,39.02,4.05,13.9,15.58,22.27,31.16,22.35,19.5,.1,39-.02,58.5,.06,5.96,.03,9.69,3.34,9.49,7.96-.2,4.45-3.87,7.42-9.53,7.43-20,.04-40,.28-60-.06-31.43-.54-53.11-30.23-44.02-59.85,6.12-19.94,24.23-32.58,46.89-32.58,105.5-.02,211,0,316.49,0,1.5,0,3.04,.21,4.48-.09,.96-.2,2.23-.93,2.58-1.75,1.91-4.55,3.59-9.2,5.56-14.39ZM111.8,169.91h6.53c56.83,0,113.65,0,170.48,0,1.83,0,3.67-.04,5.49,.12,4.35,.39,7.31,3.4,7.36,7.33,.05,4.04-3.22,7.34-7.67,7.66-1.49,.11-3,.03-4.5,.03-57.16,0-114.32,0-171.48,0h-6.02v25.11H374.78v-25.11c-14.73,0-29.18,.01-43.64,0-6.08,0-9.77-2.88-9.81-7.55-.04-4.69,3.51-7.54,9.73-7.57,12.83-.06,25.66-.02,38.49-.02,1.74,0,3.49,0,5.49,0,0-17.29,0-33.75,0-50.2,0-3.19-1.94-4.11-4.74-4.61-34.46-6.18-69.2-10.16-104.18-10.65-25.79-.37-51.67,.11-77.38,1.96-24.34,1.75-48.52,5.7-72.73,8.97-1.57,.21-4.01,2.81-4.04,4.34-.29,16.45-.18,32.9-.18,50.2Zm278.46,40.66h5.89c13.49,0,26.99,.11,40.47-.1,2.29-.04,6.08-.88,6.56-2.26,1.49-4.27,6.12-7.94,2.26-13.64-7.61-11.22-6.66-25.98,2.48-35.96,4-4.37,9.52-7.36,14.93-11.42v-34.91c-1.55,.44-2.82,.74-4.05,1.17-21.33,7.36-42.62,14.83-64.01,22.01-3.7,1.24-4.67,3.05-4.63,6.78,.19,20.95,.09,41.89,.09,62.84v5.5Zm69.81-2.59c-4.74,11.67-9.98,24.14-14.85,36.76-1.59,4.13,1.09,8.09,5.4,8.16,13.46,.21,26.92,.2,40.38,0,4.12-.06,6.97-3.92,5.56-7.59-4.91-12.78-10.15-25.43-14.95-37.33h-21.53Zm-130.21,221.41c10.13-7.9,20.02-6.68,29.81-.75v-30.54h-29.81v31.29Zm-152.8-141.2v-30.3h-29.8v30.4c10.03-6.87,19.75-6.8,29.8-.1Zm293.95-94.92c8.36-.08,15.19-7.13,14.96-15.42-.23-8.36-7.19-14.96-15.6-14.79-8.16,.16-14.52,6.82-14.49,15.19,.02,8.58,6.6,15.11,15.13,15.02Z"/>
</svg>