<?xml version="1.0" encoding="UTF-8"?>
<svg id="Layer_1" data-name="Layer 1" xmlns="http://www.w3.org/2000/svg" viewBox="0 0 512 512">
  <defs>
    <style>
      .cls-1 {
        fill: #fff;
      }
    </style>
  </defs>
  <path class="cls-1" d="M223.72,448.41c-5.42-1.09-9.08-.82-12.12,4.68-5.16,9.34-16.71,12.98-26.94,9.84-10.63-3.26-17.21-12.67-16.94-24.22,.24-10.21,7.49-19.09,17.91-21.96,10.17-2.8,21.42,1.51,26.59,10.89,1.91,3.46,3.91,4.49,7.68,4.44,15.5-.21,31-.09,46.49-.09h5.32c0-11.43,0-22.36,0-33.29,0-4.66-.06-9.32,.02-13.97,.1-5.69,2.94-8.56,8.64-8.6,11.33-.07,22.66-.02,34-.02,1.63,0,3.25,0,5.34,0,0-12.74,0-25,0-37.26,0-8.31,2.33-10.63,10.63-10.64,12-.03,23.99-.05,35.99-.1,.29,0,.58-.23,1.37-.57,0-12.06,0-24.32,0-36.57,0-8.34,2.31-10.66,10.61-10.66,12.29,0,24.58,0,37.39,0,0-12.7,0-24.96,0-37.22,0-8.36,2.3-10.68,10.59-10.69,14.5,0,29-.02,43.49,0,7.28,.01,9.89,2.61,9.9,9.88,.01,61.04,0,122.08,0,183.12,0,1.97,0,3.95,0,6.47h15.72v16.09c-42.5,0-85.08,0-127.65,0s-84.94,0-128.07,0c0,7.72,0,15.13,0,22.55-.02,15.36-9.92,25.35-25.19,25.35-57.83,.01-115.65,.01-173.48,0-15.35,0-25.31-9.93-25.32-25.22-.01-60.87,.04-121.75-.06-182.62-.01-7.65,2.63-13.83,7.99-19.15,17.6-17.48,35.15-35.01,52.68-52.57,5.33-5.34,11.54-7.96,19.21-7.93,38.83,.13,77.67,.58,116.48-.19,15.92-.31,29.43,10.52,27.71,28.09-.11,1.13-.01,2.28-.01,3.75h-15.99c0-2.04,.04-3.98,0-5.92-.15-6.44-3.14-9.67-9.43-9.68-38.83-.05-77.66-.02-116.49,0-.48,0-.96,.15-2.09,.33,0,3.36,0,6.79,0,10.22,0,9.48,.02,18.96,0,28.44-.04,14.65-10.13,24.81-24.69,24.85-12.5,.04-25,.02-37.5,.04-.33,0-.66,.08-1.81,.24v5.1c0,58.21,0,116.43,0,174.64,0,9.03,2.57,11.63,11.52,11.63,56.33,0,112.65,0,168.98,0,8.93,0,11.5-2.61,11.51-11.64,0-6.61,0-13.22,0-19.84Zm239.75-199.74h-31.4v183.09h31.4V248.67Zm-79.42,47.81v135.12h31.41v-135.12h-31.41Zm-48,47.91v87.21h31.42v-87.21h-31.42Zm-16.66,87.36v-39.31h-31.44v39.31h31.44ZM79.67,237.91c-11.5,11.44-23.09,22.96-34.56,34.37,8.39,0,17.34,.15,26.29-.06,4.76-.11,8.05-3.14,8.19-7.76,.27-9.08,.08-18.18,.08-26.55Zm111.98,209.98c4.12,.03,8.04-3.88,8.01-8-.03-4.11-4.04-7.99-8.13-7.87-3.93,.11-7.65,3.82-7.76,7.75-.12,4.09,3.76,8.09,7.88,8.12Z"/>
  <path class="cls-1" d="M342.98,212.5c-17.95,17.96-35.96,35.72-53.61,53.82-4.32,4.42-8.73,6.33-14.9,6.09-11.31-.43-22.64-.12-34.5-.12v143.37h-16.04v-143.34c-5.57,0-10.83-.2-16.05,.16-1.1,.08-2.28,2.07-3.05,3.4-5.6,9.65-16.44,14.47-26.76,11.79-11.21-2.91-18.4-12.18-18.34-23.65,.05-11.09,7.37-20.29,18.4-23.11,10.34-2.65,21.32,2.09,26.59,11.94,1.52,2.85,3.22,3.55,6.2,3.53,20.49-.12,40.98-.02,61.48-.13,1.82,0,4.17-.45,5.36-1.61,17.09-16.78,34.02-33.72,51.25-50.87-27.69-22.57-42.12-51.2-41.23-86.86,.63-25.42,9.84-47.65,26.87-66.41,36.08-39.76,96.12-45.76,139-14.2,43.43,31.97,55.5,90.74,28.31,136.98-26.6,45.24-85.91,66.17-138.97,39.2Zm40.75-178.71c-32.37-.55-67.71,29.09-76.9,63.95-10.27,38.95,7.17,80.02,41.88,99.35,33.98,18.92,73.84,11.5,94.61-6.36-18.69-21-37.46-41.92-55.94-63.09-2.06-2.36-3.43-6.13-3.49-9.28-.34-16.78-.16-33.57-.16-50.36,0-11.28,0-22.56,0-34.21Zm16.34,.17V112.35h78.57c-1.8-41.52-40.34-77.42-78.57-78.39Zm78.98,95.03h-69c15.58,17.48,30.65,34.37,45.89,51.45,13.52-15.1,21.29-31.83,23.12-51.45ZM191.66,264.2c-.06-4.12-4.09-7.98-8.18-7.83-3.93,.14-7.63,3.88-7.71,7.8-.09,4.09,3.82,8.07,7.93,8.07,4.13,0,8.02-3.93,7.96-8.04Z"/>
  <path class="cls-1" d="M195.54,122.62c12.3-10.52,24.35-20.73,36.21-31.17,.92-.81,.94-3.28,.59-4.8-3.11-13.17,4.28-25.71,17.45-29.28,12.53-3.4,25.43,4.12,29.09,16.98,3.59,12.6-3.56,25.9-16.5,29.13-4.59,1.15-9.77-.12-14.67-.04-2.06,.04-4.66,.07-6.07,1.24-13.29,11.09-26.42,22.37-39.48,33.74-1.52,1.32-2.71,3.33-3.39,5.25-3.4,9.48-9.98,15.4-19.91,16.64-10.8,1.35-19-3.21-24.62-12.62-.88-1.47-3.09-2.97-4.73-3.03-9.16-.29-18.33-.29-27.49,0-1.66,.05-3.93,1.47-4.79,2.93-6.33,10.72-16.88,15.07-28.97,11.95-1.6-.41-4.15,.3-5.37,1.44-6.32,5.92-12.27,12.21-18.5,18.22-1.99,1.92-2.62,3.51-1.75,6.4,4,13.25-3.34,26.21-16.63,29.96-12.81,3.62-25.87-3.8-29.47-16.94-2.39-8.72-.29-16.56,6-22.95,6.44-6.54,14.45-8.92,23.31-6.26,3.46,1.04,5.4,.27,7.68-2.12,5.75-6.02,11.67-11.87,17.66-17.65,1.86-1.8,2.43-3.29,1.62-5.97-3.7-12.21,2.05-24.35,13.49-29.2,11.67-4.95,24.4-.5,30.65,11.02,1.33,2.45,2.76,3.19,5.4,3.15,9-.15,18,.04,26.99-.15,1.5-.03,3.83-.91,4.33-2.03,6.58-14.84,28.41-20.18,41.85-3.84Zm60.14-49.87c-4.15,.04-8,3.97-7.91,8.09,.09,4.13,4.14,7.95,8.23,7.77,3.95-.17,7.6-3.91,7.66-7.84,.06-4.1-3.87-8.05-7.97-8.02Zm-152.03,63.73c-.06-4.14-4.05-7.99-8.15-7.84-4.15,.15-7.94,4.2-7.73,8.26,.2,3.94,3.97,7.57,7.9,7.59,4.11,.03,8.04-3.92,7.98-8.01Zm72.21,8.02c4.14-.1,7.97-4.13,7.79-8.21-.17-3.96-3.91-7.6-7.84-7.65-4.13-.05-8.05,3.82-8.04,7.96,0,4.12,3.98,8,8.09,7.9ZM47.66,192.29c-.11-4.15-4.16-7.96-8.23-7.76-4.16,.21-7.9,4.29-7.64,8.35,.25,3.94,4.07,7.54,7.99,7.51,4.13-.03,8-4,7.89-8.1Z"/>
  <path class="cls-1" d="M199.45,359.92H104.08v-15.46h95.37v15.46Z"/>
  <path class="cls-1" d="M135.49,384.44v15.35H56.13v-15.35h79.35Z"/>
  <path class="cls-1" d="M55.95,319.85v-15.34h47.36v15.34H55.95Z"/>
  <path class="cls-1" d="M151.97,399.71v-15.38h47.36v15.38h-47.36Z"/>
  <path class="cls-1" d="M151.49,424.36v15.35h-47.36v-15.35h47.36Z"/>
  <path class="cls-1" d="M119.95,319.85v-15.35h39.36v15.35h-39.36Z"/>
  <path class="cls-1" d="M87.49,344.52v15.35h-31.36v-15.35h31.36Z"/>
  <path class="cls-1" d="M87.36,439.74h-31.37v-15.35h31.37v15.35Z"/>
  <path class="cls-1" d="M143.5,264.57v15.37h-23.48v-15.37h23.48Z"/>
  <path class="cls-1" d="M176,304.47h23.36v15.42h-23.36v-15.42Z"/>
</svg>