<?xml version="1.0" encoding="UTF-8"?>
<svg id="Layer_1" data-name="Layer 1" xmlns="http://www.w3.org/2000/svg" viewBox="0 0 512 512">
  <defs>
    <style>
      .cls-1 {
        fill: #fff;
      }
    </style>
  </defs>
  <path class="cls-1" d="M1,458.11c2.65-11.23,10.02-19.08,18.27-26.61,33.93-30.99,67.65-62.21,101.45-93.33,4.12-3.8,7.72-4.33,11.13-1.76,4.3,3.24,4.12,8.38-.61,12.76-17.36,16.05-34.76,32.05-52.15,48.07-18.37,16.92-36.76,33.82-55.11,50.75-9.89,9.13-10.6,22.38-1.77,31.38,8.73,8.89,22.37,8.51,31.45-1.27,39.29-42.34,78.48-84.77,117.71-127.18,6.99-7.55,13.96-15.12,20.7-22.41-6.15-6.18-12-12.06-18.36-18.45-4.41,4.07-8.97,8.62-13.94,12.67-2.03,1.65-5.02,3.21-7.42,3.01-2.13-.18-5.36-2.58-5.76-4.49-.55-2.64,.24-6.46,1.98-8.48,3.99-4.64,8.84-8.55,13.44-12.64,1.98-1.75,2.82-3.23,2.26-6.28-3.55-19.39,12.31-34.38,31.59-30.3,1.47,.31,3.43,0,4.68-.79,1.48-.93,2.45-2.67,3.63-4.07,10.57-12.61,21.14-25.22,31.91-38.07-13.61-6.14-15.18-19.45-18.75-31.17-1.86-6.09,1.17-12.05,5.52-16.87,1.43-1.58,2.92-3.1,4.48-4.75-4.51-4.29-8.81-8.38-13.2-12.56-18.23,10.99-38.38,3.85-43.42-16.03-2.49-9.83,.51-18.27,7.69-25.41,24.9-24.78,49.74-49.62,74.61-74.43,5.54-5.53,11.06-11.08,16.62-16.58,10.62-10.49,24.94-11.73,35.61-3.13,12.82,10.33,15.29,24.22,6.67,37.47-.27,.42-.55,.83-.7,1.06,4.32,4.18,8.59,8.32,12.43,12.04,4.7-2.64,9.78-5.99,15.28-8.36,2.49-1.07,6.07-.92,8.73-.05,7.08,2.32,14.03,5.12,20.8,8.21,2.25,1.03,4.02,3.4,5.67,5.42,3.62,4.43,6.8,9.24,10.58,13.53,4.22,4.79,5.02,8.75,1.72,12.26-3.46,3.68-7.74,3.21-12.56-1.37-.83-.79-1.69-1.54-2.09-1.91-39.34,39.27-78.53,78.38-117.49,117.27,10.69,10.67,21.97,21.93,32.79,32.74,38.86-38.79,78.02-77.86,117.48-117.25-.98-1.05-2.75-2.74-4.27-4.64-2.75-3.44-2.54-7.49,.35-10.35,2.76-2.73,7.19-2.9,10.42-.17,2.16,1.82,3.92,4.1,6.11,5.88,2.65,2.16,5.55,4.03,8.36,5.99,1.22,.85,2.93,1.33,3.71,2.46,7.06,10.35,13.88,21.17,11.36,34.28-1.01,5.28-5.5,9.89-8.6,15.13,3.63,3.48,7.91,7.58,12.24,11.73,10.73-7.37,24.77-8.8,36.62,3.64,10.39,10.92,10.73,25.71,.37,36.71-6.16,6.54-12.67,12.76-19.03,19.11-20.62,20.58-41.25,41.16-61.87,61.75-1.28,1.27-2.5,2.6-4.71,4.91h6.29c26.5,0,53.01,.54,79.49-.21,14.98-.42,25.9,3.96,31.59,18.4v10.98c-4.52,12.66-12.97,19.67-27,19.11-1.42-.06-3.47,1.63-4.32,3.05-7.12,11.96-10.53,24.98-10.78,38.88-.1,5.58-3.4,9-8.06,8.77-4.45-.22-7.16-3.64-7.15-9.05,0-2.43,0-4.86,0-7.72h-5.69c-28.5,0-57,0-85.5,0-1.83,0-3.7,.11-5.49-.18-4.01-.64-6.12-3.21-6.22-7.2-.11-4.05,2.14-6.54,5.95-7.52,1.42-.36,2.98-.16,4.48-.16,29.83,0,59.66,0,89.5,0h5.62c2.41-6.48,4.65-12.5,6.99-18.77-1.04-.09-1.83-.22-2.62-.22-93.5,0-186.99-.01-280.49,.02-1.28,0-3.05-.09-3.78,.66-5.58,5.73-10.96,11.66-17.13,18.32h6.86c42.16,0,84.33,0,126.49,0,7.71,0,11.2,2.28,11.31,7.39,.11,5.26-3.49,7.68-11.51,7.68-44.5,0-89,0-133.49,0h-5.97c-1.3,16.17,.27,31.21,6.22,45.65,3.14,7.64,3.19,7.61,11.58,7.4,1.5-.04,3,0,4.5,0,93.83,0,187.66,0,281.49,0,2.05,0,4.1,0,6.78,0-.89-2.18-1.38-3.38-1.88-4.58-2.19-5.33-1.05-9.59,3.08-11.49,4.32-1.99,8.4,.09,11,5.58,.92,1.95,2.02,3.83,2.8,5.83,1.39,3.52,3.61,4.87,7.6,4.79,8.49-.17,15.58,3.25,20.51,10.33,1.76,2.53,2.91,5.48,4.34,8.24v10.98c-5.15,14.13-15.45,19.06-30.19,19.01-100.94-.3-201.88-.16-302.83-.16-2.83,0-5.67,.07-8.49-.03-10.93-.37-20.42-7.74-23.02-18.1-.71-2.83-.72-5.83-1.09-9.08-2.37,0-4.54-.18-6.67,.03-11.44,1.1-19.16-3.9-23.81-14.16-2.72-6-5.51-11.97-8.4-18.24-1.31,1.42-2.53,2.76-3.77,4.09-13.8,14.89-27.26,30.1-41.47,44.59-19.91,20.29-53.61,11.15-61.19-16.21-.26-.93-.7-1.81-1.06-2.71,0-4.32,0-8.65,0-12.97Zm330.04,9.78c-51.64,0-103.28,0-154.92,0-1.83,0-3.68-.11-5.49,.11-4.6,.57-7.09,3.44-7.63,7.88-.53,4.4,2.27,8.35,6.57,9.24,2.09,.43,4.3,.43,6.46,.43,102.95,.02,205.89,.02,308.84,0,1.99,0,4.02,0,5.97-.36,4.21-.77,7.34-4.89,7.07-8.98-.28-4.24-3.69-7.84-7.96-8.23-1.82-.17-3.66-.09-5.49-.09-51.14,0-102.28,0-153.42,0Zm-138.24-117.56c2.81,0,4.56,0,6.31,0,61.81,0,123.62,0,185.43,0,34.15,0,68.31,.02,102.46-.02,6.62,0,10.96-3.72,10.92-9.1-.03-5.24-4.25-8.89-10.51-8.89-84.47-.02-168.94-.02-253.41,.05-1.84,0-3.92,.64-5.48,1.63-6.53,4.15-13.47,5.32-21.02,3.79-1.23-.25-3.11,.06-3.93,.87-3.5,3.46-6.71,7.2-10.78,11.67Zm154.55-62.08c-4.37-4.43-8.64-8.76-12.27-12.44-4.87,2.92-9.31,6.76-14.47,8.43-11.21,3.63-31.85-6.18-38.71-17.52-.3,.06-.69,.02-.89,.2-13.81,11.48-27.63,22.96-41.36,34.53-.85,.71-1.58,2.23-1.48,3.29,.38,4.05,1.12,8.06,1.73,12.13h104.45c-3.97-10.44-3.71-20.12,2.99-28.62Zm-45.61-244.82c-.04-5.9-4.07-11.65-8.36-13.27-4.9-1.85-9.07-.51-12.72,3.13-30.5,30.47-61.04,60.88-91.51,91.38-5.55,5.56-5.49,11.2-.24,16.61,5.52,5.7,11.42,6.06,17.01,.51,30.69-30.5,61.32-61.07,91.84-91.75,2.09-2.1,3.16-5.23,3.97-6.62Zm171.55,171.73c.07-7.44-3.35-10.95-7.95-13.38-4.57-2.41-8.86-1.07-12.32,2.37-30.91,30.76-61.78,61.54-92.58,92.41-5.22,5.23-4.75,11.29,.73,16.64,5.17,5.04,11.2,5.29,16.31,.21,30.8-30.63,61.55-61.3,92.2-92.08,1.96-1.97,2.92-4.94,3.62-6.17Zm-176.2,47.92c5.46,2.14,11.02,4.7,16.83,6.35,1.86,.53,5.04-.75,6.57-2.26,34.39-34.08,68.65-68.28,102.83-102.57,1.47-1.47,3.03-4.34,2.56-6-1.73-6.07-4.29-11.9-6.46-17.6-40.95,40.87-81.29,81.13-122.33,122.08Zm-58.46-59.18c40.68-40.59,81.08-80.9,121.42-121.16-3.3-1.36-7.78-3.05-12.13-5.03-4.19-1.91-7.4-1.21-10.71,2.14-15.2,15.41-30.59,30.63-45.91,45.92-18.5,18.47-37.04,36.89-55.42,55.47-1.7,1.72-3.73,4.84-3.24,6.69,1.6,5.98,4.3,11.68,5.98,15.97Zm181.9-13.89c-24.95,24.9-49.54,49.45-73.94,73.81,3.85,4,7.95,8.26,11.6,12.06,24.73-24.68,49.44-49.32,74.18-74.01-3.78-3.78-7.87-7.89-11.83-11.86Zm-182.2-33.97c24.64-24.58,49.33-49.21,73.56-73.39-3.92-3.99-8.07-8.2-11.71-11.9-24.48,24.43-49.12,49.03-73.84,73.71,3.78,3.65,7.94,7.67,11.99,11.58Zm-9.32,134.42c13.87-11.61,28.06-23.5,41.43-34.7-8.12-8.21-15.87-16.04-23.77-24.01-11.53,13.72-23.38,27.82-34.87,41.5,5.81,5.81,11.39,11.4,17.2,17.21Zm-39.24-13.11c-4.93,.85-8.13,2.84-9.92,6.9-1.98,4.48-.96,8.49,2.37,11.86,7.71,7.81,15.47,15.57,23.3,23.26,5.12,5.03,10.96,5.32,15.48,.98,4.5-4.32,4.3-10.7-.76-15.86-7.45-7.59-14.93-15.17-22.65-22.49-2.14-2.03-5.18-3.13-7.8-4.65Zm-50.79,131.07c-6,6.49-11.22,11.97-16.2,17.66-.8,.91-1.12,2.95-.68,4.1,3.28,8.61,6.71,17.16,10.37,25.61,.5,1.16,2.5,2.25,3.88,2.35,4.42,.3,8.88,.11,14.24,.11-8.05-15.63-11.04-31.74-11.61-49.83Z"/>
  <path class="cls-1" d="M298.15,418.23c28.47,0,56.93-.01,85.4,0,6.25,0,9.54,2.7,9.44,7.68-.08,4.05-2.22,6.52-6.18,7.21-1.78,.31-3.65,.23-5.48,.23-55.43,.01-110.87,.01-166.3,0-8.05,0-11.77-2.34-11.88-7.42-.11-5.24,3.78-7.72,12.09-7.72,27.63,0,55.27,0,82.9,0Z"/>
</svg>