<?xml version="1.0" encoding="UTF-8"?>
<svg id="Layer_1" data-name="Layer 1" xmlns="http://www.w3.org/2000/svg" viewBox="0 0 512 512">
  <defs>
    <style>
      .cls-1 {
        fill: #fff;
      }
    </style>
  </defs>
  <path class="cls-1" d="M333,513c-9.44-3.92-14.04-11.54-16.42-21.02-1.89-7.54-3.7-15.15-6.27-22.48-2.89-8.26-7.91-10.58-16.4-8.88-6.84,1.37-13.69,2.73-20.58,3.8-14.7,2.28-31.05-3.07-36.25-18.69-.37-1.12-1.91-2.13-3.14-2.64-6.93-2.93-11.24-7.86-13.15-15.21-.53-2.03-2.34-4.25-4.19-5.33-5.45-3.16-8.2-7.92-10.07-13.66-.7-2.14-2.2-4.53-4.04-5.71-13.08-8.43-27.39-14.22-42.28-18.57-1.55-.45-3.98,.2-5.31,1.23-6.95,5.43-14.61,6.34-21.92,2.05-7.26-4.26-13.85-9.72-20.47-15-6.29-5.02-12.57-9.28-20.93-10.72-11.31-1.96-24.78-19.11-24.56-29.76,.03-1.31-.13-2.94,.55-3.88,3.73-5.18,4.15-10.99,4.53-17.11,.36-5.78,4.53-9.66,9.69-11.71,4.11-1.63,8.61-2.93,12.99-3.08,6.29-.22,10.45-3.03,13.23-8.2,1.88-3.49,3.22-7.26,4.88-10.87,2.23-4.85,6.96-7.17,11.88-5.91,4.59,1.17,7.54,5.47,7.27,10.59-.75,14.1-15.53,31.21-29.32,33.77-3.38,.63-6.84,.82-8.97,1.06-1.48,6.59-2.74,12.23-4.24,18.94,2.29,3.2,6.06,5.93,11.64,7.68,7.11,2.23,13.84,6.29,20.09,10.52,6.98,4.72,13.24,10.51,20.15,16.1,5.88-8.67,13.89-7.95,21.84-5.84,17.93,4.77,34.9,11.88,50.6,21.85,6.03,3.83,11.21,8.36,12.24,16.12,.13,.98,1.81,2.16,3,2.54,8.11,2.58,10.87,5.68,10.92,13.81,.02,3.84,1.34,5.63,5.11,6.48,6.09,1.38,9.86,5.34,10.78,11.63,.77,5.21,3.98,7.82,8.93,7.36,8.24-.78,16.49-1.81,24.61-3.4,18.59-3.63,33.23,3.78,39.94,21.41,2.87,7.55,4.4,15.61,6.59,23.42,.66,2.36,1.5,4.67,2.24,6.94,4.67-.25,6.8-2.57,6.99-6.65,.21-4.47,.56-8.96,.3-13.41-1.01-16.84-1.33-33.51,5.6-49.5,2.76-6.36,.72-12.75-1.59-18.88-.99-2.63-2.34-5.13-3.49-7.71-6.37-14.26-.26-28.53,14.45-33.74,8.24-2.92,8.43-3.61,6.05-12.15-1.37-4.91-3.08-10.04-2.89-15,.37-9.26,9.96-16.54,20.78-17.25,7.3-.48,13.8,1.69,19.92,5.31,4.01,2.37,7.81,5.09,11.82,7.44,1.83,1.07,3.89,2.03,5.95,2.34,4.21,.62,5.59-1.01,4.26-5.06-1.7-5.19-3.96-10.2-5.69-15.38-1.83-5.48-3.8-11-4.76-16.66-.54-3.23-.11-7.34,1.54-10.05,2.49-4.09,1.63-7.25,.03-11.06-2.12-5.02-3.92-10.19-5.52-15.4-2.13-6.94-.48-13.33,3.06-19.56,2.76-4.87,5.39-9.92,7.17-15.2,2.21-6.56,.07-10.99-6.75-12.44-8.4-1.79-17.11-2.09-25.67-3.11-4.61-.55-9.24-1.09-13.81-1.92-5.68-1.04-10.23-4.02-13.11-9.08-8.87-15.59-22.72-21.6-40.62-20.71-.33,.98-.82,2.32-1.23,3.7-8.91,30.07-25.91,54.84-50.1,74.57-12.89,10.51-22.26,10.65-35.05,.1-25.41-20.96-43.8-46.89-51.17-79.4-8.56-37.79,19.11-77.53,57.46-82.85,6.55-.91,9.77-2.84,12.17-9.54,8.88-24.73,35.62-45.85,63.89-51.9-2.36-7.54-10.36-11.88-19.11-10.3-8.57,1.54-16.42,5.19-22.6,11.03-13.81,13.05-30.94,19.06-48.46,24.52-6.34,1.97-12.66,4.04-19.09,5.66-3.89,.98-5.89,3.18-6.91,6.89-3.17,11.52-8.6,21.92-16.15,31.18-3.6,4.43-7.61,8.26-13.62,9.48-1.38,.28-2.62,2.27-3.5,3.73-5.96,9.77-13.08,17.99-25.02,20.59-13.36,2.91-21.22,11.82-21.88,25.52-.18,3.74,1.31,7.7,2.6,11.36,1.87,5.28,4.73,10.25,6.3,15.6,1.99,6.79-1.32,12.4-7.22,13.67-5.73,1.24-10.5-2.24-12.43-8.77-.93-3.15-1.88-6.46-3.61-9.19-5.83-9.2-7.88-19.05-5.34-29.56,4.23-17.53,12.56-32.69,31.38-37.01,10-2.29,15.33-7.54,19.49-15.64,3.1-6.04,6.96-10.92,14.64-11.08,1.14-.02,2.7-1.4,3.3-2.55,4.12-7.9,8.82-15.63,11.82-23.95,3.51-9.73,9.28-16.16,19.19-19.18,12.07-3.68,24.06-7.59,36.05-11.52,8.46-2.78,15.94-7.14,22.72-13.07,10.01-8.75,21.43-15.1,34.77-17.52,19.33-3.5,38.16,7.72,42.9,25.65,3.49,13.22-3.95,23.41-17.48,24.9-14.7,1.63-25.71,10.29-35.62,20.42-5.94,6.08-10.91,12.9-13.51,21.57,29.6,10.23,46.62,30.82,51.6,61.88,5.69,.73,11.44,1.39,17.17,2.22,16.16,2.31,27.54,11.81,36.52,24.66,2.28,3.26,4.66,5.02,8.83,5.27,10.12,.6,20.31,1.2,30.29,2.84,18.1,2.98,28.52,15.7,26.51,33.12-.81,7.02-3.51,14.39-7.33,20.34-4.34,6.75-4.09,12.29-.8,18.91,2.12,4.27,4.08,8.9,4.66,13.56,.55,4.39,.11,9.39-1.57,13.42-1.44,3.46-1.56,6.14-.33,9.36,2.96,7.73,6.22,15.39,8.62,23.3,2.61,8.62,1.64,17.05-5.51,23.38-7.49,6.63-16.46,9.13-25.95,5.18-6.69-2.78-12.74-7.06-19.2-10.43-3.19-1.66-6.66-2.78-10.01-4.14-.32,.47-.64,.93-.97,1.4,.95,3.59,2,7.15,2.82,10.77,3.42,15.1-2.91,26.36-17.37,31.06-6.89,2.24-7.42,3.16-4.25,9.46,7.53,15.01,9.43,30.11,2.52,46.02-3.93,9.05-3.13,18.83-2.7,28.51,.37,8.26,.55,16.64-.37,24.83-1.26,11.28-8.04,18.62-18.95,22.05-.71,.22-1.34,.72-2.01,1.09h-11ZM203.11,161.74c.5,3.94,.6,7.97,1.57,11.79,6.78,26.88,22.03,48.4,42.83,66.24,5.51,4.72,6.15,4.64,11.78-.13,18.8-15.91,32.48-35.46,40.68-58.68,3.14-8.88,3.98-18.02,2.17-27.44-4.86-25.31-29.57-43.43-54.94-40.01-24.47,3.29-41.95,22.57-44.08,48.22Z"/>
  <path class="cls-1" d="M122.31,226.57c5.71-.02,10.14,4.37,10.09,10.02-.05,5.43-4.33,9.78-9.76,9.91-5.56,.13-10.34-4.36-10.46-9.82-.12-5.41,4.57-10.08,10.13-10.1Z"/>
  <path class="cls-1" d="M283.29,163.24c0,16.62-13.63,30.27-30.15,30.17-16.44-.1-30.17-14-30.05-30.4,.12-16.24,13.69-29.73,30.03-29.87,16.56-.14,30.15,13.44,30.16,30.1Zm-30.11,9.66c5.59,.03,9.83-4.07,9.87-9.56,.05-5.51-4.12-9.72-9.67-9.76-5.57-.05-9.86,4.1-9.91,9.57-.05,5.54,4.12,9.72,9.71,9.75Z"/>
</svg>