<?xml version="1.0" encoding="UTF-8"?>
<svg id="Layer_1" data-name="Layer 1" xmlns="http://www.w3.org/2000/svg" viewBox="0 0 512 512">
  <defs>
    <style>
      .cls-1 {
        fill: #fff;
      }
    </style>
  </defs>
  <path class="cls-1" d="M99.01,53.91c0-6.1-.04-11.71,.01-17.32,.04-4.69,2.48-7.76,6.14-7.37,4.14,.44,5.96,3.02,5.86,7.21-.14,5.62-.03,11.25-.03,17.17h51.01c0-5.77-.04-11.38,.01-16.99,.04-4.7,2.46-7.77,6.12-7.39,4.14,.43,5.98,2.99,5.88,7.19-.13,5.62-.03,11.25-.03,17.18h50.01c0-4.08,0-8.02,0-11.97,0-9.64,1.44-12.57,6.12-12.46,4.51,.11,5.87,3.06,5.87,12.71,0,3.8,0,7.6,0,11.71h51.01c0-5.72-.04-11.33,.01-16.93,.04-4.72,2.4-7.57,6.09-7.49,3.67,.08,5.85,2.88,5.88,7.7,.04,5.46,0,10.93,0,17.04,8.4,0,16.5-.1,24.6,.03,6.97,.11,14.12-.41,20.88,.92,17.46,3.43,28.51,17.53,28.51,35.2,.02,72.34,0,144.68,0,217.02v6.81c2.13-1.34,3.62-2.24,5.08-3.19,18.78-12.31,37.47-24.77,56.36-36.9,18.82-12.08,42.42-2.81,47.93,18.57,3.4,13.19-2.16,26.23-14.91,34.61-30.02,19.73-60.06,39.43-90.18,59.01-3.11,2.02-4.44,4.03-4.39,7.89,.25,18.62,.15,37.25,.1,55.88-.06,20.36-16.05,36.28-36.51,36.29-89.81,.03-179.62,.03-269.43,0-19.9,0-36-15.89-36-35.67-.04-120.57-.04-241.14,0-361.71,0-18.9,15.76-34.59,34.65-34.73,10.95-.08,21.9-.01,33.32-.01Zm0,11.96c-10.83,0-20.98-.07-31.13,.02-14.72,.13-24.85,10.13-24.86,24.82-.04,119.26-.05,238.53,0,357.79,0,15.32,10.46,25.56,25.86,25.57,88.5,.03,177,.03,265.49,0,16.21,0,26.56-10.33,26.61-26.47,.05-15.47,.02-30.94,0-46.41,0-1.21-.17-2.43-.29-4.1-1.65,1-2.78,1.64-3.87,2.36-16.14,10.57-32.25,21.2-48.46,31.67-2.14,1.39-4.79,2.68-7.26,2.78-15.98,.6-31.98,.93-47.97,1.19-6.41,.1-8.96-4.15-6.15-9.95,1.85-3.83,3.9-7.57,6.18-11.95-2.65,0-4.59,0-6.53,0-22,0-44,.02-66-.01-5.36,0-8.6-3.3-7.35-7.45,1.08-3.59,3.79-4.56,7.37-4.54,24.33,.08,48.67,.04,73,.04,6.88,0,7.76-.75,9.18-8-1.87,0-3.69,0-5.51,0-24.67,0-49.33,0-74,0-1,0-2-.04-3,0-4.15,.21-6.82-1.59-7.2-5.82-.34-3.73,2.61-6.14,7.34-6.14,28.5-.03,57,.06,85.5-.12,2.77-.02,5.85-1.05,8.23-2.52,9.05-5.6,17.87-11.58,26.78-17.42,6.61-4.33,9.66-4.55,12.17-.92,2.56,3.7,.9,6.97-5.59,11.22-8.03,5.26-16.03,10.57-24.23,15.98,2.55,3.86,4.79,7.24,7.12,10.75,50.51-33.11,100.57-65.93,150.91-98.92-2.49-3.76-4.73-7.13-7.06-10.63-1.47,.87-2.47,1.42-3.43,2.05-28.11,18.41-56.22,36.82-84.32,55.25-3.44,2.26-6.82,2.99-9.68-.7-2.36-3.04-1.11-6.79,3.03-9.54,5.68-3.78,11.29-7.69,17.16-11.15,3.15-1.86,4.03-4.05,4.02-7.6-.12-56.72-.08-113.44-.08-170.16,0-18.63,.06-37.26-.02-55.89-.05-13.04-7.52-23.13-20.32-24.31-13.65-1.25-27.5-.28-41.67-.28,0,2.04,.2,4.02-.04,5.95-.63,5.04,.78,8.15,5.82,10.81,9.04,4.79,12.74,15.76,9.9,25.39-2.77,9.39-11.81,16.15-21.66,16.21-10.92,.06-19.93-7.3-22.46-18.34-2.25-9.81,3-20.14,12.4-24.83,1.55-.78,3.67-2.22,3.86-3.58,.53-3.86,.18-7.84,.18-11.71h-51c0,2.53,.2,4.7-.04,6.82-.51,4.53,.64,7.23,5.37,9.45,9.15,4.29,13.19,14.98,10.69,24.98-2.48,9.89-11.21,16.94-21.32,17.19-10.25,.26-19.79-6.72-22.49-16.44-2.9-10.44,1.79-21.5,11.88-26.33,3.44-1.65,4.16-3.59,3.96-6.84-.18-2.93-.04-5.88-.04-8.88h-50.01c0,2.81,.23,5.31-.05,7.75-.47,4.07,.72,6.42,4.76,8.41,8.17,4.02,12.9,13.72,11.74,21.94-1.63,11.49-10.22,19.75-21.17,20.37-11.16,.63-20.69-6.5-23.5-17.58-2.71-10.65,2.61-20.98,13.29-26.11,1.15-.55,2.72-1.75,2.8-2.75,.32-4.05,.13-8.13,.13-12.1h-50.99c0,3.23,.18,6.2-.05,9.14-.25,3.16,.59,4.93,3.84,6.35,9.32,4.08,14.51,14.22,12.74,23.65-2.04,10.82-10.16,18.47-20.57,19.36-10.17,.88-19.91-5.46-23.34-15.18-3.4-9.64-.12-21.12,9.1-26.01,5.93-3.14,6.9-6.99,6.31-12.55-.16-1.45-.02-2.94-.02-5.04Zm205.28,353.4c50.39-33.03,100.54-65.89,150.94-98.93-2.56-3.78-4.83-7.13-7.27-10.73-50.51,33.1-100.54,65.9-150.83,98.86,2.46,3.71,4.72,7.12,7.16,10.8Zm160.89-106.04c7.08-8.1,7.69-17.43,2.03-24.98-5.25-7.01-14.13-9.38-22.2-5.68,6.65,10.11,13.27,20.18,20.17,30.66Zm-173.71,108.9c-5.69-8.63-10.71-16.26-16.12-24.46-4.5,8.53-8.6,16.31-12.9,24.46h29.02Zm11.59-319.98c.08-5.89-4.33-10.41-10.23-10.46-5.8-.05-10.57,4.47-10.71,10.15-.14,5.5,4.75,10.49,10.38,10.6,5.71,.12,10.48-4.54,10.56-10.29Zm-135.27-10.46c-5.8-.05-10.58,4.46-10.73,10.13-.15,5.53,4.7,10.47,10.38,10.59,5.73,.12,10.51-4.51,10.61-10.26,.09-5.84-4.38-10.41-10.25-10.47Zm52.05,10.42c.04,5.78,4.7,10.39,10.43,10.32,5.7-.07,10.37-4.87,10.29-10.58-.08-5.81-4.67-10.22-10.55-10.15-5.99,.07-10.21,4.39-10.17,10.42Zm-114.83-10.42c-6,.05-10.23,4.34-10.21,10.37,.01,5.8,4.62,10.41,10.37,10.37,5.73-.04,10.33-4.76,10.29-10.53-.05-5.88-4.52-10.25-10.45-10.2Z"/>
  <path class="cls-1" d="M109.23,158.64c22.84,.07,40.77,18.07,40.74,40.9-.03,22.27-18.47,40.53-40.83,40.43-22.61-.1-41.17-18.72-40.9-41.04,.27-22.4,18.54-40.36,40.99-40.3Zm-28.47,40.52c-.02,15.97,12.46,28.51,28.37,28.5,15.83-.01,28.63-12.63,28.76-28.38,.13-15.44-13.04-28.61-28.63-28.63-15.82-.02-28.48,12.65-28.51,28.5Z"/>
  <path class="cls-1" d="M109.72,258.45c22.7,.2,40.4,18.39,40.25,41.38-.14,21.91-18.66,40.04-40.82,39.95-22.6-.09-41.17-18.71-40.92-41.03,.26-22.59,18.7-40.5,41.48-40.3Zm-28.96,40.76c.07,15.94,12.62,28.33,28.62,28.26,15.74-.07,28.61-12.98,28.52-28.62-.08-15.54-13.24-28.47-28.88-28.38-15.78,.09-28.33,12.85-28.26,28.74Z"/>
  <path class="cls-1" d="M109.69,358.25c22.71,.19,40.42,18.37,40.28,41.35-.13,21.91-18.62,40.04-40.79,39.97-22.59-.06-41.18-18.68-40.94-41,.24-22.58,18.68-40.52,41.45-40.33Zm-28.93,40.41c-.07,15.98,12.39,28.59,28.27,28.61,15.88,.02,28.63-12.48,28.86-28.27,.22-15.41-12.94-28.67-28.52-28.73-15.83-.06-28.55,12.56-28.61,28.4Z"/>
  <path class="cls-1" d="M254.07,193.62c-23.97,0-47.93,0-71.9,0-1.33,0-3.11,.5-3.9-.16-1.97-1.65-4.79-3.82-4.8-5.8,0-1.98,2.83-4.13,4.74-5.86,.65-.59,2.25-.15,3.41-.15,48.43,0,96.86,0,145.3,0,.5,0,1,0,1.5,0,4.2-.05,6.76,1.87,6.66,6.2-.1,4.07-2.66,5.78-6.6,5.77-11.48-.02-22.97,0-34.45,0-13.31,0-26.63,0-39.94,0Z"/>
  <path class="cls-1" d="M254.22,293.42c-24.63,0-49.27,.1-73.89-.17-2.29-.03-5.37-1.92-6.54-3.88-.83-1.4,.44-4.66,1.69-6.46,.77-1.11,3.27-1.4,4.99-1.4,49.1-.07,98.2-.06,147.29-.05,5,0,7.4,2.05,7.36,6.04-.04,3.95-2.44,5.89-7.51,5.9-24.47,.02-48.93,.01-73.4,0Z"/>
  <path class="cls-1" d="M219.12,201.61c12.8,0,25.61,.06,38.41-.03,4.2-.03,7.29,1.12,7.56,5.85,.23,4.13-2.34,6.14-7.73,6.14-25.44,.02-50.88,.02-76.32,0-5.2,0-8.01-2.19-7.96-6.06,.06-3.88,2.78-5.88,8.12-5.89,12.64-.02,25.27,0,37.91,0Z"/>
  <path class="cls-1" d="M219.51,301.42c12.64,0,25.27-.02,37.91,0,5.34,.01,7.93,2.07,7.67,6.19-.31,4.73-3.44,5.8-7.62,5.79-25.61-.06-51.21-.02-76.82-.04-4.85,0-7.55-2.2-7.57-5.95-.02-3.82,2.62-5.98,7.52-5.99,12.97-.04,25.94-.01,38.91-.01Z"/>
  <path class="cls-1" d="M65.99,156.71c0,8.96,.03,17.91-.01,26.87-.02,4.78-2.26,7.49-6.02,7.47-3.75-.02-5.94-2.72-5.95-7.54-.03-18.25,.06-36.49-.06-54.74-.03-4.29,1.39-7.22,5.83-7.73,3.76-.44,6.18,2.76,6.2,7.8,.03,9.29,0,18.58,0,27.87Z"/>
  <path class="cls-1" d="M66.24,105.18c-.3,1.92,.02,4.4-1.07,5.63-1.42,1.61-4.23,3.4-5.96,3-2-.45-4.09-2.93-5-5.02-.85-1.95-.26-4.55-.19-6.86,.11-3.74,2.16-5.96,5.84-6,3.94-.05,6.02,2.26,6.12,6.23,.02,.99,0,1.98,0,2.97,.08,.01,.17,.03,.25,.04Z"/>
  <path class="cls-1" d="M105.33,198.96c4.15-3.92,8.18-7.6,12.07-11.42,3-2.95,6.13-4.13,9.6-.99,2.99,2.71,2.53,6.15-1.28,9.87-5,4.88-10.04,9.72-15.16,14.47-4.15,3.85-6.77,3.79-10.73-.02-2.52-2.42-4.92-4.96-7.44-7.38-3.03-2.91-4.18-6.09-1.15-9.58,2.7-3.11,5.97-2.66,9.9,1.08,1.31,1.24,2.62,2.49,4.19,3.97Z"/>
  <path class="cls-1" d="M104.6,299.46c5.05-4.77,9-8.57,13.03-12.28,3.59-3.32,7.04-3.58,9.57-.64,2.84,3.3,2.02,6.37-.94,9.18-5.3,5.04-10.52,10.18-15.89,15.15-3.91,3.62-6.62,3.55-10.37-.04-2.76-2.64-5.44-5.38-8.12-8.11-2.88-2.93-3.45-6.17-.42-9.19,2.89-2.88,6.07-2.33,8.78,.43,1.51,1.53,2.7,3.37,4.36,5.5Z"/>
  <path class="cls-1" d="M104.87,399.02c4.86-4.6,8.97-8.48,13.06-12.37,2.99-2.84,6.24-3.43,9.2-.31,2.99,3.15,2.11,6.33-.85,9.15-5.42,5.16-10.8,10.36-16.24,15.51-3.18,3.01-6.47,3.13-9.67,.01-2.98-2.9-5.97-5.8-8.82-8.82-2.67-2.83-2.98-6-.14-8.83,2.89-2.88,6.03-2.35,8.8,.37,1.53,1.51,2.85,3.22,4.65,5.29Z"/>
</svg>