<?xml version="1.0" encoding="UTF-8"?>
<svg id="Layer_1" data-name="Layer 1" xmlns="http://www.w3.org/2000/svg" viewBox="0 0 512 512">
  <defs>
    <style>
      .cls-1 {
        fill: #fff;
      }
    </style>
  </defs>
  <path class="cls-1" d="M151,513c-8.94-3.57-12.62-10.33-11.8-19.68,.64-7.37,1.45-14.72,2.25-22.76-1.5,0-3.42,0-5.35,0-37.66,0-75.33,.02-112.99-.03-2.98,0-6.07-.05-8.92-.79-6.58-1.71-11.12-8.15-11.14-15.44-.04-24.95-.11-49.9,.03-74.85,.11-19.11,12.47-37.18,30.33-44.28,18.83-7.48,37.78-14.66,56.67-21.99,5.57-2.16,6.83-8.72,2.29-12.81-8.41-7.57-13.94-16.76-16.78-27.71-.42-1.63-2.35-3.54-3.99-4.09-17.28-5.8-23.53-22.81-14.11-38.44,.79-1.31,.5-3.5,.19-5.18-.69-3.7-2.37-7.32-2.48-11.01-.34-11.13-.19-22.28-.11-33.43,.18-22.55,17.45-39.72,39.96-39.78,16.17-.04,32.33-.04,48.5,0,13.13,.04,20.41,5.22,24.56,17.58,.82,2.43,2.02,3.21,4.57,3.36,11.77,.72,20.24,9.84,20.3,21.68,.06,12.47-.08,24.95,.09,37.42,.03,1.9,.85,4.18,2.08,5.61,13.07,15.06,7.43,35.88-11.4,42.15-1.6,.53-3.44,2.42-3.89,4.03-3.03,10.85-8.37,20.18-16.85,27.71-4.4,3.91-3.17,10.86,2.18,12.92,8.67,3.34,17.34,6.66,26.3,10.1,3.36-27.3,16.82-47.18,42.88-56.68,26.07-9.51,48.98-2.64,68.87,16,6.38-3.94,13.62-7.03,15.28-15.33,.44-2.23,0-5.23-1.24-7.09-5.56-8.38-6.32-16.85-2.06-25.95,1.01-2.15,1.64-4.66,1.71-7.03,.36-12.25-.73-24.53,2.97-36.59,9.76-31.87,39.35-52.15,73.19-49.79,31.13,2.17,58.2,27.68,62.54,59.66,1.16,8.51,.34,17.27,.74,25.91,.13,2.87,.81,5.89,2,8.5,3.92,8.65,3.45,16.92-2.14,24.46-2.33,3.15-3.13,6.09-1.14,9.04,2.52,3.74,5.2,7.96,8.89,10.21,8.39,5.12,12.08,12.47,12.99,21.7,1.08,10.88-1.44,20.78-8.93,29.82,3.9,1.53,7.52,2.94,11.14,4.35,19.29,7.55,31.72,25.6,31.77,46.39,.07,24.12,.04,48.24,0,72.35-.01,10.42-6.09,17.14-16.5,17.23-25.33,.24-50.66,.13-75.99,.05-5.69-.02-9.27-3.19-9.25-7.64,.02-4.62,3.8-7.63,9.79-7.65,12.48-.04,24.97-.01,38.04-.01,.1-1.98,.26-3.73,.26-5.47,.02-19.13,0-38.26,.04-57.38,0-2.14-.3-4.81,.81-6.29,1.6-2.14,4.31-4.64,6.63-4.73,2.34-.09,5.26,2.17,7,4.2,1.17,1.36,.99,4.09,1,6.22,.07,19.13,.04,38.26,.04,57.38,0,1.8,0,3.6,0,5.74h22.27c.34-.39,.55-.52,.55-.64-.14-26.25,.4-52.54-.74-78.75-.55-12.59-8.64-21.66-20.62-26.48-9.86-3.97-19.82-7.68-29.69-11.63-2.43-.97-3.99-.81-6.07,1.16-29.96,28.32-74.18,28.34-104.09,.21-2.56-2.41-9.04-2.22-12.18,1.34-1.15,1.3-.48,5.2,.6,7.28,7.17,13.81,.93,29.81-13.99,34.73-2.51,.83-3.66,1.93-4.33,4.53-2.37,9.21-7.16,17.07-14.11,23.64-4.82,4.56-3.28,12.57,2.7,14.88,16.58,6.4,33.2,12.67,49.7,19.26,4.43,1.77,8.97,3.93,12.55,6.97,3.65,3.1,7.27,4.09,11.78,3.87,4.65-.23,9.33-.15,14-.02,4.93,.14,8.26,3.24,8.35,7.48,.1,4.32-2.97,7.4-8.04,7.73-3.29,.21-6.61,.04-9.41,.04,.7,7.74,1.25,15.09,2.04,22.41,1.01,9.33-2.4,16.12-11.07,20.08H151Zm-94.01-57.78c2.34,0,4.14,0,5.94,0,28.32,0,56.63-.06,84.95,.07,3.7,.02,6.49-.98,9.45-3.27,3.76-2.91,8.03-5.39,12.44-7.17,16.79-6.75,33.71-13.14,50.6-19.65,5.69-2.19,7.1-9.98,2.49-14.16-7.33-6.64-12.36-14.63-15.03-24.2-.47-1.67-2.35-3.17-3.92-4.27-3.49-2.44-7.75-4.03-10.71-6.95-7.45-7.36-8.59-19.01-3.39-28.06,3.5-6.09,3.15-7.68-3.56-10.04-7.04-2.48-13.89-5.52-20.96-7.92-1.88-.64-4.57-.49-6.35,.39-20.83,10.28-41.55,10.03-62.41,.07-1.92-.92-4.83-1.12-6.81-.38-15.71,5.84-31.32,11.98-46.94,18.06-16.76,6.52-24.64,17.94-24.67,35.82-.03,22.11-.01,44.22,0,66.33,0,1.61,.15,3.22,.24,5.07h23.62c0-2.01,0-3.79,0-5.57,0-19.95-.03-39.9,.02-59.85,.02-6.5,5.06-10.36,10.44-8.01,3.67,1.61,4.61,4.73,4.6,8.58-.1,21.43-.05,42.87-.05,65.11Zm301.49,42.62c3.19-20.68-7.5-34.97-22.82-40.01-12.6-4.14-24.86-9.35-37.15-14.37-3.14-1.28-4.86-.79-7.22,1.58-20.59,20.73-49.33,20.74-70.1,.02-2.29-2.29-4-2.45-6.85-1.31-12.78,5.13-25.68,9.97-38.51,14.99-16.22,6.34-24.33,21.83-20.39,39.09h203.04ZM177.99,220.25c0-11.57,.05-23.18-.02-34.78-.03-6.34-2.27-8.53-8.69-8.85-7.08-.36-12.81-4.65-14.97-11.22-2.88-8.77-4.07-9.67-13.51-9.69-14.83-.04-29.66-.07-44.48,0-15.45,.08-25.69,10.06-25.98,25.48-.2,10.47-.09,20.95-.02,31.43,.04,6.33,1.78,8.04,7.96,8.05,17.16,.02,34.32-.05,51.48,.03,9.47,.04,16.72-3.86,21.68-11.83,2.33-3.75,5.29-6.14,9.83-5.09,4.42,1.02,6.4,4.09,6.81,8.66,.5,5.42,3.94,8.04,9.92,7.81Zm154.22,.36c9.07,0,17.54,.01,26,0,10.01-.02,17.33-3.93,20.5-14,1.16-3.69,3.78-5.83,7.74-5.94,4.23-.11,7.06,2.18,8.23,6,3.06,9.97,10.27,13.78,20.02,13.92,8.62,.12,17.25,.02,26.13,.02,2.21-22.53-4.02-42.37-24.19-55.62-18.75-12.32-38.7-12.8-57.9-1.13-21.35,12.98-28.16,33.29-26.52,56.75Zm-51.55,107.52c-18.39,10.88-37.84,16.25-58.98,16.3,0,11.01-.46,21.64,.11,32.2,.91,17.01,14.73,30.45,31.65,31.58,18.12,1.21,34.2-10.07,36.44-27.54,1.7-13.25,.88-26.83,1.06-40.27,.01-.99-.75-2.17-1.48-2.97-2.77-3.08-5.68-6.04-8.79-9.31Zm-123.95-101.94c-8.48,7.31-18.35,9.99-29.21,9.85-10.83-.13-21.66-.04-32.49-.02-1.76,0-3.51,.17-5.24,.26,0,9.73-.5,18.89,.1,27.98,1.26,18.95,17.05,33.06,37.28,33.96,18.08,.81,35.55-12.97,37.77-30.96,1.3-10.5,.78-21.22,.95-31.84,.02-.96-.7-2.18-1.46-2.87-2.32-2.11-4.82-4.01-7.71-6.36Zm266.72,10.2c-13.63-.32-27.12-1-36.85-12.88-10.04,12.43-23.92,12.15-37.34,13.06,0,9.39-.58,18.22,.12,26.95,1.61,20.09,15.95,33.49,36.35,34.72,17.83,1.07,34.55-12.06,37.45-31.06,1.5-9.85,.26-20.12,.26-30.78Zm-118.66,95.19c2.27-18.37-7.01-37.29-23.04-46.54-17.87-10.32-36.02-10.08-53.16,1.44-16.77,11.27-22.88,27.85-21.52,46.47,4.01-1.37,7.92-3.94,11.75-3.82,20.09,.6,38.44-4.53,55.5-14.9,6.48-3.93,11.09-3.24,16.45,2.35,4.58,4.78,9.05,9.67,14.03,15.01Zm64.04-21.12c1.04,14.92-12.05,14.86-20.74,19.54,18.52,19.08,60.26,19.01,76.51-.04-8.55-4.53-21.51-4.25-20.53-19.22-11.89,3.55-23.31,3.56-35.24-.28Zm70.19-39.87c-3.11,12.06-8.92,22-17.94,30.18-3.98,3.61-2.51,10.31,2.38,12.22,7.87,3.07,15.88,5.83,23.58,9.27,4.67,2.09,7.46,.48,10.17-3,7.89-10.14,6.27-22.14-4.18-29.27-7-4.77-10.95-11.61-14.01-19.4Zm-117.84,53.21c10.19-3.92,20.08-7.67,29.9-11.6,.95-.38,1.99-1.83,2.08-2.87,.36-4.11,.07-7.67-3.48-11.14-4.3-4.2-7.64-9.56-10.65-14.84-2.19-3.84-3.17-8.37-5.11-13.77-3.17,11.27-9.44,18.77-18.84,23.78-.98,.52-1.42,3.4-1.02,4.89,.98,3.65,2.89,7.05,3.9,10.7,1.31,4.72,2.11,9.59,3.23,14.85Zm-43.64,113.16c-2.17-5.77-4.01-10.64-5.52-14.65h-31.13c-.49,2.32-.66,5.24-1.77,7.75-1.07,2.43-3.1,4.43-4.69,6.61,13.44,11.72,32.49,11.41,43.11,.29Zm-168.39-118.13c12.32,4.58,24.54,4.87,37.06,.1-.52-2.78-1-5.32-1.52-8.11-11.63,3.64-23.04,3.18-34.39-.05-.4,2.78-.72,5.05-1.15,8.07Zm330.3-64.93c4.78-2.05,6.38-5.26,5.98-9.38-.34-3.44-2.04-6.04-5.98-6.76v16.14Zm-258.1-18.37v17.15c7.57-4.68,7.59-12.51,0-17.15Zm152.54,2c-4.39,1.78-6.38,4.42-6.01,8.59,.33,3.7,1.99,6.38,6.01,7.59v-16.19Zm-260.03-1.77c-4.07,2.33-6.06,5.5-5.49,9.18,.43,2.79,2.61,5.31,4.02,7.96,.49-.24,.98-.48,1.47-.72v-16.42Zm232.47,130.78c5.52-5.23,5.36-10.58,0-14.02v14.02Zm-100.52-.49v-13.3c-5.34,4.48-5.34,8.72,0,13.3Z"/>
  <path class="cls-1" d="M257,133.34c2.85-4.73,5.06-8.17,7.05-11.73,8.76-15.7,21.97-23.1,40.1-22.88,29.99,.36,59.99,.1,89.99,.09,10.39,0,14.96-4.53,15.02-14.8,.02-3.66-.13-7.33,.05-10.98,.25-4.94,3.42-8.12,7.74-8.1,4.11,.02,7.42,2.99,7.53,7.72,.15,6.46,.27,13.03-.68,19.39-1.83,12.24-13.4,21.67-26.23,21.72-31,.12-61.99,.2-92.99-.01-12.35-.09-21.55,4.46-27.38,15.51-1.78,3.37-3.81,6.63-5.9,9.83-7.16,11-21.41,11.02-28.53,.05-2.17-3.34-4.29-6.74-6.17-10.25-5.7-10.66-14.65-15.18-26.59-15.12-30.16,.15-60.34-.42-90.49,.25-15.18,.34-30.53-10.37-30.2-30.33,.28-17.13,.3-34.27,0-51.39-.37-20.74,15.75-30.6,30.54-30.53,91.49,.44,182.98,.22,274.47,.22,20.79,0,34.09,16.12,30.08,36.44-.81,4.11-3.15,6.54-7.51,6.53-4.66,0-7-2.79-7.59-7.04-.37-2.61-.08-5.31-.15-7.97-.2-7.51-4.84-12.38-12.36-12.96-1.33-.1-2.66-.05-4-.05-90.49,0-180.98,0-271.47,0-12.37,0-16.45,4.07-16.46,16.42,0,17.13-.04,34.26,.02,51.39,.03,9.26,4.87,14.03,14.25,14.04,31,.03,61.99,.04,92.99,0,16.04-.02,28.09,6.9,36.41,20.47,2.59,4.22,5.11,8.48,8.48,14.07Z"/>
  <path class="cls-1" d="M257,51.87c-38.48,0-76.95,0-115.43,0-1.5,0-3.02,.15-4.49-.08-4.23-.65-6.67-3.42-6.66-7.46,.01-4,2.27-6.91,6.64-7.39,1.81-.2,3.66-.14,5.49-.14,76.29,0,152.58,0,228.86,0,1.83,0,3.68-.05,5.49,.14,4.38,.46,6.64,3.38,6.66,7.37,.02,4.04-2.42,6.82-6.65,7.48-1.47,.23-2.99,.08-4.49,.08-38.48,0-76.95,0-115.43,0Z"/>
  <path class="cls-1" d="M256.46,79.07c-38.14,0-76.29,0-114.43,0-7.99,0-11.77-2.46-11.72-7.58,.04-5.11,3.86-7.56,11.8-7.56,76.62,0,153.24,0,229.86,0,1.5,0,3.01-.1,4.49,.05,4.11,.42,7.25,3.76,7.23,7.58-.02,3.92-3,6.99-7.31,7.39-1.82,.17-3.66,.12-5.49,.12-38.14,0-76.29,0-114.43,0Z"/>
</svg>