<?xml version="1.0" encoding="UTF-8"?>
<svg id="Layer_1" data-name="Layer 1" xmlns="http://www.w3.org/2000/svg" viewBox="0 0 512 512">
  <defs>
    <style>
      .cls-1 {
        fill: #fff;
      }
    </style>
  </defs>
  <path class="cls-1" d="M1,437.15c.86-4.36,1.39-8.81,2.62-13.06,8.26-28.52,26.62-46.01,56.34-50.93,.79-.13,1.54-.51,2.53-.84-1.07-8.95,1.19-16.84,7.41-23.78-8.54-10.56-10.66-21.98-3.18-33.92,7.42-11.85,19.34-13.48,32.5-12.2v-7.2c0-81.16-.02-162.32,.01-243.48,0-23.82,13.43-42.31,35.02-48.12,3.65-.98,7.54-1.54,11.31-1.55,58.82-.09,117.65-.11,176.47-.03,12.2,.02,22.93,4.49,31.38,13.17,16.37,16.81,32.52,33.85,48.4,51.13,7.57,8.23,11.07,18.47,11.12,29.67,.1,22.29,.03,44.57,.04,66.86,0,1.79,0,3.59,0,5.91,10.4,0,20.35,.22,30.29-.05,16.12-.44,31.1,2.8,44.11,12.79,14.28,10.96,22.73,25.3,24.73,43.28,.1,.94,.59,1.84,.9,2.76v226.56c-.3,.93-.75,1.83-.87,2.78-3.03,24.28-16.02,41.23-38.17,51.24-4.75,2.15-9.96,3.27-14.96,4.87h-161c-.76-.31-1.5-.74-2.29-.9-26.06-5.43-42.81-20.99-49.9-46.49-1.79-6.43-1.8-13.35-2.65-20.2h-8.06c-2.84,6.28-5.4,11.95-8.22,18.19-.36-.64-.23-.32-.03-.06,7.6,9.4,9.56,19.74,3.91,30.6-5.61,10.79-15.09,14.98-27.19,14.92-44.62-.2-89.24-.05-133.87-.07-31.21,0-58.42-21.06-66.18-51.29-1.14-4.45-1.69-9.04-2.52-13.57,0-2.33,0-4.66,0-6.99ZM329.41,18.31c-2.01-.12-3.47-.27-4.93-.27-58.49-.01-116.98,.12-175.47-.08-21.22-.07-33.46,16.16-33.37,33.02,.41,81.99,.18,163.99,.2,245.98,0,1.6,.18,3.2,.3,5.23,2.37,0,4.33,0,6.3,0,27.66,0,55.32-.06,82.99,.03,15.19,.05,25.62,8.79,28.15,23.59,1.47,8.61-1.83,15.94-7.11,22.39,10.02,15.55,9.98,23.05-.05,38.45,10.09,13.52,10.07,23.62-.08,38.07,4.29,7.54,11.18,2.98,17.54,4.36,0-2.66,0-4.6,0-6.55,0-62.53-.01-125.07,.02-187.6,0-4.31-.15-8.72,.62-12.93,5.88-32.1,31.19-53.13,63.89-53.2,27.5-.06,54.99-.01,82.49-.01,1.78,0,3.56,0,5.13,0V88.96c-18.58,0-36.39,0-54.2,0-10.45,0-12.4-1.99-12.41-12.64,0-17.46,0-34.93,0-52.39v-5.62Zm167.72,322.6c0-35.75-.52-71.51,.17-107.25,.52-27.17-21.43-49.84-49.3-49.46-46.64,.62-93.3,.16-139.94,.2-3.48,0-7.05,.04-10.43,.75-23.32,4.85-38.6,23.75-38.61,47.75-.04,71.67-.02,143.33-.01,215,0,29.39,20.4,49.99,49.79,50.05,46.15,.1,92.3-.11,138.45,.08,31.61,.13,50.6-24.69,50.08-49.87-.73-35.73-.19-71.5-.19-107.25ZM97.4,493.9c29.68,.02,53.48-23.94,53.4-53.74-.08-28.56-24.27-52.72-52.89-52.82-29.24-.1-53.68,24.07-53.69,53.08,0,29.38,23.94,53.46,53.19,53.48Zm51.1-175.55c-18.83,0-37.66,0-56.49,0-8.38,0-13.16,3.97-13.19,10.87-.03,6.91,4.8,11.1,13.06,11.1,37.49,.03,74.98,.03,112.47,0,8.15,0,13.07-4.35,12.97-11.22-.09-6.68-4.89-10.74-12.84-10.75-18.66-.02-37.32,0-55.99,0Zm-.51,38.02c-18.81,0-37.63-.05-56.44,.02-8.12,.03-12.84,4.46-12.79,11.42,.02,3.33,1.19,4.59,4.72,4.61,8.8,.07,17.66,.08,26.37,1.13,5.83,.7,11.44,4.43,17.19,4.54,26.63,.5,53.27,.3,79.91,.15,6.39-.04,10.7-5.24,10.34-11.58-.36-6.39-5.08-10.25-12.86-10.28-18.81-.05-37.63-.02-56.44-.02Zm-4.4,136.45h4.84c18.15,0,36.3,0,54.45-.01,1.66,0,3.34,0,4.97-.26,6.16-1.01,9.76-5.42,9.45-11.42-.3-5.82-4.61-10.04-10.82-10.09-14.82-.12-29.64-.1-44.45,.03-1.37,.01-3.19,.89-4.01,1.96-4.8,6.31-9.37,12.79-14.43,19.79Zm6.21-97.82c3.76,6.66,7.39,13.3,11.3,19.77,.56,.93,2.44,1.5,3.71,1.5,13.82,.1,27.63,.13,41.45,.03,6.56-.05,10.88-4.24,11.07-10.33,.19-6.16-3.67-11-10.23-11.12-18.96-.33-37.94-.13-56.91-.12-.25,0-.51,.35-.38,.26Zm15.45,59.48c13.83,0,27.28,.11,40.72-.04,7.19-.08,11.46-4.45,11.34-11.03-.11-6.29-4.39-10.38-11.41-10.47-10.97-.14-21.95-.05-32.92-.06-2.25,0-4.51,0-6.72,0-.35,7.46-.66,14.18-1.01,21.59ZM385.68,72.7c-13.51-14.23-26.21-27.61-39.39-41.48v41.48h39.39ZM31.03,423.17c-11.71-1.41-12.28-2.23-13.38,10.79h11.43c.67-3.74,1.31-7.26,1.95-10.79Zm-12.78,27.2c.06,10.67,3.27,13.3,13.55,11.1q-2.53-13.33-13.55-11.1Zm29.7-57.58c-.29-.32-.57-.64-.86-.97-6.02,4.63-12.04,9.27-18.07,13.9,.33,.69,.66,1.39,1,2.08,2.91-.75,6.69-.61,8.54-2.43,3.69-3.63,6.32-8.33,9.38-12.59Zm-.75,96.54c.29-.33,.59-.66,.88-.99-1.96-2.41-4.34-4.59-5.8-7.27-2.28-4.2-5.48-4.39-10.97-3.01,5.93,4.21,10.9,7.74,15.88,11.28Z"/>
  <path class="cls-1" d="M199.85,279.22c0,1.91,.14,3.58-.03,5.22-.46,4.42-3.43,7.15-7.53,7.01-4.45-.15-7.14-2.96-6.94-6.93,.24-4.8-2.29-5.61-5.88-7.2-4.87-2.16-9.66-5.16-13.43-8.87-1.73-1.7-2.04-6.34-1.08-8.95,1.79-4.85,6.36-5.15,10.26-.84,5.13,5.68,11.3,7.78,18.76,7.09,6.96-.64,10.94-3.23,12.63-8.63,2.02-6.44,.4-13.62-4.53-17.26-3.02-2.23-6.61-3.75-10.06-5.35-3.61-1.67-7.41-2.92-11.03-4.56-10.97-4.98-15.94-13.51-14.98-25.53,.85-10.58,6.36-17.41,16.27-21.11,1.3-.48,2.12-2.69,2.77-4.26,.42-1-.03-2.32,.17-3.45,.72-4.1,3.14-6.78,7.38-6.72,4.22,.06,6.64,2.78,7.2,6.91,.24,1.77,.04,3.6,.04,4.97,5.2,1.71,10.05,2.88,14.51,4.89,4.72,2.13,5.87,5.81,3.92,9.75-1.99,4.04-5.07,4.88-9.99,2.52-6.36-3.05-12.89-4.2-19.84-2.39-4.43,1.15-7.48,3.69-8.29,8.25-.84,4.77,.25,9.28,4.73,11.65,5.25,2.78,10.88,4.85,16.39,7.14,8.6,3.57,15.78,8.55,18.7,18,5.49,17.76-1.97,32.4-20.11,38.63Z"/>
  <path class="cls-1" d="M283.04,157.49c-20.32,0-40.63,.01-60.95-.02-1.81,0-3.68-.11-5.4-.6-3.65-1.02-6.08-3.89-5.3-7.34,.58-2.6,3.2-4.96,5.39-6.88,1.02-.9,3.17-.69,4.81-.69,41.13-.03,82.27-.02,123.4-.02,.83,0,1.67-.04,2.5,.06,4.73,.57,7.52,3.45,7.52,7.72,0,4.27-2.8,7.28-7.52,7.69-2.81,.24-5.66,.08-8.49,.08-18.65,0-37.3,0-55.95,0Z"/>
  <path class="cls-1" d="M231.53,119.9c-20.98,0-41.96,0-62.94,0-1.66,0-3.35,.07-4.99-.16-4.03-.57-6.27-3.15-6.45-7.04-.2-4.19,2.16-6.84,6.25-7.78,1.11-.25,2.32-.1,3.49-.1,43.13,0,86.26,0,129.39,0,.5,0,1-.01,1.5,0,4.97,.17,8.15,3.04,8.21,7.43,.06,4.43-3.01,7.54-8.01,7.59-12.65,.12-25.31,.06-37.97,.06-9.49,0-18.98,0-28.47,0Z"/>
  <path class="cls-1" d="M176.28,157.47c-3.66,0-7.32,.15-10.97-.03-4.94-.25-8.17-3.36-8.23-7.62-.06-4.25,3.13-7.66,8.03-7.8,7.81-.23,15.63-.24,23.44,.03,4.75,.16,7.56,3.32,7.61,7.57,.05,4.47-2.89,7.53-7.9,7.81-3.98,.22-7.98,.04-11.97,.05Z"/>
  <path class="cls-1" d="M338.03,104.83c3.32,0,6.64-.15,9.95,.04,4.21,.24,7.02,3.38,7.03,7.47,.01,4.13-2.71,7.29-7,7.43-6.63,.22-13.27,.21-19.9,0-4.24-.13-7.08-3.37-7.09-7.4,0-4.03,2.89-7.12,7.05-7.53,.33-.03,.66-.02,.99-.02,2.99,0,5.97,0,8.96,0v.02Z"/>
  <path class="cls-1" d="M377.8,216.43c-22.82,0-45.64-.02-68.47,0-8.91,.01-12.35,3.49-12.37,12.37-.02,7.81-.03,15.63,0,23.44,.04,7.85,3.66,11.59,11.58,11.72,8.33,.14,16.66-.01,24.99,.1,4.49,.06,7.76,2.01,8.39,6.81,.6,4.59-2.69,8.35-7.69,8.44-9.66,.17-19.34,.39-28.98-.07-12.71-.61-22.78-10.85-23.34-23.63-.42-9.62-.36-19.28-.14-28.92,.37-15.75,11.07-25.75,27.51-25.79,30.82-.08,61.64-.02,92.45-.02,14.99,0,29.99-.04,44.98,.01,17.42,.07,28.12,10.67,28.07,27.96-.03,9.95,.35,20.01-.88,29.84-1.51,12.09-12.18,20.59-24.49,20.64-26.99,.12-53.97,.06-80.96,.02-5.56,0-9.23-3.15-9.24-7.66,0-4.44,3.57-7.62,9.24-7.65,18.49-.1,36.98-.05,55.47-.05,8,0,15.99,.1,23.99-.04,7.79-.14,11.21-3.65,11.28-11.41,.08-8.31,.09-16.63,0-24.94-.08-7.7-3.6-11.15-11.44-11.17-23.32-.05-46.64-.02-69.96-.02Z"/>
  <path class="cls-1" d="M418.01,419.16c0-12.96-.04-25.93,0-38.89,.04-11.77,7.94-20.18,19.71-20.73,5.98-.28,12-.28,17.98,0,11.87,.56,19.61,8.84,19.84,21.24,.19,9.8,.05,19.61,.05,29.42,0,15.29,.03,30.58,0,45.87-.04,16.38-8.61,25.02-24.88,24.91-5.63-.04-11.42,.18-16.84-1.02-9.6-2.13-15.77-10.57-15.83-20.4-.08-13.46-.02-26.92-.02-40.39Zm42.08,.52c0-12.8-.09-25.6,.05-38.4,.05-4.45-1.7-6.41-6.2-6.26-4.99,.17-9.99,.14-14.99,.01-4.09-.11-5.74,1.98-5.79,5.75-.04,2.99-.02,5.98-.02,8.98,0,22.11-.01,44.22,0,66.33,0,7.76,1.92,9.6,9.81,9.65,2.83,.02,5.66,.05,8.49,0,6.72-.13,8.62-2.02,8.63-8.66,.03-12.47,0-24.93,0-37.4Z"/>
  <path class="cls-1" d="M378.01,417.11c-3.83,0-7.66,.03-11.5,0-10.17-.09-16.98-6.57-17.23-16.7-.2-8.14-.22-16.3,.01-24.44,.28-9.61,6.92-16.21,16.52-16.46,8.16-.21,16.33-.24,24.49,0,10.28,.31,16.57,6.96,16.64,17.24,.05,7.98,.08,15.96-.01,23.94-.11,9.5-6.87,16.21-16.43,16.39-4.16,.08-8.33,.01-12.5,.01Zm-12.74-41.81v26.11h26.08v-26.11h-26.08Z"/>
  <path class="cls-1" d="M378.15,481.01c-4,0-8,.04-12,0-9.46-.1-16.33-6.16-16.78-15.53-.42-8.63-.39-17.3-.03-25.93,.4-9.7,6.99-15.87,16.84-16.11,7.99-.19,16-.2,23.99,0,10.28,.26,16.71,6.93,16.78,17.12,.05,7.82,.05,15.63,0,23.45-.07,10.43-6.72,16.94-17.3,17.01-3.83,.02-7.66,0-11.5,0Zm-13.12-15.28c8.32,0,16.1,.07,23.87-.1,.92-.02,2.57-1.36,2.59-2.12,.19-8.06,.12-16.12,.12-24.18h-26.58v26.4Z"/>
  <path class="cls-1" d="M378.57,292.45c4.16,0,8.33-.06,12.49,.01,8.93,.16,15.72,6.85,15.87,15.83,.14,8.48,.13,16.96,0,25.43-.13,8.61-5.59,15.16-14.21,15.74-9.61,.65-19.31,.67-28.93,.1-8.3-.49-14.02-6.75-14.41-15.16-.4-8.79-.41-17.63-.02-26.42,.42-9.41,7.25-15.45,16.71-15.53,4.16-.03,8.33,0,12.49,0Zm-13.38,15.11v26.56h26.46c0-8.25,.07-16.17-.11-24.09-.02-.84-1.48-2.35-2.3-2.37-7.92-.18-15.85-.11-24.05-.11Z"/>
  <path class="cls-1" d="M446.78,292.45c4.33,0,8.66-.07,12.99,.01,8.01,.16,14.77,5.52,15.29,13.53,.65,10.08,.58,20.26-.01,30.34-.42,7.08-5.86,12.59-12.96,13.02-10.27,.61-20.63,.67-30.89-.04-7.75-.53-13.06-7.31-13.15-15.07-.11-8.81-.13-17.62,0-26.43,.13-8.39,6.87-15.11,15.24-15.34,4.49-.12,8.99-.02,13.49-.02Zm13.16,15.09c-8.31,0-16.11-.09-23.9,.11-.98,.03-2.73,1.57-2.76,2.44-.22,7.93-.13,15.86-.13,23.98h26.78v-26.53Z"/>
  <path class="cls-1" d="M339.06,388.46c0,4.32,.1,8.65-.02,12.96-.24,8.73-6.75,15.42-15.51,15.63-8.82,.21-17.66,.23-26.48-.01-8.28-.22-14.88-6.62-15.18-14.89-.33-8.96-.31-17.95-.07-26.92,.24-8.88,6.55-15.31,15.52-15.66,8.65-.34,17.33-.33,25.98-.01,9.45,.34,15.6,6.99,15.76,16.44,.07,4.15,.01,8.31,.01,12.47h-.02Zm-15.46,13.02v-26.12h-26.33v26.12h26.33Z"/>
  <path class="cls-1" d="M339.04,452.41c0,4.49,.13,8.98-.03,13.46-.28,8.17-6.77,14.84-14.99,15.07-8.99,.25-17.99,.22-26.98,.01-8.26-.19-14.87-6.58-15.17-14.88-.33-8.96-.34-17.95-.06-26.92,.28-8.88,6.09-15.08,15.03-15.58,8.96-.5,18-.49,26.97-.03,9.35,.48,15.08,7.02,15.25,16.39,.08,4.15,.01,8.31,.01,12.47-.01,0-.02,0-.03,0Zm-41.86,13.3c8.3,0,16.23,.09,24.15-.13,.89-.03,2.46-1.83,2.49-2.85,.21-7.73,.12-15.47,.12-23.43h-26.75v26.41Z"/>
  <path class="cls-1" d="M339.04,321.33c0,4.49,.13,8.98-.03,13.46-.25,7.36-5.31,13.93-12.64,14.43-10.58,.71-21.28,.69-31.86,.01-7.12-.46-12.34-6.71-12.59-13.91-.32-9.46-.36-18.95,0-28.4,.32-8.27,7.1-14.34,15.5-14.44,8.66-.11,17.32-.11,25.98,0,8.78,.11,15.39,6.65,15.63,15.4,.12,4.48,.02,8.97,.02,13.46,0,0-.01,0-.02,0Zm-41.92,12.73h26.53v-26.08h-26.53v26.08Z"/>
  <path class="cls-1" d="M97.87,482.71c-3.18-2.73-6.42-4.21-7.17-6.49-1-3.06-3.03-3.8-5.21-5.21-2.72-1.75-5.55-3.79-7.36-6.38-2.46-3.52-1.72-7.44,1.66-10.25,3.36-2.8,6.54-1.9,9.82,.83,2.04,1.7,4.83,3.22,7.36,3.36,1.91,.1,5.28-1.85,5.59-3.37,.42-2.03-.86-5.46-2.56-6.65-3.33-2.32-7.54-3.34-11.25-5.18-9.37-4.65-13.04-13.58-9.5-23.32,.83-2.27,2.15-4.67,3.93-6.22,3.28-2.84,6.95-4.9,8.17-9.78,.41-1.65,4.33-3.57,6.45-3.35,2.36,.24,5.66,2.32,6.43,4.39,1.13,3.04,2.89,3.96,5.49,4.77,1.54,.48,3.08,1.35,4.31,2.4,2.99,2.56,3.93,5.75,1.83,9.32-2.03,3.45-5.04,4.53-8.95,3.47-3-.82-6.05-1.74-9.11-1.9-1.37-.07-2.83,1.59-4.26,2.46,.94,1.43,1.58,3.32,2.9,4.17,2.19,1.43,4.78,2.27,7.26,3.22,7.86,3.01,13.4,8.02,14.27,16.83,.93,9.52-1.61,17.4-10.82,22.1-1.04,.53-1.36,2.34-2.25,3.35-2.03,2.3-4.21,4.48-7.02,7.43Z"/>
</svg>