<?xml version="1.0" encoding="UTF-8"?>
<svg id="Layer_1" data-name="Layer 1" xmlns="http://www.w3.org/2000/svg" viewBox="0 0 512 512">
  <defs>
    <style>
      .cls-1 {
        fill: #fff;
      }
    </style>
  </defs>
  <path class="cls-1" d="M513,368.28c-1.17,5.45-2.08,10.98-3.57,16.35-13.63,49.27-45.57,79.82-95.2,91.81-7.53,1.82-15.5,2.45-23.27,2.49-46.17,.23-92.33,.12-138.5,.13-.98,0-1.96,0-3.36,0v-16.78c2.23,0,4.19,0,6.15,0,46-.04,92.01,.44,137.99-.29,32.1-.51,58.43-14.49,78.8-39.04,18.62-22.42,26.52-48.69,23.77-77.51-4.93-51.71-45.17-90.26-93.14-95.97-5.77-.69-11.62-.97-17.44-.97-80.67-.06-161.33,0-242-.06-33.45-.02-61.1-19.27-72.15-49.98-15.59-43.34,13.55-91.36,59.32-97.66,3.61-.5,7.28-.92,10.92-.92,78.33-.05,156.67-.04,235-.04,1.31,0,2.62,0,4.28,0v16.82c-2.01,0-4.1,0-6.19,0-77.33,0-154.67-.05-232,.03-27.85,.03-50,17.05-56.89,43.37-9.32,35.57,17.99,71.2,54.87,71.54,8.31,.08,16.62,.01,25.6,.01,0-5.53,.12-10.79-.11-16.03-.04-.94-1.28-2.2-2.28-2.69-16.56-8.22-22.21-22.77-22.24-39.84-.02-11.72,3.87-22.48,12.47-31.13,10.52-10.58,25.11-11.98,37.16-3.39,21.59,15.38,22.28,55.86,.18,70.39-7.54,4.96-9.13,9.93-8.32,17.48,.16,1.47,.02,2.97,.02,4.84h65.75c0-5.1,.12-10.35-.11-15.58-.04-.96-1.31-2.31-2.33-2.73-15.91-6.54-25.06-27.49-21.59-47.3,1.8-10.27,6.09-19.39,14.36-26.05,15.19-12.25,34.94-7.26,45.32,11.24,8.98,16.01,7.58,37.8-3.99,52.07-3.14,3.87-7.94,6.37-11.77,9.73-1.39,1.22-2.93,3.06-3.09,4.73-.42,4.57-.15,9.21-.15,14.26,2.58,0,4.54,0,6.51,0,37.83,0,75.67,.07,113.5-.02,33.73-.09,63.41,10.41,88.23,33.5,21.61,20.1,34.27,44.93,38.42,74.11,.15,1.08,.68,2.1,1.03,3.15v25.95ZM157.99,173c0,8.08,2.4,15.36,6.26,20.13,5.9,7.29,14.43,7.27,20.34-.05,8.23-10.19,8.22-27.91-.03-38.06-5.88-7.24-14.45-7.25-20.34,.07-4.45,5.53-5.98,12.08-6.24,17.9Zm115.24,1.22c.01-7.71-1.81-14.82-7.34-20.49-5.42-5.56-12.04-5.56-17.61-.22-9.95,9.54-10.05,31.23-.19,40.94,5.71,5.62,12.38,5.64,17.95-.17,5.35-5.58,7.15-12.53,7.18-20.06Z"/>
  <path class="cls-1" d="M1,160.69c1.37-6.8,2.33-13.71,4.18-20.38C19.31,89.26,51.67,55.3,102.37,39.77c12.37-3.79,25.83-5.5,38.81-5.58,78.49-.5,156.99-.25,235.48-.25,1.16,0,2.32,0,3.9,0v16.78c-2.24,0-4.36,0-6.48,0-79.33,.04-158.66-.34-237.98,.34-32.56,.28-60.3,13.78-83.11,36.85-20.36,20.59-32.22,45.62-34.69,74.34-3.36,39.13,8.99,73.12,37.4,100.59,24.32,23.51,53.81,34.7,87.68,34.68,81.33-.05,162.66-.05,243.98,0,28.55,.02,51.47,17.75,58.12,44.71,8.56,34.69-18.36,70.49-53.92,70.81-46.49,.42-92.99,.13-139.49,.12-.96,0-1.93-.17-3.1-.27v-16.53c2.23,0,4.18,0,6.13,0,44.16,0,88.33,.05,132.49-.02,18.99-.03,34.65-10.74,40.19-27.16,9.21-27.29-9.98-54.42-39-54.78-21-.26-42-.06-63-.06-60.16,0-120.33-.09-180.49,.04-29.03,.06-56.1-6.74-80.35-22.86C30.85,268.83,9.93,237.29,2.94,196.78c-.53-3.07-1.29-6.1-1.94-9.15,0-8.98,0-17.96,0-26.95Z"/>
  <path class="cls-1" d="M1,443.13c3.53-6.52,10.07-5.2,16.27-5.62,0-2.39,0-4.35,0-6.32,0-26.6,0-53.2,0-79.8,0-9.94,2.76-12.68,12.75-12.69,46.81-.01,93.61,.07,140.42-.09,6.74-.02,10.68,2.45,13.36,8.69,8.96,20.87,18.2,41.64,27.67,62.28,3.13,6.81,5.17,13.58,4.47,21.09-.2,2.12-.03,4.27-.03,6.71,3.17,.2,5.97,.3,8.75,.58,4.4,.46,7.25,2.94,7.33,7.35,.22,11.46,.25,22.93,0,34.39-.11,4.72-3.18,7.3-8.29,7.46-7.16,.22-14.32,.22-21.48,.06-2.89-.07-4.31,.77-5.42,3.62-5.14,13.2-17.01,21.17-30.87,21.13-13.51-.04-25.37-8.06-30.4-21.08-1.13-2.93-2.54-3.71-5.43-3.66-9.16,.15-18.33-.09-27.48,.2-1.59,.05-3.92,1.61-4.55,3.07-5.96,13.66-17.2,21.52-31.27,21.47-13.72-.05-24.93-8.02-30.78-21.49-.63-1.45-2.95-2.96-4.56-3.05-6.31-.35-12.66-.32-18.98-.09-4.86,.18-8.8-1.06-11.49-5.3v-38.92Zm33.02-87.74c0,2.68,0,4.8,0,6.92,0,27.43,.02,54.86-.02,82.29,0,6.57-2.82,9.42-9.3,9.69-2.11,.09-4.23,.01-6.63,.01v16.37c5.17,0,10.14,.16,15.08-.13,1.02-.06,2.36-1.57,2.85-2.72,5.85-13.7,15.89-21.64,31.04-21.62,15.12,.02,25.21,7.85,31.06,21.6,.54,1.28,2.49,2.74,3.82,2.77,9.82,.23,19.65,.21,29.48,.01,1.23-.03,3.08-1.29,3.56-2.44,5.92-14.18,16.24-22.2,31.83-21.93,14.87,.26,24.82,8.1,30.4,21.75,.46,1.12,1.91,2.54,2.96,2.6,4.93,.28,9.89,.12,14.97,.12v-16.37c-1.98,0-3.46,.02-4.95,0-8.36-.13-11.09-2.82-11.14-11.03-.02-4.16,.39-8.36-.11-12.46-.61-4.99-1.2-10.22-3.14-14.77-8.04-18.92-16.66-37.6-24.87-56.45-1.4-3.22-3.12-4.32-6.66-4.3-29.48,.15-58.97,.09-88.45,.09-13.65,0-27.3,0-41.8,0Zm16.85,123.66c0,9.09,6.9,16.06,15.95,16.14,9.41,.08,16.45-6.84,16.44-16.16,0-9.12-6.87-16.06-15.97-16.15-9.34-.09-16.43,6.89-16.42,16.18Zm115.28,16.14c9.13,0,16.12-6.84,16.25-15.91,.13-9.27-6.96-16.42-16.26-16.41-9.05,.01-16.14,6.97-16.22,15.93-.08,9.27,6.97,16.39,16.23,16.39Z"/>
  <path class="cls-1" d="M513,66.87c-2.77,9.18-5.4,18.33-11.46,26.16-8.46,10.92-19.14,18.43-32.59,21.41-4.49,.99-5.38,2.81-5.35,6.94,.17,23.76,.08,47.52,.08,71.29v5.77h-16.55V117.46c-8.67-4-17.07-6.83-24.34-11.45-19.31-12.27-28.96-36.19-24.52-58.39,4.61-23.04,23.18-41.44,46.01-45.64,.93-.17,1.81-.65,2.71-.99,5.33,0,10.67,0,16,0,.75,.31,1.48,.77,2.27,.9,15.29,2.66,27.36,10.48,36.67,22.73,5.94,7.81,8.79,16.92,11.06,26.27v15.97Zm-16.85-8.09c.05-22.67-18.07-40.88-40.77-40.97-22.77-.09-41.57,18.57-41.38,41.07,.19,22.34,18.98,41,41.22,40.93,22.48-.07,40.88-18.51,40.92-41.02Z"/>
  <path class="cls-1" d="M458.75,385.59c3.7,1.62,8.38,3.67,13.55,5.94-6.32,14.84-15.95,26.63-28.73,36.45-3.36-4.46-6.53-8.65-9.05-12,8.11-10.18,15.88-19.92,24.23-30.39Z"/>
  <path class="cls-1" d="M110.86,260.6c-1.57,4.4-3.29,9.2-5.16,14.44-13.3-4.41-24.72-11.33-35.38-20.67,3.71-4.19,7.18-8.11,10.31-11.64,10.14,5.99,19.9,11.76,30.24,17.88Z"/>
  <path class="cls-1" d="M66.9,120.57c-4.93,10.52-9.55,20.38-14.38,30.71-4.45-1.15-9.53-2.45-15.02-3.87,3.14-13.19,8.81-24.79,16.73-35.89,4.49,3.21,8.76,6.26,12.66,9.05Z"/>
  <path class="cls-1" d="M434.48,295.24c-10.31-4.62-20.05-8.99-30.35-13.6,.92-4.45,2.02-9.71,3.13-15.1,13.48,2.83,25.33,8.04,36.43,16.44-3.31,4.4-6.52,8.68-9.21,12.26Z"/>
  <path class="cls-1" d="M123.59,68.57c.93,5.46,1.78,10.47,2.6,15.24-10.25,3.7-20.14,7.27-30.64,11.07-2.32-3.92-4.98-8.43-7.94-13.45,11.23-6.67,22.94-10.98,35.99-12.85Z"/>
  <path class="cls-1" d="M42.8,219.3c-3.26-12.3-6.34-23.96-9.58-36.21,6.72-.61,11.93-1.08,16.85-1.53,2.69,10.32,5.26,20.16,8,30.68-4.22,1.95-9.08,4.19-15.28,7.06Z"/>
  <path class="cls-1" d="M306.52,264.92v16.21h-32.89v-16.21h32.89Z"/>
  <path class="cls-1" d="M207.47,281v-16.14h32.88v16.14h-32.88Z"/>
  <path class="cls-1" d="M339.61,429.59v16.22h-32.88v-16.22h32.88Z"/>
  <path class="cls-1" d="M372.66,264.82v16.21h-32.85v-16.21h32.85Z"/>
  <path class="cls-1" d="M141.41,281.01v-16.17h32.86v16.17h-32.86Z"/>
  <path class="cls-1" d="M479.97,355.1h-15.67c-2.07-10.02-4.07-19.64-6.17-29.79,4.12-1.82,8.92-3.94,14.18-6.27,5.1,11.58,7.71,23.29,7.66,36.05Z"/>
  <path class="cls-1" d="M404.28,429.04c.91,4.5,1.93,9.61,3.21,15.94h-34.64v-15.94h31.43Z"/>
  <path class="cls-1" d="M190.83,67.21v16.1h-32.59v-16.1h32.59Z"/>
  <path class="cls-1" d="M256.84,67.21v16.11h-32.55v-16.11h32.55Z"/>
  <path class="cls-1" d="M322.89,67.22v16.1h-32.57v-16.1h32.57Z"/>
  <path class="cls-1" d="M356.22,83.4v-16.11h24.38v16.11h-24.38Z"/>
  <path class="cls-1" d="M273.48,445.87h-24.49v-16.21h24.49v16.21Z"/>
  <path class="cls-1" d="M149,429.8c-7.16,0-14.33,.08-21.49-.02-7.89-.11-10.97-3.05-11.05-10.8-.12-12.14-.12-24.27,0-36.41,.08-7.79,3.11-10.75,10.98-10.84,9.49-.11,18.99,.02,28.48-.04,5.31-.04,8.66,2.29,10.6,7.31,4.77,12.37,9.87,24.62,14.7,36.97,3.32,8.48-.12,13.61-9.24,13.8-7.66,.16-15.32,.03-22.99,.03Zm12.96-16.91c-3.13-7.85-6.01-15.23-9.07-22.54-.35-.85-1.63-1.84-2.5-1.86-5.6-.17-11.2-.09-16.93-.09v24.49h28.5Z"/>
  <path class="cls-1" d="M100.08,401.05c0,6.47,.08,12.95-.03,19.42-.1,5.65-2.72,8.94-8.34,9.12-10.96,.34-21.95,.32-32.91-.05-5.35-.18-8.22-3.22-8.33-8.71-.27-13.44-.29-26.89,.02-40.32,.13-5.61,3.24-8.52,8.93-8.67,10.63-.28,21.29-.3,31.92,.02,5.97,.18,8.62,3.33,8.72,9.27,.11,6.64,.02,13.28,.02,19.92Zm-32.69-12.46v24.18h15.6v-24.18h-15.6Z"/>
  <path class="cls-1" d="M465.43,58.88h13.94c1.64,12.39-9.76,23.94-24.05,24.32v-14.59c3.4-3.27,6.21-5.97,10.11-9.73Z"/>
</svg>