<svg xmlns="http://www.w3.org/2000/svg" width="35.265" height="36" viewBox="0 0 35.265 36">
  <path id="Trazado_17264" data-name="Trazado 17264" d="M0-14.625a3.936,3.936,0,0,0,3.938-3.937A3.974,3.974,0,0,0,0-22.5a3.972,3.972,0,0,0-3.937,3.938A3.931,3.931,0,0,0,0-14.625ZM0-20.25a1.69,1.69,0,0,1,1.688,1.688A1.69,1.69,0,0,1,0-16.875a1.691,1.691,0,0,1-1.687-1.687A1.692,1.692,0,0,1,0-20.25Zm2.25,7.875h-4.5A3.375,3.375,0,0,0-5.625-9v4.5a2.25,2.25,0,0,0,2.25,2.25v4.5A2.25,2.25,0,0,0-1.125,4.5h2.25a2.25,2.25,0,0,0,2.25-2.25v-4.5A2.25,2.25,0,0,0,5.625-4.5V-9A3.376,3.376,0,0,0,2.25-12.375ZM3.375-4.5H1.125V2.25h-2.25V-4.5h-2.25V-9A1.126,1.126,0,0,1-2.25-10.125h4.5A1.126,1.126,0,0,1,3.375-9ZM17.543-7.369,14.8-16.987A4.492,4.492,0,0,0,10.47-20.25H5.509a5.653,5.653,0,0,1,.116,1.125A5.926,5.926,0,0,1,5.512-18h4.961a2.25,2.25,0,0,1,2.164,1.632L15.384-6.75H7.875V-4.5H11.25V3.375a1.125,1.125,0,0,0,2.25,0V-4.5h1.883A2.246,2.246,0,0,0,17.543-7.369ZM9-22.5A4.5,4.5,0,0,0,13.5-27,4.5,4.5,0,0,0,9-31.5,4.5,4.5,0,0,0,4.5-27,4.5,4.5,0,0,0,9-22.5Zm0-6.75A2.253,2.253,0,0,1,11.25-27,2.253,2.253,0,0,1,9-24.75,2.253,2.253,0,0,1,6.75-27,2.255,2.255,0,0,1,9-29.25ZM-12.634-16.369A2.253,2.253,0,0,1-10.47-18h4.961a5.653,5.653,0,0,1-.116-1.125,5.926,5.926,0,0,1,.113-1.125H-10.47A4.5,4.5,0,0,0-14.8-16.986l-2.748,9.619A2.246,2.246,0,0,0-15.383-4.5H-13.5V3.375A1.126,1.126,0,0,0-12.375,4.5,1.126,1.126,0,0,0-11.25,3.375V-4.5h3.375V-6.75h-7.508ZM-9-22.5A4.5,4.5,0,0,0-4.5-27,4.5,4.5,0,0,0-9-31.5,4.5,4.5,0,0,0-13.5-27,4.5,4.5,0,0,0-9-22.5Zm0-6.75A2.253,2.253,0,0,1-6.75-27,2.255,2.255,0,0,1-9-24.75,2.255,2.255,0,0,1-11.25-27,2.255,2.255,0,0,1-9-29.25Z" transform="translate(17.633 31.5)" fill="#fff"/>
</svg>
