<svg xmlns="http://www.w3.org/2000/svg" width="38" height="38" viewBox="0 0 38 38">
  <path id="Trazado_17270" data-name="Trazado 17270" d="M19,9.25A4.75,4.75,0,1,0,14.25,4.5,4.747,4.747,0,0,0,19,9.25Zm0-7.125A2.375,2.375,0,1,1,16.625,4.5,2.378,2.378,0,0,1,19,2.125ZM14.25,22.313l.928,7.42a2.43,2.43,0,0,0,2.353,2.08h2.932a2.375,2.375,0,0,0,2.356-2.08l.931-7.42a2.375,2.375,0,0,0,2.375-2.375V16.375a4.75,4.75,0,0,0-4.75-4.75h-4.75a4.754,4.754,0,0,0-4.75,4.75v3.563A2.372,2.372,0,0,0,14.25,22.313Zm0-5.937A2.378,2.378,0,0,1,16.625,14h4.75a2.378,2.378,0,0,1,2.375,2.375v3.563h-2.1l-1.187,9.5H17.534l-1.187-9.5h-2.1Zm14.406,9.159a1.188,1.188,0,0,0-.443,2.333c5.416,1.014,7.412,2.595,7.412,3.352,0,1.41-5.868,4.156-16.625,4.156S2.375,32.629,2.375,31.219c0-.759,2-2.34,7.346-3.354a1.188,1.188,0,0,0-.443-2.333C5.814,26.187,0,27.8,0,31.219c0,4.29,9.559,6.531,19,6.531s19-2.243,19-6.531c0-3.421-5.811-5.032-9.344-5.685Z" transform="translate(0 0.25)" fill="#fff"/>
</svg>
