<svg xmlns="http://www.w3.org/2000/svg" width="31.501" height="35.999" viewBox="0 0 31.501 35.999">
  <path id="Trazado_17271" data-name="Trazado 17271" d="M7.256-9.506,0-2.25-7.256-9.506A12.15,12.15,0,0,0-15.75,2.06,2.438,2.438,0,0,0-13.312,4.5H13.315A2.436,2.436,0,0,0,15.75,2.06,12.153,12.153,0,0,0,7.256-9.506ZM13.31,2.187H-13.313A.188.188,0,0,1-13.5,2,9.858,9.858,0,0,1-7.808-6.938L-1.589-.661A2.243,2.243,0,0,0,0,0,2.244,2.244,0,0,0,1.593-.661L7.811-6.879A9.86,9.86,0,0,1,13.5,2.058C13.5,2.166,13.416,2.187,13.31,2.187ZM-14.877-25.9l1.377.318v6.28l-2.192,6.573a1.136,1.136,0,0,0,.154,1.02,1.126,1.126,0,0,0,.913.467h4.5a1.125,1.125,0,0,0,.913-.467,1.361,1.361,0,0,0,.154-1.014l-2.191-6.58v-5.759l2.25.52V-22.5a1.125,1.125,0,0,0,.567.977l4.526,2.586A7.87,7.87,0,0,0,0-17.9a7.868,7.868,0,0,0,3.907-1.033l4.526-2.586A1.125,1.125,0,0,0,9-22.5v-2.048L14.877-25.9a1.124,1.124,0,0,0,.871-1.1,1.124,1.124,0,0,0-.871-1.1L.316-31.471a1.153,1.153,0,0,0-.505,0L-14.877-28.1a1.127,1.127,0,0,0-.873,1.1,1.124,1.124,0,0,0,.873,1.1ZM6.75-23.154,2.791-20.892a5.653,5.653,0,0,1-5.581,0l-3.96-2.262v-.872l6.5,1.5A1.112,1.112,0,0,0,0-22.5a1.187,1.187,0,0,0,.257-.029l6.5-1.5v.872ZM0-29.221,9.619-27,0-24.78-9.619-27ZM-12.375-15.567l.689,2.068h-1.378Zm20.25-4.746A1.124,1.124,0,0,0,6.75-19.188a6.744,6.744,0,0,1-6.687,6.75,6.813,6.813,0,0,1-6.813-6.75,1.113,1.113,0,0,0-1.062-1.125A1.281,1.281,0,0,0-9-19.188a9,9,0,0,0,8.937,9,9,9,0,0,0,8.937-9A.987.987,0,0,0,7.875-20.313Z" transform="translate(15.751 31.499)" fill="#fff"/>
</svg>
