<svg xmlns="http://www.w3.org/2000/svg" width="47.5" height="33.25" viewBox="0 0 47.5 33.25">
  <path id="Trazado_17269" data-name="Trazado 17269" d="M23.75,2.125A23.782,23.782,0,0,0,0,25.875v8.313a1.188,1.188,0,0,0,2.375,0V25.875a21.375,21.375,0,0,1,42.75,0v8.313a1.188,1.188,0,0,0,2.375,0V25.875A23.782,23.782,0,0,0,23.75,2.125Zm0,7.125A16.645,16.645,0,0,0,7.125,25.875v8.313a1.188,1.188,0,0,0,2.375,0V25.875a14.25,14.25,0,0,1,28.5,0v8.313a1.188,1.188,0,0,0,2.375,0V25.875A16.645,16.645,0,0,0,23.75,9.25Zm0,7.125a9.51,9.51,0,0,0-9.5,9.5v8.313a1.188,1.188,0,0,0,2.375,0V25.875a7.125,7.125,0,0,1,14.25,0v8.313a1.188,1.188,0,0,0,2.375,0V25.875A9.509,9.509,0,0,0,23.75,16.375Z" transform="translate(0 -2.125)" fill="#fff"/>
</svg>
